<svg width="435" height="313" xmlns="http://www.w3.org/2000/svg" xmlns:xlink="http://www.w3.org/1999/xlink" overflow="hidden"><defs><clipPath id="clip0"><rect x="362" y="157" width="435" height="313"/></clipPath></defs><g clip-path="url(#clip0)" transform="translate(-362 -157)"><path d="M367.5 258.5 548.5 258.5 548.5 298.5 367.5 298.5Z" stroke="#5B9BD5" stroke-width="2.53753" stroke-miterlimit="8" fill="#4472C4" fill-rule="evenodd"/><text fill="#FFFFFF" font-family="Calibri,Calibri_MSFontService,sans-serif" font-weight="400" font-size="24" transform="translate(377.091 285)">Application</text><path d="M367.5 298.5 548.5 298.5 548.5 370.5 367.5 370.5Z" stroke="#5B9BD5" stroke-width="2.53753" stroke-miterlimit="8" fill="#4472C4" fill-rule="evenodd"/><text fill="#FFFFFF" font-family="Calibri,Calibri_MSFontService,sans-serif" font-weight="400" font-size="24" transform="translate(377.091 327)">a();<tspan x="0" y="29">b()</tspan><tspan x="27.3333" y="29">;</tspan></text><path d="M609.5 159.5 790.5 159.5 790.5 199.5 609.5 199.5Z" stroke="#5B9BD5" stroke-width="2.53753" stroke-miterlimit="8" fill="#4472C4" fill-rule="evenodd"/><text fill="#FFFFFF" font-family="Calibri,Calibri_MSFontService,sans-serif" font-weight="400" font-size="24" transform="translate(618.832 187)">libPreload</text><path d="M609.5 199.5 790.5 199.5 790.5 272.5 609.5 272.5Z" stroke="#5B9BD5" stroke-width="2.53753" stroke-miterlimit="8" fill="#4472C4" fill-rule="evenodd"/><text fill="#FFFFFF" font-family="Calibri,Calibri_MSFontService,sans-serif" font-weight="400" font-size="24" transform="translate(618.832 228)">void<tspan x="46.9467" y="0">a()</tspan><tspan x="78.6133" y="0">{}</tspan><tspan x="0" y="29">…</tspan></text><path d="M614.5 343.5 795.5 343.5 795.5 382.5 614.5 382.5Z" stroke="#5B9BD5" stroke-width="2.53753" stroke-miterlimit="8" fill="#4472C4" fill-rule="evenodd"/><text fill="#FFFFFF" font-family="Calibri,Calibri_MSFontService,sans-serif" font-weight="400" font-size="24" transform="translate(623.273 370)">libA</text><path d="M614.5 382.5 795.5 382.5 795.5 454.5 614.5 454.5Z" stroke="#5B9BD5" stroke-width="2.53753" stroke-miterlimit="8" fill="#4472C4" fill-rule="evenodd"/><text fill="#FFFFFF" font-family="Calibri,Calibri_MSFontService,sans-serif" font-weight="400" font-size="21" transform="translate(623.273 400)">void<tspan x="41.6334" y="0">a()</tspan><tspan x="69.6334" y="0">{}</tspan><tspan x="0" y="26">void b() {}</tspan><tspan x="0" y="51">…</tspan></text><path d="M613 363 578.636 363 578.636 277.55 579.27 278.187 552.227 278.187 552.227 276.913 579.904 276.913 579.904 362.363 579.27 361.725 613 361.725ZM553.072 280.1 548 277.55 553.072 275Z" fill="#4472C4" fill-rule="evenodd"/></g></svg>