<?xml version="1.0" standalone="no"?>
<!DOCTYPE svg PUBLIC "-//W3C//DTD SVG 1.1//EN" "http://www.w3.org/Graphics/SVG/1.1/DTD/svg11.dtd">
<svg version="1.1" width="1000" height="662" onload="init(evt)" viewBox="0 0 1000 662" xmlns="http://www.w3.org/2000/svg" xmlns:xlink="http://www.w3.org/1999/xlink">
<!-- Flame graph stack visualization. See https://github.com/brendangregg/FlameGraph for latest version, and http://www.brendangregg.com/flamegraphs.html for examples. -->
<!-- NOTES:  -->
<defs>
	<linearGradient id="background" y1="0" y2="1" x1="0" x2="0" >
		<stop stop-color="#eeeeee" offset="5%" />
		<stop stop-color="#eeeeb0" offset="95%" />
	</linearGradient>
</defs>
<style type="text/css">
	text { font-family:Verdana; font-size:12px; fill:rgb(0,0,0); }
	#search, #ignorecase { opacity:0.1; cursor:pointer; }
	#search:hover, #search.show, #ignorecase:hover, #ignorecase.show { opacity:1; }
	#subtitle { text-anchor:middle; font-color:rgb(160,160,160); }
	#title { text-anchor:middle; font-size:17px}
	#unzoom { cursor:pointer; }
	#frames > *:hover { stroke:black; stroke-width:0.5; cursor:pointer; }
	.hide { display:none; }
	.parent { opacity:0.5; }
</style>
<script type="text/ecmascript">
<![CDATA[
	"use strict";
	var details, searchbtn, unzoombtn, matchedtxt, svg, searching, currentSearchTerm, ignorecase, ignorecaseBtn;
	function init(evt) {
		details = document.getElementById("details").firstChild;
		searchbtn = document.getElementById("search");
		ignorecaseBtn = document.getElementById("ignorecase");
		unzoombtn = document.getElementById("unzoom");
		matchedtxt = document.getElementById("matched");
		svg = document.getElementsByTagName("svg")[0];
		searching = 0;
		currentSearchTerm = null;

		// use GET parameters to restore a flamegraphs state.
		var params = get_params();
		if (params.x && params.y)
			zoom(find_group(document.querySelector('[x="' + params.x + '"][y="' + params.y + '"]')));
                if (params.s) search(params.s);
	}

	// event listeners
	window.addEventListener("click", function(e) {
		var target = find_group(e.target);
		if (target) {
			if (target.nodeName == "a") {
				if (e.ctrlKey === false) return;
				e.preventDefault();
			}
			if (target.classList.contains("parent")) unzoom(true);
			zoom(target);
			if (!document.querySelector('.parent')) {
				// we have basically done a clearzoom so clear the url
				var params = get_params();
				if (params.x) delete params.x;
				if (params.y) delete params.y;
				history.replaceState(null, null, parse_params(params));
				unzoombtn.classList.add("hide");
				return;
			}

			// set parameters for zoom state
			var el = target.querySelector("rect");
			if (el && el.attributes && el.attributes.y && el.attributes._orig_x) {
				var params = get_params()
				params.x = el.attributes._orig_x.value;
				params.y = el.attributes.y.value;
				history.replaceState(null, null, parse_params(params));
			}
		}
		else if (e.target.id == "unzoom") clearzoom();
		else if (e.target.id == "search") search_prompt();
		else if (e.target.id == "ignorecase") toggle_ignorecase();
	}, false)

	// mouse-over for info
	// show
	window.addEventListener("mouseover", function(e) {
		var target = find_group(e.target);
		if (target) details.nodeValue = "Function: " + g_to_text(target);
	}, false)

	// clear
	window.addEventListener("mouseout", function(e) {
		var target = find_group(e.target);
		if (target) details.nodeValue = ' ';
	}, false)

	// ctrl-F for search
	// ctrl-I to toggle case-sensitive search
	window.addEventListener("keydown",function (e) {
		if (e.keyCode === 114 || (e.ctrlKey && e.keyCode === 70)) {
			e.preventDefault();
			search_prompt();
		}
		else if (e.ctrlKey && e.keyCode === 73) {
			e.preventDefault();
			toggle_ignorecase();
		}
	}, false)

	// functions
	function get_params() {
		var params = {};
		var paramsarr = window.location.search.substr(1).split('&');
		for (var i = 0; i < paramsarr.length; ++i) {
			var tmp = paramsarr[i].split("=");
			if (!tmp[0] || !tmp[1]) continue;
			params[tmp[0]]  = decodeURIComponent(tmp[1]);
		}
		return params;
	}
	function parse_params(params) {
		var uri = "?";
		for (var key in params) {
			uri += key + '=' + encodeURIComponent(params[key]) + '&';
		}
		if (uri.slice(-1) == "&")
			uri = uri.substring(0, uri.length - 1);
		if (uri == '?')
			uri = window.location.href.split('?')[0];
		return uri;
	}
	function find_child(node, selector) {
		var children = node.querySelectorAll(selector);
		if (children.length) return children[0];
	}
	function find_group(node) {
		var parent = node.parentElement;
		if (!parent) return;
		if (parent.id == "frames") return node;
		return find_group(parent);
	}
	function orig_save(e, attr, val) {
		if (e.attributes["_orig_" + attr] != undefined) return;
		if (e.attributes[attr] == undefined) return;
		if (val == undefined) val = e.attributes[attr].value;
		e.setAttribute("_orig_" + attr, val);
	}
	function orig_load(e, attr) {
		if (e.attributes["_orig_"+attr] == undefined) return;
		e.attributes[attr].value = e.attributes["_orig_" + attr].value;
		e.removeAttribute("_orig_"+attr);
	}
	function g_to_text(e) {
		var text = find_child(e, "title").firstChild.nodeValue;
		return (text)
	}
	function g_to_func(e) {
		var func = g_to_text(e);
		// if there's any manipulation we want to do to the function
		// name before it's searched, do it here before returning.
		return (func);
	}
	function update_text(e) {
		var r = find_child(e, "rect");
		var t = find_child(e, "text");
		var w = parseFloat(r.attributes.width.value) -3;
		var txt = find_child(e, "title").textContent.replace(/\([^(]*\)$/,"");
		t.attributes.x.value = parseFloat(r.attributes.x.value) + 3;

		// Smaller than this size won't fit anything
		if (w < 2 * 12 * 0.59) {
			t.textContent = "";
			return;
		}

		t.textContent = txt;
		var sl = t.getSubStringLength(0, txt.length);
		// check if only whitespace or if we can fit the entire string into width w
		if (/^ *$/.test(txt) || sl < w)
			return;

		// this isn't perfect, but gives a good starting point
		// and avoids calling getSubStringLength too often
		var start = Math.floor((w/sl) * txt.length);
		for (var x = start; x > 0; x = x-2) {
			if (t.getSubStringLength(0, x + 2) <= w) {
				t.textContent = txt.substring(0, x) + "..";
				return;
			}
		}
		t.textContent = "";
	}

	// zoom
	function zoom_reset(e) {
		if (e.attributes != undefined) {
			orig_load(e, "x");
			orig_load(e, "width");
		}
		if (e.childNodes == undefined) return;
		for (var i = 0, c = e.childNodes; i < c.length; i++) {
			zoom_reset(c[i]);
		}
	}
	function zoom_child(e, x, ratio) {
		if (e.attributes != undefined) {
			if (e.attributes.x != undefined) {
				orig_save(e, "x");
				e.attributes.x.value = (parseFloat(e.attributes.x.value) - x - 10) * ratio + 10;
				if (e.tagName == "text")
					e.attributes.x.value = find_child(e.parentNode, "rect[x]").attributes.x.value + 3;
			}
			if (e.attributes.width != undefined) {
				orig_save(e, "width");
				e.attributes.width.value = parseFloat(e.attributes.width.value) * ratio;
			}
		}

		if (e.childNodes == undefined) return;
		for (var i = 0, c = e.childNodes; i < c.length; i++) {
			zoom_child(c[i], x - 10, ratio);
		}
	}
	function zoom_parent(e) {
		if (e.attributes) {
			if (e.attributes.x != undefined) {
				orig_save(e, "x");
				e.attributes.x.value = 10;
			}
			if (e.attributes.width != undefined) {
				orig_save(e, "width");
				e.attributes.width.value = parseInt(svg.width.baseVal.value) - (10 * 2);
			}
		}
		if (e.childNodes == undefined) return;
		for (var i = 0, c = e.childNodes; i < c.length; i++) {
			zoom_parent(c[i]);
		}
	}
	function zoom(node) {
		var attr = find_child(node, "rect").attributes;
		var width = parseFloat(attr.width.value);
		var xmin = parseFloat(attr.x.value);
		var xmax = parseFloat(xmin + width);
		var ymin = parseFloat(attr.y.value);
		var ratio = (svg.width.baseVal.value - 2 * 10) / width;

		// XXX: Workaround for JavaScript float issues (fix me)
		var fudge = 0.0001;

		unzoombtn.classList.remove("hide");

		var el = document.getElementById("frames").children;
		for (var i = 0; i < el.length; i++) {
			var e = el[i];
			var a = find_child(e, "rect").attributes;
			var ex = parseFloat(a.x.value);
			var ew = parseFloat(a.width.value);
			var upstack;
			// Is it an ancestor
			if (0 == 0) {
				upstack = parseFloat(a.y.value) > ymin;
			} else {
				upstack = parseFloat(a.y.value) < ymin;
			}
			if (upstack) {
				// Direct ancestor
				if (ex <= xmin && (ex+ew+fudge) >= xmax) {
					e.classList.add("parent");
					zoom_parent(e);
					update_text(e);
				}
				// not in current path
				else
					e.classList.add("hide");
			}
			// Children maybe
			else {
				// no common path
				if (ex < xmin || ex + fudge >= xmax) {
					e.classList.add("hide");
				}
				else {
					zoom_child(e, xmin, ratio);
					update_text(e);
				}
			}
		}
		search();
	}
	function unzoom(dont_update_text) {
		unzoombtn.classList.add("hide");
		var el = document.getElementById("frames").children;
		for(var i = 0; i < el.length; i++) {
			el[i].classList.remove("parent");
			el[i].classList.remove("hide");
			zoom_reset(el[i]);
			if(!dont_update_text) update_text(el[i]);
		}
		search();
	}
	function clearzoom() {
		unzoom();

		// remove zoom state
		var params = get_params();
		if (params.x) delete params.x;
		if (params.y) delete params.y;
		history.replaceState(null, null, parse_params(params));
	}

	// search
	function toggle_ignorecase() {
		ignorecase = !ignorecase;
		if (ignorecase) {
			ignorecaseBtn.classList.add("show");
		} else {
			ignorecaseBtn.classList.remove("show");
		}
		reset_search();
		search();
	}
	function reset_search() {
		var el = document.querySelectorAll("#frames rect");
		for (var i = 0; i < el.length; i++) {
			orig_load(el[i], "fill")
		}
		var params = get_params();
		delete params.s;
		history.replaceState(null, null, parse_params(params));
	}
	function search_prompt() {
		if (!searching) {
			var term = prompt("Enter a search term (regexp " +
			    "allowed, eg: ^ext4_)"
			    + (ignorecase ? ", ignoring case" : "")
			    + "\nPress Ctrl-i to toggle case sensitivity", "");
			if (term != null) search(term);
		} else {
			reset_search();
			searching = 0;
			currentSearchTerm = null;
			searchbtn.classList.remove("show");
			searchbtn.firstChild.nodeValue = "Search"
			matchedtxt.classList.add("hide");
			matchedtxt.firstChild.nodeValue = ""
		}
	}
	function search(term) {
		if (term) currentSearchTerm = term;
		if (currentSearchTerm === null) return;

		var re = new RegExp(currentSearchTerm, ignorecase ? 'i' : '');
		var el = document.getElementById("frames").children;
		var matches = new Object();
		var maxwidth = 0;
		for (var i = 0; i < el.length; i++) {
			var e = el[i];
			var func = g_to_func(e);
			var rect = find_child(e, "rect");
			if (func == null || rect == null)
				continue;

			// Save max width. Only works as we have a root frame
			var w = parseFloat(rect.attributes.width.value);
			if (w > maxwidth)
				maxwidth = w;

			if (func.match(re)) {
				// highlight
				var x = parseFloat(rect.attributes.x.value);
				orig_save(rect, "fill");
				rect.attributes.fill.value = "rgb(230,0,230)";

				// remember matches
				if (matches[x] == undefined) {
					matches[x] = w;
				} else {
					if (w > matches[x]) {
						// overwrite with parent
						matches[x] = w;
					}
				}
				searching = 1;
			}
		}
		if (!searching)
			return;
		var params = get_params();
		params.s = currentSearchTerm;
		history.replaceState(null, null, parse_params(params));

		searchbtn.classList.add("show");
		searchbtn.firstChild.nodeValue = "Reset Search";

		// calculate percent matched, excluding vertical overlap
		var count = 0;
		var lastx = -1;
		var lastw = 0;
		var keys = Array();
		for (k in matches) {
			if (matches.hasOwnProperty(k))
				keys.push(k);
		}
		// sort the matched frames by their x location
		// ascending, then width descending
		keys.sort(function(a, b){
			return a - b;
		});
		// Step through frames saving only the biggest bottom-up frames
		// thanks to the sort order. This relies on the tree property
		// where children are always smaller than their parents.
		var fudge = 0.0001;	// JavaScript floating point
		for (var k in keys) {
			var x = parseFloat(keys[k]);
			var w = matches[keys[k]];
			if (x >= lastx + lastw - fudge) {
				count += w;
				lastx = x;
				lastw = w;
			}
		}
		// display matched percent
		matchedtxt.classList.remove("hide");
		var pct = 100 * count / maxwidth;
		if (pct != 100) pct = pct.toFixed(1)
		matchedtxt.firstChild.nodeValue = "Matched: " + pct + "%";
	}
]]>
</script>
<rect x="0.0" y="0" width="1000.0" height="662.0" fill="url(#background)"  />
<text id="title" x="500.00" y="24" >testFG_BMG_L0 - graph_api_benchmark_ur SubmitGraph numKernels:10 ioq 0 measureCompletion 1</text>
<text id="details" x="10.00" y="645" > </text>
<text id="unzoom" x="10.00" y="24" class="hide">Reset Zoom</text>
<text id="search" x="890.00" y="24" >Search</text>
<text id="ignorecase" x="974.00" y="24" >ic</text>
<text id="matched" x="890.00" y="645" > </text>
<g id="frames">
<g >
<title>[unknown] (166,666 samples, 8.50%)</title><rect x="906.7" y="213" width="83.3" height="15.0" fill="rgb(210,24,5)" rx="2" ry="2" />
<text  x="909.72" y="223.5" >[unknown]</text>
</g>
<g >
<title>all (1,961,177 samples, 100%)</title><rect x="10.0" y="613" width="980.0" height="15.0" fill="rgb(213,39,9)" rx="2" ry="2" />
<text  x="13.00" y="623.5" ></text>
</g>
<g >
<title>__GI__dl_catch_exception (450,926 samples, 22.99%)</title><rect x="353.7" y="485" width="225.3" height="15.0" fill="rgb(232,125,30)" rx="2" ry="2" />
<text  x="356.69" y="495.5" >__GI__dl_catch_exception</text>
</g>
<g >
<title>[unknown] (166,666 samples, 8.50%)</title><rect x="906.7" y="117" width="83.3" height="15.0" fill="rgb(210,24,5)" rx="2" ry="2" />
<text  x="909.72" y="127.5" >[unknown]</text>
</g>
<g >
<title>new_heap (166,666 samples, 8.50%)</title><rect x="906.7" y="261" width="83.3" height="15.0" fill="rgb(243,178,42)" rx="2" ry="2" />
<text  x="909.72" y="271.5" >new_heap</text>
</g>
<g >
<title>[unknown] (205,731 samples, 10.49%)</title><rect x="803.9" y="229" width="102.8" height="15.0" fill="rgb(210,24,5)" rx="2" ry="2" />
<text  x="806.91" y="239.5" >[unknown]</text>
</g>
<g >
<title>[unknown] (205,731 samples, 10.49%)</title><rect x="803.9" y="213" width="102.8" height="15.0" fill="rgb(210,24,5)" rx="2" ry="2" />
<text  x="806.91" y="223.5" >[unknown]</text>
</g>
<g >
<title>open_path (450,926 samples, 22.99%)</title><rect x="353.7" y="437" width="225.3" height="15.0" fill="rgb(224,91,21)" rx="2" ry="2" />
<text  x="356.69" y="447.5" >open_path</text>
</g>
<g >
<title>[libze_intel_gpu.so.1.6.34666.3] (354,461 samples, 18.07%)</title><rect x="10.0" y="565" width="177.1" height="15.0" fill="rgb(212,34,8)" rx="2" ry="2" />
<text  x="13.00" y="575.5" >[libze_intel_gpu.so.1.6..</text>
</g>
<g >
<title>[unknown] (166,666 samples, 8.50%)</title><rect x="270.4" y="453" width="83.3" height="15.0" fill="rgb(210,24,5)" rx="2" ry="2" />
<text  x="273.41" y="463.5" >[unknown]</text>
</g>
<g >
<title>[unknown] (166,666 samples, 8.50%)</title><rect x="187.1" y="421" width="83.3" height="15.0" fill="rgb(210,24,5)" rx="2" ry="2" />
<text  x="190.12" y="431.5" >[unknown]</text>
</g>
<g >
<title>clone3 (539,063 samples, 27.49%)</title><rect x="720.6" y="581" width="269.4" height="15.0" fill="rgb(216,54,12)" rx="2" ry="2" />
<text  x="723.63" y="591.5" >clone3</text>
</g>
<g >
<title>__GI___libc_malloc (205,731 samples, 10.49%)</title><rect x="803.9" y="357" width="102.8" height="15.0" fill="rgb(219,68,16)" rx="2" ry="2" />
<text  x="806.91" y="367.5" >__GI___libc_..</text>
</g>
<g >
<title>[unknown] (166,666 samples, 8.50%)</title><rect x="906.7" y="229" width="83.3" height="15.0" fill="rgb(210,24,5)" rx="2" ry="2" />
<text  x="909.72" y="239.5" >[unknown]</text>
</g>
<g >
<title>[unknown] (166,666 samples, 8.50%)</title><rect x="187.1" y="549" width="83.3" height="15.0" fill="rgb(210,24,5)" rx="2" ry="2" />
<text  x="190.12" y="559.5" >[unknown]</text>
</g>
<g >
<title>fillin_rpath (283,395 samples, 14.45%)</title><rect x="579.0" y="453" width="141.6" height="15.0" fill="rgb(220,72,17)" rx="2" ry="2" />
<text  x="582.02" y="463.5" >fillin_rpath</text>
</g>
<g >
<title>[unknown] (166,666 samples, 8.50%)</title><rect x="906.7" y="149" width="83.3" height="15.0" fill="rgb(210,24,5)" rx="2" ry="2" />
<text  x="909.72" y="159.5" >[unknown]</text>
</g>
<g >
<title>_dl_map_object_deps (450,926 samples, 22.99%)</title><rect x="353.7" y="501" width="225.3" height="15.0" fill="rgb(219,68,16)" rx="2" ry="2" />
<text  x="356.69" y="511.5" >_dl_map_object_deps</text>
</g>
<g >
<title>[libze_intel_gpu.so.1.6.34666.3] (372,397 samples, 18.99%)</title><rect x="720.6" y="405" width="186.1" height="15.0" fill="rgb(212,34,8)" rx="2" ry="2" />
<text  x="723.63" y="415.5" >[libze_intel_gpu.so.1.6...</text>
</g>
<g >
<title>tcache_init (166,666 samples, 8.50%)</title><rect x="906.7" y="325" width="83.3" height="15.0" fill="rgb(254,225,53)" rx="2" ry="2" />
<text  x="909.72" y="335.5" >tcache_init</text>
</g>
<g >
<title>[unknown] (205,731 samples, 10.49%)</title><rect x="803.9" y="245" width="102.8" height="15.0" fill="rgb(210,24,5)" rx="2" ry="2" />
<text  x="806.91" y="255.5" >[unknown]</text>
</g>
<g >
<title>__GI___open64_nocancel (450,926 samples, 22.99%)</title><rect x="353.7" y="405" width="225.3" height="15.0" fill="rgb(218,63,15)" rx="2" ry="2" />
<text  x="356.69" y="415.5" >__GI___open64_nocancel</text>
</g>
<g >
<title>_dl_init_paths (283,395 samples, 14.45%)</title><rect x="579.0" y="485" width="141.6" height="15.0" fill="rgb(248,198,47)" rx="2" ry="2" />
<text  x="582.02" y="495.5" >_dl_init_paths</text>
</g>
<g >
<title>[unknown] (450,926 samples, 22.99%)</title><rect x="353.7" y="261" width="225.3" height="15.0" fill="rgb(210,24,5)" rx="2" ry="2" />
<text  x="356.69" y="271.5" >[unknown]</text>
</g>
<g >
<title>[libze_intel_gpu.so.1.6.34666.3] (539,063 samples, 27.49%)</title><rect x="720.6" y="469" width="269.4" height="15.0" fill="rgb(212,34,8)" rx="2" ry="2" />
<text  x="723.63" y="479.5" >[libze_intel_gpu.so.1.6.34666.3]</text>
</g>
<g >
<title>[unknown] (166,666 samples, 8.50%)</title><rect x="187.1" y="501" width="83.3" height="15.0" fill="rgb(210,24,5)" rx="2" ry="2" />
<text  x="190.12" y="511.5" >[unknown]</text>
</g>
<g >
<title>[unknown] (166,666 samples, 8.50%)</title><rect x="906.7" y="85" width="83.3" height="15.0" fill="rgb(210,24,5)" rx="2" ry="2" />
<text  x="909.72" y="95.5" >[unknown]</text>
</g>
<g >
<title>[unknown] (166,666 samples, 8.50%)</title><rect x="270.4" y="533" width="83.3" height="15.0" fill="rgb(210,24,5)" rx="2" ry="2" />
<text  x="273.41" y="543.5" >[unknown]</text>
</g>
<g >
<title>[libze_intel_gpu.so.1.6.34666.3] (354,461 samples, 18.07%)</title><rect x="10.0" y="549" width="177.1" height="15.0" fill="rgb(212,34,8)" rx="2" ry="2" />
<text  x="13.00" y="559.5" >[libze_intel_gpu.so.1.6..</text>
</g>
<g >
<title>[unknown] (450,926 samples, 22.99%)</title><rect x="353.7" y="389" width="225.3" height="15.0" fill="rgb(210,24,5)" rx="2" ry="2" />
<text  x="356.69" y="399.5" >[unknown]</text>
</g>
<g >
<title>[unknown] (166,666 samples, 8.50%)</title><rect x="270.4" y="517" width="83.3" height="15.0" fill="rgb(210,24,5)" rx="2" ry="2" />
<text  x="273.41" y="527.5" >[unknown]</text>
</g>
<g >
<title>[unknown] (166,666 samples, 8.50%)</title><rect x="187.1" y="453" width="83.3" height="15.0" fill="rgb(210,24,5)" rx="2" ry="2" />
<text  x="190.12" y="463.5" >[unknown]</text>
</g>
<g >
<title>call_init_paths (283,395 samples, 14.45%)</title><rect x="579.0" y="501" width="141.6" height="15.0" fill="rgb(244,179,42)" rx="2" ry="2" />
<text  x="582.02" y="511.5" >call_init_paths</text>
</g>
<g >
<title>[unknown] (166,666 samples, 8.50%)</title><rect x="270.4" y="421" width="83.3" height="15.0" fill="rgb(210,24,5)" rx="2" ry="2" />
<text  x="273.41" y="431.5" >[unknown]</text>
</g>
<g >
<title>dl_main (734,321 samples, 37.44%)</title><rect x="353.7" y="517" width="366.9" height="15.0" fill="rgb(236,145,34)" rx="2" ry="2" />
<text  x="356.69" y="527.5" >dl_main</text>
</g>
<g >
<title>tcache_init (166,666 samples, 8.50%)</title><rect x="906.7" y="341" width="83.3" height="15.0" fill="rgb(254,225,53)" rx="2" ry="2" />
<text  x="909.72" y="351.5" >tcache_init</text>
</g>
<g >
<title>[unknown] (450,926 samples, 22.99%)</title><rect x="353.7" y="373" width="225.3" height="15.0" fill="rgb(210,24,5)" rx="2" ry="2" />
<text  x="356.69" y="383.5" >[unknown]</text>
</g>
<g >
<title>_dl_map_object (450,926 samples, 22.99%)</title><rect x="353.7" y="453" width="225.3" height="15.0" fill="rgb(248,199,47)" rx="2" ry="2" />
<text  x="356.69" y="463.5" >_dl_map_object</text>
</g>
<g >
<title>[libze_intel_gpu.so.1.6.34666.3] (372,397 samples, 18.99%)</title><rect x="720.6" y="421" width="186.1" height="15.0" fill="rgb(212,34,8)" rx="2" ry="2" />
<text  x="723.63" y="431.5" >[libze_intel_gpu.so.1.6...</text>
</g>
<g >
<title>__rtld_malloc_init_stubs (166,666 samples, 8.50%)</title><rect x="270.4" y="549" width="83.3" height="15.0" fill="rgb(242,172,41)" rx="2" ry="2" />
<text  x="273.41" y="559.5" >__rtld_ma..</text>
</g>
<g >
<title>[unknown] (166,666 samples, 8.50%)</title><rect x="906.7" y="53" width="83.3" height="15.0" fill="rgb(210,24,5)" rx="2" ry="2" />
<text  x="909.72" y="63.5" >[unknown]</text>
</g>
<g >
<title>[unknown] (450,926 samples, 22.99%)</title><rect x="353.7" y="293" width="225.3" height="15.0" fill="rgb(210,24,5)" rx="2" ry="2" />
<text  x="356.69" y="303.5" >[unknown]</text>
</g>
<g >
<title>[unknown] (166,666 samples, 8.50%)</title><rect x="187.1" y="357" width="83.3" height="15.0" fill="rgb(210,24,5)" rx="2" ry="2" />
<text  x="190.12" y="367.5" >[unknown]</text>
</g>
<g >
<title>[unknown] (166,666 samples, 8.50%)</title><rect x="270.4" y="485" width="83.3" height="15.0" fill="rgb(210,24,5)" rx="2" ry="2" />
<text  x="273.41" y="495.5" >[unknown]</text>
</g>
<g >
<title>start_thread (539,063 samples, 27.49%)</title><rect x="720.6" y="565" width="269.4" height="15.0" fill="rgb(212,34,8)" rx="2" ry="2" />
<text  x="723.63" y="575.5" >start_thread</text>
</g>
<g >
<title>[libze_intel_gpu.so.1.6.34666.3] (205,731 samples, 10.49%)</title><rect x="803.9" y="389" width="102.8" height="15.0" fill="rgb(212,34,8)" rx="2" ry="2" />
<text  x="806.91" y="399.5" >[libze_intel..</text>
</g>
<g >
<title>openaux (450,926 samples, 22.99%)</title><rect x="353.7" y="469" width="225.3" height="15.0" fill="rgb(252,217,52)" rx="2" ry="2" />
<text  x="356.69" y="479.5" >openaux</text>
</g>
<g >
<title>[libze_intel_gpu.so.1.6.34666.3] (539,063 samples, 27.49%)</title><rect x="720.6" y="533" width="269.4" height="15.0" fill="rgb(212,34,8)" rx="2" ry="2" />
<text  x="723.63" y="543.5" >[libze_intel_gpu.so.1.6.34666.3]</text>
</g>
<g >
<title>[unknown] (166,666 samples, 8.50%)</title><rect x="270.4" y="469" width="83.3" height="15.0" fill="rgb(210,24,5)" rx="2" ry="2" />
<text  x="273.41" y="479.5" >[unknown]</text>
</g>
<g >
<title>[unknown] (166,666 samples, 8.50%)</title><rect x="187.1" y="341" width="83.3" height="15.0" fill="rgb(210,24,5)" rx="2" ry="2" />
<text  x="190.12" y="351.5" >[unknown]</text>
</g>
<g >
<title>[unknown] (205,731 samples, 10.49%)</title><rect x="803.9" y="277" width="102.8" height="15.0" fill="rgb(210,24,5)" rx="2" ry="2" />
<text  x="806.91" y="287.5" >[unknown]</text>
</g>
<g >
<title>[unknown] (205,731 samples, 10.49%)</title><rect x="803.9" y="325" width="102.8" height="15.0" fill="rgb(210,24,5)" rx="2" ry="2" />
<text  x="806.91" y="335.5" >[unknown]</text>
</g>
<g >
<title>[libstdc++.so.6.0.33] (539,063 samples, 27.49%)</title><rect x="720.6" y="549" width="269.4" height="15.0" fill="rgb(216,51,12)" rx="2" ry="2" />
<text  x="723.63" y="559.5" >[libstdc++.so.6.0.33]</text>
</g>
<g >
<title>[unknown] (166,666 samples, 8.50%)</title><rect x="906.7" y="69" width="83.3" height="15.0" fill="rgb(210,24,5)" rx="2" ry="2" />
<text  x="909.72" y="79.5" >[unknown]</text>
</g>
<g >
<title>[libze_intel_gpu.so.1.6.34666.3] (539,063 samples, 27.49%)</title><rect x="720.6" y="501" width="269.4" height="15.0" fill="rgb(212,34,8)" rx="2" ry="2" />
<text  x="723.63" y="511.5" >[libze_intel_gpu.so.1.6.34666.3]</text>
</g>
<g >
<title>[unknown] (450,926 samples, 22.99%)</title><rect x="353.7" y="309" width="225.3" height="15.0" fill="rgb(210,24,5)" rx="2" ry="2" />
<text  x="356.69" y="319.5" >[unknown]</text>
</g>
<g >
<title>[unknown] (450,926 samples, 22.99%)</title><rect x="353.7" y="277" width="225.3" height="15.0" fill="rgb(210,24,5)" rx="2" ry="2" />
<text  x="356.69" y="287.5" >[unknown]</text>
</g>
<g >
<title>[unknown] (450,926 samples, 22.99%)</title><rect x="353.7" y="325" width="225.3" height="15.0" fill="rgb(210,24,5)" rx="2" ry="2" />
<text  x="356.69" y="335.5" >[unknown]</text>
</g>
<g >
<title>[unknown] (166,666 samples, 8.50%)</title><rect x="270.4" y="389" width="83.3" height="15.0" fill="rgb(210,24,5)" rx="2" ry="2" />
<text  x="273.41" y="399.5" >[unknown]</text>
</g>
<g >
<title>[unknown] (166,666 samples, 8.50%)</title><rect x="187.1" y="485" width="83.3" height="15.0" fill="rgb(210,24,5)" rx="2" ry="2" />
<text  x="190.12" y="495.5" >[unknown]</text>
</g>
<g >
<title>[unknown] (205,731 samples, 10.49%)</title><rect x="803.9" y="309" width="102.8" height="15.0" fill="rgb(210,24,5)" rx="2" ry="2" />
<text  x="806.91" y="319.5" >[unknown]</text>
</g>
<g >
<title>std::__cxx11::basic_stringbuf&lt;char, std::char_traits&lt;char&gt;, std::allocator&lt;char&gt; &gt;::overflow (166,666 samples, 8.50%)</title><rect x="906.7" y="405" width="83.3" height="15.0" fill="rgb(221,75,18)" rx="2" ry="2" />
<text  x="909.72" y="415.5" >std::__cx..</text>
</g>
<g >
<title>decompose_rpath (283,395 samples, 14.45%)</title><rect x="579.0" y="469" width="141.6" height="15.0" fill="rgb(247,193,46)" rx="2" ry="2" />
<text  x="582.02" y="479.5" >decompose_rpath</text>
</g>
<g >
<title>[unknown] (205,731 samples, 10.49%)</title><rect x="803.9" y="293" width="102.8" height="15.0" fill="rgb(210,24,5)" rx="2" ry="2" />
<text  x="806.91" y="303.5" >[unknown]</text>
</g>
<g >
<title>[unknown] (166,666 samples, 8.50%)</title><rect x="187.1" y="469" width="83.3" height="15.0" fill="rgb(210,24,5)" rx="2" ry="2" />
<text  x="190.12" y="479.5" >[unknown]</text>
</g>
<g >
<title>[unknown] (166,666 samples, 8.50%)</title><rect x="187.1" y="565" width="83.3" height="15.0" fill="rgb(210,24,5)" rx="2" ry="2" />
<text  x="190.12" y="575.5" >[unknown]</text>
</g>
<g >
<title>[libze_intel_gpu.so.1.6.34666.3] (539,063 samples, 27.49%)</title><rect x="720.6" y="517" width="269.4" height="15.0" fill="rgb(212,34,8)" rx="2" ry="2" />
<text  x="723.63" y="527.5" >[libze_intel_gpu.so.1.6.34666.3]</text>
</g>
<g >
<title>_dl_start_final (734,321 samples, 37.44%)</title><rect x="353.7" y="549" width="366.9" height="15.0" fill="rgb(252,216,51)" rx="2" ry="2" />
<text  x="356.69" y="559.5" >_dl_start_final</text>
</g>
<g >
<title>[unknown] (166,666 samples, 8.50%)</title><rect x="187.1" y="517" width="83.3" height="15.0" fill="rgb(210,24,5)" rx="2" ry="2" />
<text  x="190.12" y="527.5" >[unknown]</text>
</g>
<g >
<title>[libze_intel_gpu.so.1.6.34666.3] (539,063 samples, 27.49%)</title><rect x="720.6" y="485" width="269.4" height="15.0" fill="rgb(212,34,8)" rx="2" ry="2" />
<text  x="723.63" y="495.5" >[libze_intel_gpu.so.1.6.34666.3]</text>
</g>
<g >
<title>[unknown] (205,731 samples, 10.49%)</title><rect x="803.9" y="181" width="102.8" height="15.0" fill="rgb(210,24,5)" rx="2" ry="2" />
<text  x="806.91" y="191.5" >[unknown]</text>
</g>
<g >
<title>[unknown] (166,666 samples, 8.50%)</title><rect x="906.7" y="197" width="83.3" height="15.0" fill="rgb(210,24,5)" rx="2" ry="2" />
<text  x="909.72" y="207.5" >[unknown]</text>
</g>
<g >
<title>_dl_start (900,987 samples, 45.94%)</title><rect x="270.4" y="565" width="450.2" height="15.0" fill="rgb(237,151,36)" rx="2" ry="2" />
<text  x="273.41" y="575.5" >_dl_start</text>
</g>
<g >
<title>[unknown] (166,666 samples, 8.50%)</title><rect x="187.1" y="437" width="83.3" height="15.0" fill="rgb(210,24,5)" rx="2" ry="2" />
<text  x="190.12" y="447.5" >[unknown]</text>
</g>
<g >
<title>[unknown] (166,666 samples, 8.50%)</title><rect x="270.4" y="501" width="83.3" height="15.0" fill="rgb(210,24,5)" rx="2" ry="2" />
<text  x="273.41" y="511.5" >[unknown]</text>
</g>
<g >
<title>operator new (205,731 samples, 10.49%)</title><rect x="803.9" y="373" width="102.8" height="15.0" fill="rgb(216,51,12)" rx="2" ry="2" />
<text  x="806.91" y="383.5" >operator new</text>
</g>
<g >
<title>[unknown] (166,666 samples, 8.50%)</title><rect x="187.1" y="533" width="83.3" height="15.0" fill="rgb(210,24,5)" rx="2" ry="2" />
<text  x="190.12" y="543.5" >[unknown]</text>
</g>
<g >
<title>_int_new_arena (166,666 samples, 8.50%)</title><rect x="906.7" y="277" width="83.3" height="15.0" fill="rgb(249,206,49)" rx="2" ry="2" />
<text  x="909.72" y="287.5" >_int_new_..</text>
</g>
<g >
<title>[unknown] (166,666 samples, 8.50%)</title><rect x="906.7" y="101" width="83.3" height="15.0" fill="rgb(210,24,5)" rx="2" ry="2" />
<text  x="909.72" y="111.5" >[unknown]</text>
</g>
<g >
<title>arena_get2 (166,666 samples, 8.50%)</title><rect x="906.7" y="309" width="83.3" height="15.0" fill="rgb(207,9,2)" rx="2" ry="2" />
<text  x="909.72" y="319.5" >arena_get2</text>
</g>
<g >
<title>[unknown] (166,666 samples, 8.50%)</title><rect x="906.7" y="181" width="83.3" height="15.0" fill="rgb(210,24,5)" rx="2" ry="2" />
<text  x="909.72" y="191.5" >[unknown]</text>
</g>
<g >
<title>[unknown] (205,731 samples, 10.49%)</title><rect x="803.9" y="197" width="102.8" height="15.0" fill="rgb(210,24,5)" rx="2" ry="2" />
<text  x="806.91" y="207.5" >[unknown]</text>
</g>
<g >
<title>[unknown] (166,666 samples, 8.50%)</title><rect x="270.4" y="405" width="83.3" height="15.0" fill="rgb(210,24,5)" rx="2" ry="2" />
<text  x="273.41" y="415.5" >[unknown]</text>
</g>
<g >
<title>_int_malloc (205,731 samples, 10.49%)</title><rect x="803.9" y="341" width="102.8" height="15.0" fill="rgb(215,47,11)" rx="2" ry="2" />
<text  x="806.91" y="351.5" >_int_malloc</text>
</g>
<g >
<title>operator new (166,666 samples, 8.50%)</title><rect x="906.7" y="373" width="83.3" height="15.0" fill="rgb(216,51,12)" rx="2" ry="2" />
<text  x="909.72" y="383.5" >operator ..</text>
</g>
<g >
<title>[unknown] (450,926 samples, 22.99%)</title><rect x="353.7" y="245" width="225.3" height="15.0" fill="rgb(210,24,5)" rx="2" ry="2" />
<text  x="356.69" y="255.5" >[unknown]</text>
</g>
<g >
<title>std::__cxx11::basic_string&lt;char, std::char_traits&lt;char&gt;, std::allocator&lt;char&gt; &gt;::reserve (166,666 samples, 8.50%)</title><rect x="906.7" y="389" width="83.3" height="15.0" fill="rgb(244,181,43)" rx="2" ry="2" />
<text  x="909.72" y="399.5" >std::__cx..</text>
</g>
<g >
<title>[unknown] (205,731 samples, 10.49%)</title><rect x="803.9" y="261" width="102.8" height="15.0" fill="rgb(210,24,5)" rx="2" ry="2" />
<text  x="806.91" y="271.5" >[unknown]</text>
</g>
<g >
<title>[unknown] (166,666 samples, 8.50%)</title><rect x="906.7" y="37" width="83.3" height="15.0" fill="rgb(210,24,5)" rx="2" ry="2" />
<text  x="909.72" y="47.5" >[unknown]</text>
</g>
<g >
<title>_dl_sysdep_start (734,321 samples, 37.44%)</title><rect x="353.7" y="533" width="366.9" height="15.0" fill="rgb(234,137,32)" rx="2" ry="2" />
<text  x="356.69" y="543.5" >_dl_sysdep_start</text>
</g>
<g >
<title>[unknown] (166,666 samples, 8.50%)</title><rect x="187.1" y="373" width="83.3" height="15.0" fill="rgb(210,24,5)" rx="2" ry="2" />
<text  x="190.12" y="383.5" >[unknown]</text>
</g>
<g >
<title>graph_api_bench (1,961,177 samples, 100.00%)</title><rect x="10.0" y="597" width="980.0" height="15.0" fill="rgb(226,99,23)" rx="2" ry="2" />
<text  x="13.00" y="607.5" >graph_api_bench</text>
</g>
<g >
<title>[unknown] (166,666 samples, 8.50%)</title><rect x="906.7" y="165" width="83.3" height="15.0" fill="rgb(210,24,5)" rx="2" ry="2" />
<text  x="909.72" y="175.5" >[unknown]</text>
</g>
<g >
<title>[unknown] (166,666 samples, 8.50%)</title><rect x="187.1" y="389" width="83.3" height="15.0" fill="rgb(210,24,5)" rx="2" ry="2" />
<text  x="190.12" y="399.5" >[unknown]</text>
</g>
<g >
<title>[libze_intel_gpu.so.1.6.34666.3] (372,397 samples, 18.99%)</title><rect x="720.6" y="437" width="186.1" height="15.0" fill="rgb(212,34,8)" rx="2" ry="2" />
<text  x="723.63" y="447.5" >[libze_intel_gpu.so.1.6...</text>
</g>
<g >
<title>std::basic_streambuf&lt;char, std::char_traits&lt;char&gt; &gt;::xsputn (166,666 samples, 8.50%)</title><rect x="906.7" y="421" width="83.3" height="15.0" fill="rgb(244,181,43)" rx="2" ry="2" />
<text  x="909.72" y="431.5" >std::basi..</text>
</g>
<g >
<title>[libze_intel_gpu.so.1.6.34666.3] (539,063 samples, 27.49%)</title><rect x="720.6" y="453" width="269.4" height="15.0" fill="rgb(212,34,8)" rx="2" ry="2" />
<text  x="723.63" y="463.5" >[libze_intel_gpu.so.1.6.34666.3]</text>
</g>
<g >
<title>alloc_new_heap (166,666 samples, 8.50%)</title><rect x="906.7" y="245" width="83.3" height="15.0" fill="rgb(251,213,51)" rx="2" ry="2" />
<text  x="909.72" y="255.5" >alloc_new..</text>
</g>
<g >
<title>[unknown] (166,666 samples, 8.50%)</title><rect x="906.7" y="133" width="83.3" height="15.0" fill="rgb(210,24,5)" rx="2" ry="2" />
<text  x="909.72" y="143.5" >[unknown]</text>
</g>
<g >
<title>std::basic_ostream&lt;char, std::char_traits&lt;char&gt; &gt;&amp; std::__ostream_insert&lt;char, std::char_traits&lt;char&gt; &gt; (166,666 samples, 8.50%)</title><rect x="906.7" y="437" width="83.3" height="15.0" fill="rgb(220,73,17)" rx="2" ry="2" />
<text  x="909.72" y="447.5" >std::basi..</text>
</g>
<g >
<title>open_verify (450,926 samples, 22.99%)</title><rect x="353.7" y="421" width="225.3" height="15.0" fill="rgb(226,97,23)" rx="2" ry="2" />
<text  x="356.69" y="431.5" >open_verify</text>
</g>
<g >
<title>_start (900,987 samples, 45.94%)</title><rect x="270.4" y="581" width="450.2" height="15.0" fill="rgb(245,185,44)" rx="2" ry="2" />
<text  x="273.41" y="591.5" >_start</text>
</g>
<g >
<title>__GI___libc_malloc (166,666 samples, 8.50%)</title><rect x="906.7" y="357" width="83.3" height="15.0" fill="rgb(219,68,16)" rx="2" ry="2" />
<text  x="909.72" y="367.5" >__GI___li..</text>
</g>
<g >
<title>[unknown] (450,926 samples, 22.99%)</title><rect x="353.7" y="341" width="225.3" height="15.0" fill="rgb(210,24,5)" rx="2" ry="2" />
<text  x="356.69" y="351.5" >[unknown]</text>
</g>
<g >
<title>[unknown] (166,666 samples, 8.50%)</title><rect x="187.1" y="405" width="83.3" height="15.0" fill="rgb(210,24,5)" rx="2" ry="2" />
<text  x="190.12" y="415.5" >[unknown]</text>
</g>
<g >
<title>arena_get2 (166,666 samples, 8.50%)</title><rect x="906.7" y="293" width="83.3" height="15.0" fill="rgb(207,9,2)" rx="2" ry="2" />
<text  x="909.72" y="303.5" >arena_get2</text>
</g>
<g >
<title>[unknown] (166,666 samples, 8.50%)</title><rect x="270.4" y="437" width="83.3" height="15.0" fill="rgb(210,24,5)" rx="2" ry="2" />
<text  x="273.41" y="447.5" >[unknown]</text>
</g>
<g >
<title>[unknown] (450,926 samples, 22.99%)</title><rect x="353.7" y="357" width="225.3" height="15.0" fill="rgb(210,24,5)" rx="2" ry="2" />
<text  x="356.69" y="367.5" >[unknown]</text>
</g>
<g >
<title>[unknown] (521,127 samples, 26.57%)</title><rect x="10.0" y="581" width="260.4" height="15.0" fill="rgb(210,24,5)" rx="2" ry="2" />
<text  x="13.00" y="591.5" >[unknown]</text>
</g>
<g >
<title>[unknown] (450,926 samples, 22.99%)</title><rect x="353.7" y="229" width="225.3" height="15.0" fill="rgb(210,24,5)" rx="2" ry="2" />
<text  x="356.69" y="239.5" >[unknown]</text>
</g>
</g>
</svg>
