<svg version="1.1" xmlns="http://www.w3.org/2000/svg" viewBox="0 0 731 231" width="731" height="231">
  <!-- svg-source:excalidraw -->
  
  <defs>
    <style class="style-fonts">
      @font-face {
        font-family: "Virgil";
        src: url("https://excalidraw.com/Virgil.woff2");
      }
      @font-face {
        font-family: "Cascadia";
        src: url("https://excalidraw.com/Cascadia.woff2");
      }
    </style>
    
  </defs>
  <rect x="0" y="0" width="731" height="231" fill="#ffffff"></rect><g stroke-linecap="round" transform="translate(180.5 10.5) rotate(0 42.5 28.5)"><path d="M0 0 C22.7 0, 45.4 0, 85 0 M0 0 C19.55 0, 39.09 0, 85 0 M85 0 C85 18.34, 85 36.68, 85 57 M85 0 C85 12.71, 85 25.41, 85 57 M85 57 C62.91 57, 40.81 57, 0 57 M85 57 C60.66 57, 36.33 57, 0 57 M0 57 C0 35.7, 0 14.4, 0 0 M0 57 C0 40.57, 0 24.14, 0 0" stroke="#000000" stroke-width="4" fill="none"></path></g><g transform="translate(194.5 26) rotate(0 25.5625 11.5)"><text x="0" y="0" font-family="Helvetica, Segoe UI Emoji" font-size="20px" fill="#000000" text-anchor="start" style="white-space: pre;" direction="ltr" dominant-baseline="text-before-edge">Prefix</text></g><g stroke-linecap="round" transform="translate(266 10) rotate(0 185 28.5)"><path d="M0 0 C137.42 0, 274.85 0, 370 0 M0 0 C139.03 0, 278.05 0, 370 0 M370 0 C370 19.83, 370 39.65, 370 57 M370 0 C370 22.58, 370 45.15, 370 57 M370 57 C234.95 57, 99.9 57, 0 57 M370 57 C280.68 57, 191.36 57, 0 57 M0 57 C0 37.99, 0 18.97, 0 0 M0 57 C0 39.79, 0 22.58, 0 0" stroke="#000000" stroke-width="4" fill="none"></path></g><g stroke-linecap="round" transform="translate(636 10) rotate(0 42.5 28.5)"><path d="M0 0 C23.77 0, 47.53 0, 85 0 M0 0 C20.67 0, 41.33 0, 85 0 M85 0 C85 17.86, 85 35.73, 85 57 M85 0 C85 19.2, 85 38.39, 85 57 M85 57 C51.15 57, 17.31 57, 0 57 M85 57 C51.64 57, 18.28 57, 0 57 M0 57 C0 38.83, 0 20.65, 0 0 M0 57 C0 40.54, 0 24.09, 0 0" stroke="#000000" stroke-width="4" fill="none"></path></g><g transform="translate(652 27) rotate(0 24.837499618530273 11.5)"><text x="0" y="0" font-family="Helvetica, Segoe UI Emoji" font-size="20px" fill="#000000" text-anchor="start" style="white-space: pre;" direction="ltr" dominant-baseline="text-before-edge">Suffix</text></g><g transform="translate(273 28) rotate(0 176.83749389648438 9.200000000000003)"><text x="0" y="0" font-family="Helvetica, Segoe UI Emoji" font-size="16px" fill="#000000" text-anchor="start" style="white-space: pre;" direction="ltr" dominant-baseline="text-before-edge">Commands added to UR command-buffer by user</text></g><g transform="translate(11 104) rotate(0 77.23750305175781 11.5)"><text x="0" y="0" font-family="Helvetica, Segoe UI Emoji" font-size="20px" fill="#000000" text-anchor="start" style="white-space: pre;" direction="ltr" dominant-baseline="text-before-edge">Prefix commands</text></g><g stroke-linecap="round" transform="translate(178 84) rotate(0 76.5 28.5)"><path d="M0 0 C39.73 0, 79.46 0, 153 0 M0 0 C56.88 0, 113.76 0, 153 0 M153 0 C153 17.81, 153 35.61, 153 57 M153 0 C153 12.55, 153 25.09, 153 57 M153 57 C105.8 57, 58.61 57, 0 57 M153 57 C102.14 57, 51.28 57, 0 57 M0 57 C0 44.33, 0 31.66, 0 0 M0 57 C0 34.68, 0 12.37, 0 0" stroke="#000000" stroke-width="4" fill="none"></path></g><g transform="translate(189.5 101) rotate(0 65.82499694824219 9.200000000000003)"><text x="0" y="0" font-family="Helvetica, Segoe UI Emoji" font-size="16px" fill="#000000" text-anchor="start" style="white-space: pre;" direction="ltr" dominant-baseline="text-before-edge">Reset SignalEvent</text></g><g stroke-linecap="round" transform="translate(331 84) rotate(0 109.5 28.5)"><path d="M0 0 C77.76 0, 155.53 0, 219 0 M0 0 C67.18 0, 134.37 0, 219 0 M219 0 C219 20.25, 219 40.51, 219 57 M219 0 C219 12.42, 219 24.83, 219 57 M219 57 C166.84 57, 114.69 57, 0 57 M219 57 C161.38 57, 103.76 57, 0 57 M0 57 C0 40.55, 0 24.09, 0 0 M0 57 C0 35.32, 0 13.65, 0 0" stroke="#000000" stroke-width="4" fill="none"></path></g><g transform="translate(337.5 102) rotate(0 100.63749694824219 9.200000000000003)"><text x="0" y="0" font-family="Helvetica, Segoe UI Emoji" font-size="16px" fill="#000000" text-anchor="start" style="white-space: pre;" direction="ltr" dominant-baseline="text-before-edge">Barrier waiting on WaitEvent</text></g><g transform="translate(10 183) rotate(0 76.51249694824219 11.5)"><text x="0" y="0" font-family="Helvetica, Segoe UI Emoji" font-size="20px" fill="#000000" text-anchor="start" style="white-space: pre;" direction="ltr" dominant-baseline="text-before-edge">Suffix commands</text></g><g stroke-linecap="round" transform="translate(178 164) rotate(0 163.5 28.5)"><path d="M0 0 C101.04 0, 202.09 0, 327 0 M0 0 C93.85 0, 187.7 0, 327 0 M327 0 C327 18.37, 327 36.73, 327 57 M327 0 C327 18.74, 327 37.49, 327 57 M327 57 C196.79 57, 66.58 57, 0 57 M327 57 C205.03 57, 83.07 57, 0 57 M0 57 C0 35.87, 0 14.74, 0 0 M0 57 C0 40.3, 0 23.61, 0 0" stroke="#000000" stroke-width="4" fill="none"></path></g><g transform="translate(189.5 182) rotate(0 154.6125030517578 9.199999999999989)"><text x="0" y="0" font-family="Helvetica, Segoe UI Emoji" font-size="16px" fill="#000000" text-anchor="start" style="white-space: pre;" direction="ltr" dominant-baseline="text-before-edge">Signal the UR command-buffer SignalEvent</text></g></svg>