<svg width="813" height="459" xmlns="http://www.w3.org/2000/svg" xmlns:xlink="http://www.w3.org/1999/xlink" overflow="hidden"><defs><clipPath id="clip0"><rect x="242" y="91" width="813" height="459"/></clipPath></defs><g clip-path="url(#clip0)" transform="translate(-242 -91)"><path d="M242 92 1054 92 1054 549 242 549Z" fill="#FFFFFF" fill-rule="evenodd"/><path d="M275.5 281.5 456.5 281.5 456.5 320.5 275.5 320.5Z" stroke="#5B9BD5" stroke-width="2.53753" stroke-miterlimit="8" fill="#4472C4" fill-rule="evenodd"/><text fill="#FFFFFF" font-family="Calibri,Calibri_MSFontService,sans-serif" font-weight="400" font-size="24" transform="translate(284.748 308)">Application</text><path d="M275.5 320.5 456.5 320.5 456.5 393.5 275.5 393.5Z" stroke="#5B9BD5" stroke-width="2.53753" stroke-miterlimit="8" fill="#4472C4" fill-rule="evenodd"/><text fill="#FFFFFF" font-family="Calibri,Calibri_MSFontService,sans-serif" font-weight="400" font-size="24" transform="translate(284.748 350)">a();<tspan x="0" y="29">b();</tspan></text><path d="M517.5 182.5 698.5 182.5 698.5 221.5 517.5 221.5Z" stroke="#5B9BD5" stroke-width="2.53753" stroke-miterlimit="8" fill="#4472C4" fill-rule="evenodd"/><text fill="#FFFFFF" font-family="Calibri,Calibri_MSFontService,sans-serif" font-weight="400" font-size="24" transform="translate(526.489 209)">libA</text><path d="M517.5 221.5 698.5 221.5 698.5 294.5 517.5 294.5Z" stroke="#5B9BD5" stroke-width="2.53753" stroke-miterlimit="8" fill="#4472C4" fill-rule="evenodd"/><text fill="#FFFFFF" font-family="Calibri,Calibri_MSFontService,sans-serif" font-weight="400" font-size="24" transform="translate(526.489 251)">void a() { b(); }<tspan x="0" y="29">…</tspan></text><path d="M521.5 365.5 702.5 365.5 702.5 405.5 521.5 405.5Z" stroke="#5B9BD5" stroke-width="2.53753" stroke-miterlimit="8" fill="#4472C4" fill-rule="evenodd"/><text fill="#FFFFFF" font-family="Calibri,Calibri_MSFontService,sans-serif" font-weight="400" font-size="24" transform="translate(530.93 393)">libB</text><path d="M521.5 405.5 702.5 405.5 702.5 477.5 521.5 477.5Z" stroke="#5B9BD5" stroke-width="2.53753" stroke-miterlimit="8" fill="#4472C4" fill-rule="evenodd"/><text fill="#FFFFFF" font-family="Calibri,Calibri_MSFontService,sans-serif" font-weight="400" font-size="24" transform="translate(530.93 434)">void b() { //2 }<tspan x="0" y="29">…</tspan></text><path d="M759.5 182.5 939.5 182.5 939.5 221.5 759.5 221.5Z" stroke="#5B9BD5" stroke-width="2.53753" stroke-miterlimit="8" fill="#4472C4" fill-rule="evenodd"/><text fill="#FFFFFF" font-family="Calibri,Calibri_MSFontService,sans-serif" font-weight="400" font-size="24" transform="translate(768.23 209)">libC</text><path d="M759.5 221.5 939.5 221.5 939.5 294.5 759.5 294.5Z" stroke="#5B9BD5" stroke-width="2.53753" stroke-miterlimit="8" fill="#4472C4" fill-rule="evenodd"/><text fill="#FFFFFF" font-family="Calibri,Calibri_MSFontService,sans-serif" font-weight="400" font-size="24" transform="translate(768.23 251)">void b() { // 1 }<tspan x="0" y="29">…</tspan></text><path d="M758 258 727.374 258 727.374 201.529 728 202.161 702.178 202.161 702.178 200.897 728.627 200.897 728.627 257.368 728 256.736 758 256.736ZM703.014 204.058 698 201.529 703.014 199Z" fill="#4472C4" fill-rule="evenodd"/><path d="M0.0353806 0.0274016 31.0415 0.0274016 31.0415 43.3813 30.4069 42.7469 56.5486 42.7469 56.5486 44.0159 29.7725 44.0159 29.7725 0.661942 30.4069 1.29638 0.0353806 1.29638ZM55.7025 40.8434 60.7785 43.3813 55.7025 45.9193Z" fill="#4472C4" fill-rule="evenodd" transform="matrix(-1 -3.89414e-07 -3.89414e-07 1 516.721 256.977)"/><path d="M521 386 486.636 386 486.636 300.55 487.27 301.187 460.227 301.187 460.227 299.913 487.904 299.913 487.904 385.363 487.27 384.725 521 384.725ZM461.072 303.1 456 300.55 461.072 298Z" fill="#4472C4" fill-rule="evenodd"/></g></svg>