<svg width="1280" height="720" xmlns="http://www.w3.org/2000/svg" xmlns:xlink="http://www.w3.org/1999/xlink" overflow="hidden"><defs><clipPath id="clip0"><rect x="0" y="0" width="1280" height="720"/></clipPath></defs><g clip-path="url(#clip0)"><rect x="0" y="0" width="1280" height="720" fill="#FFFFFF"/><text font-family="Calibri Light,Calibri Light_MSFontService,sans-serif" font-weight="300" font-size="59" transform="translate(354.64 124)">SYCL Graph Architecture</text><rect x="643.5" y="588.5" width="316" height="78" stroke="#2F5597" stroke-width="0.666667" stroke-miterlimit="8" fill="#2F528F"/><text fill="#FFFFFF" font-family="Calibri,Calibri_MSFontService,sans-serif" font-weight="400" font-size="21" transform="translate(728.156 609)">CPU, GPU, FPGA, <tspan font-size="21" x="-36.3734" y="26">hetero/hybrid/converged </tspan><tspan font-size="21" x="6.52667" y="51">architectures …</tspan></text><rect x="643.5" y="519.5" width="316" height="42" stroke="#2F5597" stroke-width="0.666667" stroke-miterlimit="8" fill="#2F528F"/><text fill="#FFFFFF" font-family="Calibri,Calibri_MSFontService,sans-serif" font-weight="400" font-size="21" transform="translate(757.097 547)">Level Zero</text><rect x="253.5" y="262.5" width="706" height="78" stroke="#2F5597" stroke-miterlimit="8" fill="none"/><text fill="#004A86" font-family="Calibri,Calibri_MSFontService,sans-serif" font-weight="400" font-size="21" transform="translate(491.809 308)">SYCL Graph Extensions API</text><path d="M809 493.5 809 512.992 808 512.992 808 493.5ZM812.5 511.659 808.5 519.659 804.5 511.659Z" fill="#4472C4"/><rect x="253.5" y="383.5" width="706" height="41" stroke="#2F5597" stroke-miterlimit="8" fill="none"/><text fill="#004A86" font-family="Calibri,Calibri_MSFontService,sans-serif" font-weight="400" font-size="21" transform="translate(547.024 411)">SYCL Runtime</text><rect x="253.5" y="178.5" width="706" height="41" stroke="#000000" stroke-miterlimit="8" fill="none"/><text fill="#525252" font-family="Calibri,Calibri_MSFontService,sans-serif" font-weight="400" font-size="21" transform="translate(557.162 206)">Application</text><path d="M0.5-3.41779e-05 0.502484 36.3381-0.497516 36.3382-0.5 3.41779e-05ZM4.00239 35.0046 0.00293963 43.0048-3.99761 35.0051Z" fill="#4472C4" transform="matrix(-1 0 0 1 606.503 219.5)"/><path d="M607 340.5 607.001 376.871 606.001 376.871 606 340.5ZM610.501 375.537 606.502 383.537 602.501 375.537Z" fill="#4472C4"/><path d="M442 493.5 442 512.992 441 512.992 441 493.5ZM445.5 511.659 441.5 519.659 437.5 511.659Z" fill="#4472C4"/><rect x="1024.5" y="38.5001" width="227" height="159" stroke="#003C71" stroke-width="1.33333" stroke-miterlimit="8" fill="none"/><text fill="#004A86" font-family="Calibri,Calibri_MSFontService,sans-serif" font-weight="400" font-size="13" transform="translate(1118.2 58)">Legend</text><path d="M1118.37 59.1202 1157.37 59.1202 1157.37 60.1202 1118.37 60.1202Z" fill="#004A86" fill-rule="evenodd"/><text fill="#004A86" font-family="Calibri,Calibri_MSFontService,sans-serif" font-weight="400" font-size="13" transform="translate(1038.44 182)">A        B</text><path d="M1051.5 177.167 1060.44 177.167 1060.44 177.833 1051.5 177.833ZM1059.1 173.5 1067.1 177.5 1059.1 181.5Z" fill="#4472C4"/><text fill="#004A86" font-family="Calibri,Calibri_MSFontService,sans-serif" font-weight="400" font-size="12" transform="translate(1085.25 181)">A uses / depends on B</text><rect x="1038.5" y="97.5001" width="35" height="14" stroke="#2F5597" stroke-miterlimit="8" fill="#FFFFFF"/><text fill="#004A86" font-family="Calibri,Calibri_MSFontService,sans-serif" font-weight="400" font-size="12" transform="translate(1085.25 108)">SYCL Runtime</text><rect x="1038.5" y="120.5" width="35" height="14" stroke="#2F5597" stroke-miterlimit="8" fill="#44546A"/><text fill="#004A86" font-family="Calibri,Calibri_MSFontService,sans-serif" font-weight="400" font-size="12" transform="translate(1085.25 131)">Implemented Backends</text><rect x="1038.5" y="72.5001" width="35" height="14" stroke="#000000" stroke-miterlimit="8" fill="#FFFFFF"/><text fill="#004A86" font-family="Calibri,Calibri_MSFontService,sans-serif" font-weight="400" font-size="12" transform="translate(1085.25 83)">Application layer</text><rect x="253.5" y="452.5" width="706" height="41" stroke="#2F5597" stroke-miterlimit="8" fill="none"/><text fill="#004A86" font-family="Calibri,Calibri_MSFontService,sans-serif" font-weight="400" font-size="21" transform="translate(402.941 480)">Unified Runtime + Command Buffer Extensions</text><rect x="253.5" y="519.5" width="376" height="42" stroke="#595959" stroke-width="0.666667" stroke-miterlimit="8" fill="#BFBFBF"/><text fill="#FFFFFF" font-family="Calibri,Calibri_MSFontService,sans-serif" font-weight="400" font-size="21" transform="translate(370.422 547)">CUDA (example)</text><path d="M607 424.5 607 446.594 606 446.594 606 424.5ZM610.5 445.261 606.5 453.261 602.5 445.261Z" fill="#4472C4"/><path d="M442 561.5 442 580.992 441 580.992 441 561.5ZM445.5 579.659 441.5 587.659 437.5 579.659Z" fill="#4472C4"/><rect x="252.5" y="587.5" width="376" height="78" stroke="#595959" stroke-width="0.666667" stroke-miterlimit="8" fill="#BFBFBF"/><text fill="#FFFFFF" font-family="Calibri,Calibri_MSFontService,sans-serif" font-weight="400" font-size="21" transform="translate(387.488 633)">NVIDIA GPU</text><path d="M809 561.5 809 580.992 808 580.992 808 561.5ZM812.5 579.659 808.5 587.659 804.5 579.659Z" fill="#4472C4"/><text fill="#004A86" font-family="Calibri,Calibri_MSFontService,sans-serif" font-weight="400" font-size="12" transform="translate(1087.15 157)">Future Backend support</text><rect x="1038.5" y="146.5" width="35" height="14" stroke="#595959" stroke-miterlimit="8" fill="#BFBFBF"/></g></svg>