<svg width="1280" height="720" xmlns="http://www.w3.org/2000/svg" xmlns:xlink="http://www.w3.org/1999/xlink" overflow="hidden"><defs><clipPath id="clip0"><rect x="0" y="0" width="1280" height="720"/></clipPath></defs><g clip-path="url(#clip0)"><rect x="0" y="0" width="1280" height="720" fill="#FFFFFF"/><rect x="220" y="20" width="752" height="683" stroke="#042433" stroke-width="2" stroke-miterlimit="8" fill="#7F7F7F"/><path d="M485 57.5C485 43.4167 534.696 32 596 32 657.304 32 707 43.4167 707 57.5 707 71.5833 657.304 83 596 83 534.696 83 485 71.5833 485 57.5Z" stroke="#042433" stroke-width="2" stroke-miterlimit="8" fill="#156082" fill-rule="evenodd"/><text fill="#FFFFFF" font-family="Aptos,Aptos_MSFontService,sans-serif" font-weight="400" font-size="16" transform="translate(529.17 53)">Extract</text><text fill="#FFFFFF" font-family="Aptos,Aptos_MSFontService,sans-serif" font-weight="400" font-size="16" transform="translate(580.17 53)">device</text><text fill="#FFFFFF" font-family="Aptos,Aptos_MSFontService,sans-serif" font-weight="400" font-size="16" transform="translate(629.17 53)">code</text><text fill="#FFFFFF" font-family="Aptos,Aptos_MSFontService,sans-serif" font-weight="400" font-size="16" transform="translate(556.17 72)">from</text><text fill="#FFFFFF" font-family="Aptos,Aptos_MSFontService,sans-serif" font-weight="400" font-size="16" transform="translate(592.17 72)">input</text><text fill="#FFFFFF" font-family="Aptos,Aptos_MSFontService,sans-serif" font-weight="400" font-size="16" transform="translate(628.17 72)">s</text><text font-family="Aptos,Aptos_MSFontService,sans-serif" font-weight="400" font-size="24" transform="translate(483.018 16)">c</text><text font-family="Aptos,Aptos_MSFontService,sans-serif" font-weight="400" font-size="24" transform="translate(496.018 16)">l</text><text font-family="Aptos,Aptos_MSFontService,sans-serif" font-weight="400" font-size="24" transform="translate(502.018 16)">ang</text><text font-family="Aptos,Aptos_MSFontService,sans-serif" font-weight="400" font-size="24" transform="translate(540.018 16)">-</text><text font-family="Aptos,Aptos_MSFontService,sans-serif" font-weight="400" font-size="24" transform="translate(548.018 16)">linker</text><text font-family="Aptos,Aptos_MSFontService,sans-serif" font-weight="400" font-size="24" transform="translate(604.018 16)">-</text><text font-family="Aptos,Aptos_MSFontService,sans-serif" font-weight="400" font-size="24" transform="translate(612.018 16)">wrapper</text><path d="M476 157C476 136.013 529.726 119 596 119 662.274 119 716 136.013 716 157 716 177.987 662.274 195 596 195 529.726 195 476 177.987 476 157Z" stroke="#042433" stroke-width="2" stroke-miterlimit="8" fill="#156082" fill-rule="evenodd"/><text fill="#FFFFFF" font-family="Aptos,Aptos_MSFontService,sans-serif" font-weight="400" font-size="15" transform="translate(528.753 145)">Process</text><text fill="#FFFFFF" font-family="Aptos,Aptos_MSFontService,sans-serif" font-weight="400" font-size="15" transform="translate(582.753 145)">symbols</text><text fill="#FFFFFF" font-family="Aptos,Aptos_MSFontService,sans-serif" font-weight="400" font-size="15" transform="translate(639.753 145)">and</text><text fill="#FFFFFF" font-family="Aptos,Aptos_MSFontService,sans-serif" font-weight="400" font-size="15" transform="translate(522.753 162)">add</text><text fill="#FFFFFF" font-family="Aptos,Aptos_MSFontService,sans-serif" font-weight="400" font-size="15" transform="translate(549.753 162)">device</text><text fill="#FFFFFF" font-family="Aptos,Aptos_MSFontService,sans-serif" font-weight="400" font-size="15" transform="translate(594.753 162)">code</text><text fill="#FFFFFF" font-family="Aptos,Aptos_MSFontService,sans-serif" font-weight="400" font-size="15" transform="translate(628.753 162)">to</text><text fill="#FFFFFF" font-family="Aptos,Aptos_MSFontService,sans-serif" font-weight="400" font-size="15" transform="translate(644.753 162)">LTO</text><text fill="#FFFFFF" font-family="Aptos,Aptos_MSFontService,sans-serif" font-weight="400" font-size="15" transform="translate(560.753 180)">framewor</text><text fill="#FFFFFF" font-family="Aptos,Aptos_MSFontService,sans-serif" font-weight="400" font-size="15" transform="translate(623.753 180)">k</text><rect x="409" y="213" width="374" height="273" stroke="#000000" stroke-width="2" stroke-miterlimit="8" fill="#83CBEB"/><text fill="#FFFFFF" font-family="Aptos,Aptos_MSFontService,sans-serif" font-weight="400" font-size="24" transform="translate(494.438 234)">T</text><text fill="#FFFFFF" font-family="Aptos,Aptos_MSFontService,sans-serif" font-weight="400" font-size="24" transform="translate(505.438 234)">hinLTO</text><text fill="#FFFFFF" font-family="Aptos,Aptos_MSFontService,sans-serif" font-weight="400" font-size="24" transform="translate(581.438 234)">framework</text><path d="M555 250.5C555 243.044 573.58 237 596.5 237 619.42 237 638 243.044 638 250.5 638 257.956 619.42 264 596.5 264 573.58 264 555 257.956 555 250.5Z" stroke="#042433" stroke-width="2" stroke-miterlimit="8" fill="#156082" fill-rule="evenodd"/><text fill="#FFFFFF" font-family="Aptos,Aptos_MSFontService,sans-serif" font-weight="400" font-size="6" transform="translate(587.586 246)">Import</text><text fill="#FFFFFF" font-family="Aptos,Aptos_MSFontService,sans-serif" font-weight="400" font-size="6" transform="translate(585.586 253)">function</text><text fill="#FFFFFF" font-family="Aptos,Aptos_MSFontService,sans-serif" font-weight="400" font-size="6" transform="translate(583.586 260)">definitions</text><path d="M559 289.5C559 283.701 575.565 279 596 279 616.435 279 633 283.701 633 289.5 633 295.299 616.435 300 596 300 575.565 300 559 295.299 559 289.5Z" stroke="#042433" stroke-width="2" stroke-miterlimit="8" fill="#156082" fill-rule="evenodd"/><text fill="#FFFFFF" font-family="Aptos,Aptos_MSFontService,sans-serif" font-weight="400" font-size="5" transform="translate(581.836 292)">Optimization</text><path d="M518 594C518 578.536 553.146 566 596.5 566 639.854 566 675 578.536 675 594 675 609.464 639.854 622 596.5 622 553.146 622 518 609.464 518 594Z" stroke="#042433" stroke-width="2" stroke-miterlimit="8" fill="#156082" fill-rule="evenodd"/><text fill="#FFFFFF" font-family="Aptos,Aptos_MSFontService,sans-serif" font-weight="400" font-size="16" transform="translate(565.336 599)">Bundling</text><path d="M534 670C534 654.536 561.982 642 596.5 642 631.018 642 659 654.536 659 670 659 685.464 631.018 698 596.5 698 561.982 698 534 685.464 534 670Z" stroke="#042433" stroke-width="2" stroke-miterlimit="8" fill="#156082" fill-rule="evenodd"/><text fill="#FFFFFF" font-family="Aptos,Aptos_MSFontService,sans-serif" font-weight="400" font-size="11" transform="translate(561.67 661)">Call host linker</text><text fill="#FFFFFF" font-family="Aptos,Aptos_MSFontService,sans-serif" font-weight="400" font-size="11" transform="translate(564.67 674)">with bundled</text><text fill="#FFFFFF" font-family="Aptos,Aptos_MSFontService,sans-serif" font-weight="400" font-size="11" transform="translate(572.67 686)">fat object</text><path d="M583 106.5 589.5 106.5 589.5 95 602.5 95 602.5 106.5 609 106.5 596 118Z" stroke="#042433" stroke-width="2" stroke-miterlimit="8" fill="#156082" fill-rule="evenodd"/><path d="M589 204 592.5 204 592.5 197 599.5 197 599.5 204 603 204 596 211Z" stroke="#042433" stroke-width="2" stroke-miterlimit="8" fill="#156082" fill-rule="evenodd"/><path d="M591 271.5 593.75 271.5 593.75 266 599.25 266 599.25 271.5 602 271.5 596.5 277Z" stroke="#042433" stroke-width="2" stroke-miterlimit="8" fill="#156082" fill-rule="evenodd"/><path d="M586 472.5 591.25 472.5 591.25 463 601.75 463 601.75 472.5 607 472.5 596.5 482Z" stroke="#042433" stroke-width="2" stroke-miterlimit="8" fill="#156082" fill-rule="evenodd"/><path d="M589 558 592.5 558 592.5 548 599.5 548 599.5 558 603 558 596 565Z" stroke="#042433" stroke-width="2" stroke-miterlimit="8" fill="#156082" fill-rule="evenodd"/><path d="M591 307.5 593.5 307.5 593.5 303 598.5 303 598.5 307.5 601 307.5 596 312Z" stroke="#042433" stroke-width="2" stroke-miterlimit="8" fill="#156082" fill-rule="evenodd"/><rect x="518" y="314" width="156" height="116" stroke="#000000" stroke-width="2" stroke-miterlimit="8" fill="#4E95D9"/><text fill="#FFFFFF" font-family="Aptos,Aptos_MSFontService,sans-serif" font-weight="700" font-size="8" transform="translate(543.606 322)">PreCodeGenModuleHook</text><path d="M568 405C568 400.582 580.536 397 596 397 611.464 397 624 400.582 624 405 624 409.418 611.464 413 596 413 580.536 413 568 409.418 568 405Z" stroke="#042433" stroke-width="2" stroke-miterlimit="8" fill="#156082" fill-rule="evenodd"/><text fill="#FFFFFF" font-family="Aptos,Aptos_MSFontService,sans-serif" font-weight="400" font-size="4" transform="translate(587.166 404)">Call SPIR</text><text fill="#FFFFFF" font-family="Aptos,Aptos_MSFontService,sans-serif" font-weight="400" font-size="4" transform="translate(602.166 404)">-</text><text fill="#FFFFFF" font-family="Aptos,Aptos_MSFontService,sans-serif" font-weight="400" font-size="4" transform="translate(603.166 404)">V</text><text fill="#FFFFFF" font-family="Aptos,Aptos_MSFontService,sans-serif" font-weight="400" font-size="4" transform="translate(588.166 408)">translator</text><path d="M591 386.08 593.5 386.08 593.5 382 598.5 382 598.5 386.08 601 386.08 596 393Z" stroke="#042433" stroke-width="2" stroke-miterlimit="8" fill="#156082" fill-rule="evenodd"/><path d="M569 371C569 366.582 581.088 363 596 363 610.912 363 623 366.582 623 371 623 375.418 610.912 379 596 379 581.088 379 569 375.418 569 371Z" stroke="#042433" stroke-width="2" stroke-miterlimit="8" fill="#156082" fill-rule="evenodd"/><text fill="#FFFFFF" font-family="Aptos,Aptos_MSFontService,sans-serif" font-weight="400" font-size="4" transform="translate(587.92 368)">Store fully</text><text fill="#FFFFFF" font-family="Aptos,Aptos_MSFontService,sans-serif" font-weight="400" font-size="4" transform="translate(590.92 372)">linked</text><text fill="#FFFFFF" font-family="Aptos,Aptos_MSFontService,sans-serif" font-weight="400" font-size="4" transform="translate(589.92 377)">module</text><path d="M551 446.5C551 439.044 571.371 433 596.5 433 621.629 433 642 439.044 642 446.5 642 453.956 621.629 460 596.5 460 571.371 460 551 453.956 551 446.5Z" stroke="#042433" stroke-width="2" stroke-miterlimit="8" fill="#156082" fill-rule="evenodd"/><text fill="#FFFFFF" font-family="Aptos,Aptos_MSFontService,sans-serif" font-weight="400" font-size="8" transform="translate(579.586 449)">Earl</text><text fill="#FFFFFF" font-family="Aptos,Aptos_MSFontService,sans-serif" font-weight="400" font-size="8" transform="translate(592.586 449)">y</text><text fill="#FFFFFF" font-family="Aptos,Aptos_MSFontService,sans-serif" font-weight="400" font-size="8" transform="translate(598.586 449)">exi</text><text fill="#FFFFFF" font-family="Aptos,Aptos_MSFontService,sans-serif" font-weight="400" font-size="8" transform="translate(608.586 449)">t</text><path d="M591 422.5 593.75 422.5 593.75 417 599.25 417 599.25 422.5 602 422.5 596.5 428Z" stroke="#042433" stroke-width="2" stroke-miterlimit="8" fill="#156082" fill-rule="evenodd"/><path d="M518 517C518 501.536 553.146 489 596.5 489 639.854 489 675 501.536 675 517 675 532.464 639.854 545 596.5 545 553.146 545 518 532.464 518 517Z" stroke="#042433" stroke-width="2" stroke-miterlimit="8" fill="#156082" fill-rule="evenodd"/><text fill="#FFFFFF" font-family="Aptos,Aptos_MSFontService,sans-serif" font-weight="400" font-size="12" transform="translate(571.333 507)">Compute</text><text fill="#FFFFFF" font-family="Aptos,Aptos_MSFontService,sans-serif" font-weight="400" font-size="12" transform="translate(550.333 521)">metadata for fully</text><text fill="#FFFFFF" font-family="Aptos,Aptos_MSFontService,sans-serif" font-weight="400" font-size="12" transform="translate(556.333 536)">linked modules</text><path d="M583 631.5 589.5 631.5 589.5 622 602.5 622 602.5 631.5 609 631.5 596 641Z" stroke="#042433" stroke-width="2" stroke-miterlimit="8" fill="#156082" fill-rule="evenodd"/><path d="M566 336.5C566 331.253 579.655 327 596.5 327 613.345 327 627 331.253 627 336.5 627 341.747 613.345 346 596.5 346 579.655 346 566 341.747 566 336.5Z" stroke="#042433" stroke-width="2" stroke-miterlimit="8" fill="#156082" fill-rule="evenodd"/><text fill="#FFFFFF" font-family="Aptos,Aptos_MSFontService,sans-serif" font-weight="400" font-size="4" transform="translate(587.17 331)">Run linked</text><text fill="#FFFFFF" font-family="Aptos,Aptos_MSFontService,sans-serif" font-weight="400" font-size="4" transform="translate(590.17 335)">module</text><text fill="#FFFFFF" font-family="Aptos,Aptos_MSFontService,sans-serif" font-weight="400" font-size="4" transform="translate(587.17 340)">finalization</text><text fill="#FFFFFF" font-family="Aptos,Aptos_MSFontService,sans-serif" font-weight="400" font-size="4" transform="translate(590.17 345)">passes</text><path d="M591 352.772 593.5 352.772 593.5 350 598.5 350 598.5 352.772 601 352.772 596 359Z" stroke="#042433" stroke-width="2" stroke-miterlimit="8" fill="#156082" fill-rule="evenodd"/></g></svg>