<svg width="1280" height="720" xmlns="http://www.w3.org/2000/svg" xmlns:xlink="http://www.w3.org/1999/xlink" overflow="hidden"><defs><clipPath id="clip0"><rect x="0" y="0" width="1280" height="720"/></clipPath></defs><g clip-path="url(#clip0)"><rect x="0" y="0" width="1280" height="720" fill="#FFFFFF"/><rect x="220" y="20" width="752" height="683" stroke="#042433" stroke-width="2" stroke-miterlimit="8" fill="#7F7F7F"/><path d="M498 59C498 44.0883 542.1 32 596.5 32 650.9 32 695 44.0883 695 59 695 73.9117 650.9 86 596.5 86 542.1 86 498 73.9117 498 59Z" stroke="#042433" stroke-width="2" stroke-miterlimit="8" fill="#156082" fill-rule="evenodd"/><text fill="#FFFFFF" font-family="Aptos,Aptos_MSFontService,sans-serif" font-weight="400" font-size="16" transform="translate(548.166 55)">Extract</text><text fill="#FFFFFF" font-family="Aptos,Aptos_MSFontService,sans-serif" font-weight="400" font-size="16" transform="translate(599.166 55)">device</text><text fill="#FFFFFF" font-family="Aptos,Aptos_MSFontService,sans-serif" font-weight="400" font-size="16" transform="translate(537.166 74)">code</text><text fill="#FFFFFF" font-family="Aptos,Aptos_MSFontService,sans-serif" font-weight="400" font-size="16" transform="translate(575.166 74)">from</text><text fill="#FFFFFF" font-family="Aptos,Aptos_MSFontService,sans-serif" font-weight="400" font-size="16" transform="translate(611.166 74)">input</text><text fill="#FFFFFF" font-family="Aptos,Aptos_MSFontService,sans-serif" font-weight="400" font-size="16" transform="translate(647.166 74)">s</text><text font-family="Aptos,Aptos_MSFontService,sans-serif" font-weight="400" font-size="24" transform="translate(483.018 16)">c</text><text font-family="Aptos,Aptos_MSFontService,sans-serif" font-weight="400" font-size="24" transform="translate(496.018 16)">l</text><text font-family="Aptos,Aptos_MSFontService,sans-serif" font-weight="400" font-size="24" transform="translate(502.018 16)">ang</text><text font-family="Aptos,Aptos_MSFontService,sans-serif" font-weight="400" font-size="24" transform="translate(540.018 16)">-</text><text font-family="Aptos,Aptos_MSFontService,sans-serif" font-weight="400" font-size="24" transform="translate(548.018 16)">linker</text><text font-family="Aptos,Aptos_MSFontService,sans-serif" font-weight="400" font-size="24" transform="translate(604.018 16)">-</text><text font-family="Aptos,Aptos_MSFontService,sans-serif" font-weight="400" font-size="24" transform="translate(612.018 16)">wrapper</text><path d="M489 155.5C489 135.342 537.129 119 596.5 119 655.871 119 704 135.342 704 155.5 704 175.658 655.871 192 596.5 192 537.129 192 489 175.658 489 155.5Z" stroke="#042433" stroke-width="2" stroke-miterlimit="8" fill="#156082" fill-rule="evenodd"/><text fill="#FFFFFF" font-family="Aptos,Aptos_MSFontService,sans-serif" font-weight="400" font-size="15" transform="translate(541.833 143)">Process</text><text fill="#FFFFFF" font-family="Aptos,Aptos_MSFontService,sans-serif" font-weight="400" font-size="15" transform="translate(595.833 143)">symbols</text><text fill="#FFFFFF" font-family="Aptos,Aptos_MSFontService,sans-serif" font-weight="400" font-size="15" transform="translate(530.833 160)">and</text><text fill="#FFFFFF" font-family="Aptos,Aptos_MSFontService,sans-serif" font-weight="400" font-size="15" transform="translate(557.833 160)">add</text><text fill="#FFFFFF" font-family="Aptos,Aptos_MSFontService,sans-serif" font-weight="400" font-size="15" transform="translate(584.833 160)">device</text><text fill="#FFFFFF" font-family="Aptos,Aptos_MSFontService,sans-serif" font-weight="400" font-size="15" transform="translate(629.833 160)">code</text><text fill="#FFFFFF" font-family="Aptos,Aptos_MSFontService,sans-serif" font-weight="400" font-size="15" transform="translate(538.833 178)">to</text><text fill="#FFFFFF" font-family="Aptos,Aptos_MSFontService,sans-serif" font-weight="400" font-size="15" transform="translate(554.833 178)">LTO</text><text fill="#FFFFFF" font-family="Aptos,Aptos_MSFontService,sans-serif" font-weight="400" font-size="15" transform="translate(582.833 178)">framewor</text><text fill="#FFFFFF" font-family="Aptos,Aptos_MSFontService,sans-serif" font-weight="400" font-size="15" transform="translate(645.833 178)">k</text><rect x="409" y="213" width="374" height="273" stroke="#000000" stroke-width="2" stroke-miterlimit="8" fill="#83CBEB"/><text fill="#FFFFFF" font-family="Aptos,Aptos_MSFontService,sans-serif" font-weight="400" font-size="24" transform="translate(494.438 234)">T</text><text fill="#FFFFFF" font-family="Aptos,Aptos_MSFontService,sans-serif" font-weight="400" font-size="24" transform="translate(505.438 234)">hinLTO</text><text fill="#FFFFFF" font-family="Aptos,Aptos_MSFontService,sans-serif" font-weight="400" font-size="24" transform="translate(581.438 234)">framework</text><path d="M555 250.5C555 243.044 573.58 237 596.5 237 619.42 237 638 243.044 638 250.5 638 257.956 619.42 264 596.5 264 573.58 264 555 257.956 555 250.5Z" stroke="#042433" stroke-width="2" stroke-miterlimit="8" fill="#156082" fill-rule="evenodd"/><text fill="#FFFFFF" font-family="Aptos,Aptos_MSFontService,sans-serif" font-weight="400" font-size="6" transform="translate(587.586 246)">Import</text><text fill="#FFFFFF" font-family="Aptos,Aptos_MSFontService,sans-serif" font-weight="400" font-size="6" transform="translate(585.586 253)">function</text><text fill="#FFFFFF" font-family="Aptos,Aptos_MSFontService,sans-serif" font-weight="400" font-size="6" transform="translate(583.586 260)">definitions</text><path d="M559 289.5C559 283.701 575.565 279 596 279 616.435 279 633 283.701 633 289.5 633 295.299 616.435 300 596 300 575.565 300 559 295.299 559 289.5Z" stroke="#042433" stroke-width="2" stroke-miterlimit="8" fill="#156082" fill-rule="evenodd"/><text fill="#FFFFFF" font-family="Aptos,Aptos_MSFontService,sans-serif" font-weight="400" font-size="5" transform="translate(581.836 292)">Optimization</text><path d="M518 593.5C518 579.417 553.146 568 596.5 568 639.854 568 675 579.417 675 593.5 675 607.583 639.854 619 596.5 619 553.146 619 518 607.583 518 593.5Z" stroke="#042433" stroke-width="2" stroke-miterlimit="8" fill="#156082" fill-rule="evenodd"/><text fill="#FFFFFF" font-family="Aptos,Aptos_MSFontService,sans-serif" font-weight="400" font-size="16" transform="translate(565.336 599)">Bundling</text><path d="M534 672C534 656.536 561.982 644 596.5 644 631.018 644 659 656.536 659 672 659 687.464 631.018 700 596.5 700 561.982 700 534 687.464 534 672Z" stroke="#042433" stroke-width="2" stroke-miterlimit="8" fill="#156082" fill-rule="evenodd"/><text fill="#FFFFFF" font-family="Aptos,Aptos_MSFontService,sans-serif" font-weight="400" font-size="11" transform="translate(561.67 663)">Call host linker</text><text fill="#FFFFFF" font-family="Aptos,Aptos_MSFontService,sans-serif" font-weight="400" font-size="11" transform="translate(564.67 676)">with bundled</text><text fill="#FFFFFF" font-family="Aptos,Aptos_MSFontService,sans-serif" font-weight="400" font-size="11" transform="translate(572.67 688)">fat object</text><path d="M583 102 589.5 102 589.5 91 602.5 91 602.5 102 609 102 596 113Z" stroke="#042433" stroke-width="2" stroke-miterlimit="8" fill="#156082" fill-rule="evenodd"/><path d="M589 204 592.5 204 592.5 194 599.5 194 599.5 204 603 204 596 211Z" stroke="#042433" stroke-width="2" stroke-miterlimit="8" fill="#156082" fill-rule="evenodd"/><path d="M591 271.5 593.75 271.5 593.75 266 599.25 266 599.25 271.5 602 271.5 596.5 277Z" stroke="#042433" stroke-width="2" stroke-miterlimit="8" fill="#156082" fill-rule="evenodd"/><path d="M586 473 591.25 473 591.25 463 601.75 463 601.75 473 607 473 596.5 483Z" stroke="#042433" stroke-width="2" stroke-miterlimit="8" fill="#156082" fill-rule="evenodd"/><path d="M589 558 592.5 558 592.5 548 599.5 548 599.5 558 603 558 596 565Z" stroke="#042433" stroke-width="2" stroke-miterlimit="8" fill="#156082" fill-rule="evenodd"/><path d="M591 307.5 593.5 307.5 593.5 303 598.5 303 598.5 307.5 601 307.5 596 312Z" stroke="#042433" stroke-width="2" stroke-miterlimit="8" fill="#156082" fill-rule="evenodd"/><rect x="518" y="314" width="156" height="116" stroke="#000000" stroke-width="2" stroke-miterlimit="8" fill="#4E95D9"/><text fill="#FFFFFF" font-family="Aptos,Aptos_MSFontService,sans-serif" font-weight="400" font-size="7" transform="translate(554 321)">PreCodeGenPassesHook</text><path d="M549 391C549 381.059 570.043 373 596 373 621.957 373 643 381.059 643 391 643 400.941 621.957 409 596 409 570.043 409 549 400.941 549 391Z" stroke="#042433" stroke-width="2" stroke-miterlimit="8" fill="#156082" fill-rule="evenodd"/><text fill="#FFFFFF" font-family="Aptos,Aptos_MSFontService,sans-serif" font-weight="400" font-size="9" transform="translate(576.666 383)">Store fully</text><text fill="#FFFFFF" font-family="Aptos,Aptos_MSFontService,sans-serif" font-weight="400" font-size="9" transform="translate(584.666 394)">linked</text><text fill="#FFFFFF" font-family="Aptos,Aptos_MSFontService,sans-serif" font-weight="400" font-size="9" transform="translate(580.666 405)">module</text><path d="M551 446.5C551 439.044 571.371 433 596.5 433 621.629 433 642 439.044 642 446.5 642 453.956 621.629 460 596.5 460 571.371 460 551 453.956 551 446.5Z" stroke="#042433" stroke-width="2" stroke-miterlimit="8" fill="#156082" fill-rule="evenodd"/><text fill="#FFFFFF" font-family="Aptos,Aptos_MSFontService,sans-serif" font-weight="400" font-size="8" transform="translate(580.583 449)">Codegen</text><path d="M518 517C518 501.536 553.146 489 596.5 489 639.854 489 675 501.536 675 517 675 532.464 639.854 545 596.5 545 553.146 545 518 532.464 518 517Z" stroke="#042433" stroke-width="2" stroke-miterlimit="8" fill="#156082" fill-rule="evenodd"/><text fill="#FFFFFF" font-family="Aptos,Aptos_MSFontService,sans-serif" font-weight="400" font-size="12" transform="translate(571.333 507)">Compute</text><text fill="#FFFFFF" font-family="Aptos,Aptos_MSFontService,sans-serif" font-weight="400" font-size="12" transform="translate(550.333 521)">metadata for fully</text><text fill="#FFFFFF" font-family="Aptos,Aptos_MSFontService,sans-serif" font-weight="400" font-size="12" transform="translate(556.333 536)">linked modules</text><path d="M587 633 591.5 633 591.5 625 600.5 625 600.5 633 605 633 596 641Z" stroke="#042433" stroke-width="2" stroke-miterlimit="8" fill="#156082" fill-rule="evenodd"/><path d="M561 338.5C561 330.492 576.67 324 596 324 615.33 324 631 330.492 631 338.5 631 346.508 615.33 353 596 353 576.67 353 561 346.508 561 338.5Z" stroke="#042433" stroke-width="2" stroke-miterlimit="8" fill="#156082" fill-rule="evenodd"/><text fill="#FFFFFF" font-family="Aptos,Aptos_MSFontService,sans-serif" font-weight="400" font-size="5" transform="translate(584 331)">Run linked</text><text fill="#FFFFFF" font-family="Aptos,Aptos_MSFontService,sans-serif" font-weight="400" font-size="5" transform="translate(587 337)">module</text><text fill="#FFFFFF" font-family="Aptos,Aptos_MSFontService,sans-serif" font-weight="400" font-size="5" transform="translate(583 344)">finalization</text><text fill="#FFFFFF" font-family="Aptos,Aptos_MSFontService,sans-serif" font-weight="400" font-size="5" transform="translate(588 350)">passes</text><path d="M590 362.003 593.25 362.003 593.25 356 599.75 356 599.75 362.003 603 362.003 596.5 371Z" stroke="#042433" stroke-width="2" stroke-miterlimit="8" fill="#156082" fill-rule="evenodd"/><path d="M591 421.08 593.5 421.08 593.5 412 598.5 412 598.5 421.08 601 421.08 596 428Z" stroke="#042433" stroke-width="2" stroke-miterlimit="8" fill="#156082" fill-rule="evenodd"/></g></svg>