<svg width="1280" height="720" xmlns="http://www.w3.org/2000/svg" xmlns:xlink="http://www.w3.org/1999/xlink" overflow="hidden"><g><rect x="0" y="0" width="1280" height="720" fill="#FFFFFF"/><rect x="221" y="57" width="752" height="640" stroke="#042433" stroke-width="2" stroke-miterlimit="8" fill="#7F7F7F"/><path d="M478 98.5C478 81.6553 531.502 68 597.5 68 663.498 68 717 81.6553 717 98.5 717 115.345 663.498 129 597.5 129 531.502 129 478 115.345 478 98.5Z" stroke="#042433" stroke-width="2" stroke-miterlimit="8" fill="#156082" fill-rule="evenodd"/><text fill="#FFFFFF" font-family="Aptos,Aptos_MSFontService,sans-serif" font-weight="400" font-size="16" transform="translate(530.336 95)">Extract device code</text><text fill="#FFFFFF" font-family="Aptos,Aptos_MSFontService,sans-serif" font-weight="400" font-size="16" transform="translate(557.336 114)">from inputs</text><text font-family="Aptos,Aptos_MSFontService,sans-serif" font-weight="400" font-size="24" transform="translate(484.018 53)">clang</text><text font-family="Aptos,Aptos_MSFontService,sans-serif" font-weight="400" font-size="24" transform="translate(541.018 53)">-</text><text font-family="Aptos,Aptos_MSFontService,sans-serif" font-weight="400" font-size="24" transform="translate(549.018 53)">linker</text><text font-family="Aptos,Aptos_MSFontService,sans-serif" font-weight="400" font-size="24" transform="translate(605.018 53)">-</text><text font-family="Aptos,Aptos_MSFontService,sans-serif" font-weight="400" font-size="24" transform="translate(613.018 53)">wrapper</text><path d="M468 201C468 175.595 525.755 155 597 155 668.245 155 726 175.595 726 201 726 226.405 668.245 247 597 247 525.755 247 468 226.405 468 201Z" stroke="#042433" stroke-width="2" stroke-miterlimit="8" fill="#156082" fill-rule="evenodd"/><text fill="#FFFFFF" font-family="Aptos,Aptos_MSFontService,sans-serif" font-weight="400" font-size="16" transform="translate(523.416 187)">Process symbols and</text><text fill="#FFFFFF" font-family="Aptos,Aptos_MSFontService,sans-serif" font-weight="400" font-size="16" transform="translate(516.416 206)">add device code to LTO</text><text fill="#FFFFFF" font-family="Aptos,Aptos_MSFontService,sans-serif" font-weight="400" font-size="16" transform="translate(559.416 225)">framework</text><rect x="428" y="275" width="339" height="243" stroke="#000000" stroke-width="2" stroke-miterlimit="8" fill="#83CBEB"/><text fill="#FFFFFF" font-family="Aptos,Aptos_MSFontService,sans-serif" font-weight="400" font-size="24" transform="translate(495.438 297)">T</text><text fill="#FFFFFF" font-family="Aptos,Aptos_MSFontService,sans-serif" font-weight="400" font-size="24" transform="translate(506.438 297)">hinLTO</text><text fill="#FFFFFF" font-family="Aptos,Aptos_MSFontService,sans-serif" font-weight="400" font-size="24" transform="translate(582.438 297)">framework</text><path d="M502 327C502 312.641 544.757 301 597.5 301 650.243 301 693 312.641 693 327 693 341.359 650.243 353 597.5 353 544.757 353 502 341.359 502 327Z" stroke="#042433" stroke-width="2" stroke-miterlimit="8" fill="#156082" fill-rule="evenodd"/><text fill="#FFFFFF" font-family="Aptos,Aptos_MSFontService,sans-serif" font-weight="400" font-size="16" transform="translate(543.25 323)">Import function</text><text fill="#FFFFFF" font-family="Aptos,Aptos_MSFontService,sans-serif" font-weight="400" font-size="16" transform="translate(560.25 342)">definitions</text><path d="M502 412C502 397.641 544.757 386 597.5 386 650.243 386 693 397.641 693 412 693 426.359 650.243 438 597.5 438 544.757 438 502 426.359 502 412Z" stroke="#042433" stroke-width="2" stroke-miterlimit="8" fill="#156082" fill-rule="evenodd"/><text fill="#FFFFFF" font-family="Aptos,Aptos_MSFontService,sans-serif" font-weight="400" font-size="16" transform="translate(551.5 417)">Optimization</text><path d="M502 488C502 473.641 544.757 462 597.5 462 650.243 462 693 473.641 693 488 693 502.359 650.243 514 597.5 514 544.757 514 502 502.359 502 488Z" stroke="#042433" stroke-width="2" stroke-miterlimit="8" fill="#156082" fill-rule="evenodd"/><text fill="#FFFFFF" font-family="Aptos,Aptos_MSFontService,sans-serif" font-weight="400" font-size="16" transform="translate(566.25 493)">Codegen</text><path d="M499 564.5C499 551.521 542.876 541 597 541 651.124 541 695 551.521 695 564.5 695 577.479 651.124 588 597 588 542.876 588 499 577.479 499 564.5Z" stroke="#042433" stroke-width="2" stroke-miterlimit="8" fill="#156082" fill-rule="evenodd"/><text fill="#FFFFFF" font-family="Aptos,Aptos_MSFontService,sans-serif" font-weight="400" font-size="16" transform="translate(566.416 570)">Bundling</text><path d="M488 646C488 627.222 536.801 612 597 612 657.199 612 706 627.222 706 646 706 664.778 657.199 680 597 680 536.801 680 488 664.778 488 646Z" stroke="#042433" stroke-width="2" stroke-miterlimit="8" fill="#156082" fill-rule="evenodd"/><text fill="#FFFFFF" font-family="Aptos,Aptos_MSFontService,sans-serif" font-weight="400" font-size="16" transform="translate(545.836 632)">Call host linker</text><text fill="#FFFFFF" font-family="Aptos,Aptos_MSFontService,sans-serif" font-weight="400" font-size="16" transform="translate(540.836 651)">with bundled fat</text><text fill="#FFFFFF" font-family="Aptos,Aptos_MSFontService,sans-serif" font-weight="400" font-size="16" transform="translate(575.836 670)">object</text><path d="M584 143 590.5 143 590.5 132 603.5 132 603.5 143 610 143 597 154Z" stroke="#042433" stroke-width="2" stroke-miterlimit="8" fill="#156082" fill-rule="evenodd"/><path d="M584 260.5 590.5 260.5 590.5 252 603.5 252 603.5 260.5 610 260.5 597 269Z" stroke="#042433" stroke-width="2" stroke-miterlimit="8" fill="#156082" fill-rule="evenodd"/><path d="M584 370.5 590.5 370.5 590.5 359 603.5 359 603.5 370.5 610 370.5 597 382Z" stroke="#042433" stroke-width="2" stroke-miterlimit="8" fill="#156082" fill-rule="evenodd"/><path d="M584 529.5 590.5 529.5 590.5 519 603.5 519 603.5 529.5 610 529.5 597 540Z" stroke="#042433" stroke-width="2" stroke-miterlimit="8" fill="#156082" fill-rule="evenodd"/><path d="M584 451 590.5 451 590.5 443 603.5 443 603.5 451 610 451 597 459Z" stroke="#042433" stroke-width="2" stroke-miterlimit="8" fill="#156082" fill-rule="evenodd"/><path d="M584 599.5 590.5 599.5 590.5 590 603.5 590 603.5 599.5 610 599.5 597 609Z" stroke="#042433" stroke-width="2" stroke-miterlimit="8" fill="#156082" fill-rule="evenodd"/></g></svg>