<svg width="2729" height="2476" xmlns="http://www.w3.org/2000/svg" xmlns:xlink="http://www.w3.org/1999/xlink" xml:space="preserve" overflow="hidden"><g transform="translate(-1274 1)"><path d="M1304.23 320.453 2112.23 320.453 2112.23 2470.45 1304.23 2470.45Z" stroke="#D1D1D1" stroke-width="9.46765" stroke-miterlimit="8" fill="#FFFFFF" fill-rule="evenodd"/><path d="M2292.24 2323.46 2035.23 1180.46 2035.23 1180.46 2292.24 37.4606Z" stroke="#042433" stroke-width="3.156" stroke-miterlimit="8" stroke-dasharray="12.624 9.46801" fill="#D1D1D1" fill-rule="evenodd"/><path d="M2291.73-0.0393436 3100.73-0.0393436 3100.73 2360.96 2291.73 2360.96Z" fill="#78206E" fill-rule="evenodd"/><path d="M3212.21 884.488 2927.21 521.488 2927.21 521.488 3212.21 158.487Z" stroke="#042433" stroke-width="3.156" stroke-miterlimit="8" stroke-dasharray="12.624 9.46801" fill="#D1D1D1" fill-rule="evenodd"/><path d="M1340.73 351.961 2076.73 351.961 2076.73 674.961 1340.73 674.961Z" fill="#E97132" fill-rule="evenodd"/><text fill="#FFFFFF" font-family="Aptos,Aptos_MSFontService,sans-serif" font-weight="400" font-size="110" transform="matrix(1 0 0 1 1525.2 883)">Header</text><path d="M1338.73 1013.96 2074.73 1013.96 2074.73 1336.96 1338.73 1336.96Z" fill="#78206E" fill-rule="evenodd"/><text fill="#FFFFFF" font-family="Aptos,Aptos_MSFontService,sans-serif" font-weight="400" font-size="110" transform="matrix(1 0 0 1 1499.21 1138)">Abstract </text><text fill="#FFFFFF" font-family="Aptos,Aptos_MSFontService,sans-serif" font-weight="400" font-size="110" transform="matrix(1 0 0 1 1477.04 1275)">module 1</text><path d="M1338.73 1343.96 2074.73 1343.96 2074.73 1665.96 1338.73 1665.96Z" fill="#78206E" fill-rule="evenodd"/><text fill="#FFFFFF" font-family="Aptos,Aptos_MSFontService,sans-serif" font-weight="400" font-size="110" transform="matrix(1 0 0 1 1499.21 1468)">Abstract </text><text fill="#FFFFFF" font-family="Aptos,Aptos_MSFontService,sans-serif" font-weight="400" font-size="110" transform="matrix(1 0 0 1 1477.04 1604)">module 2</text><path d="M1338.73 2105.96 2074.73 2105.96 2074.73 2427.96 1338.73 2427.96Z" fill="#78206E" fill-rule="evenodd"/><text fill="#FFFFFF" font-family="Aptos,Aptos_MSFontService,sans-serif" font-weight="400" font-size="110" transform="matrix(1 0 0 1 1499.2 2230)">Abstract </text><text fill="#FFFFFF" font-family="Aptos,Aptos_MSFontService,sans-serif" font-weight="400" font-size="110" transform="matrix(1 0 0 1 1467.17 2366)">module N </text><path d="M1681.23 1747.46C1681.23 1731.44 1694.21 1718.46 1710.23 1718.46 1726.25 1718.46 1739.23 1731.44 1739.23 1747.46 1739.23 1763.48 1726.25 1776.46 1710.23 1776.46 1694.21 1776.46 1681.23 1763.48 1681.23 1747.46Z" stroke="#000000" stroke-width="9.46765" stroke-miterlimit="8" fill-rule="evenodd"/><path d="M1678.23 1886.96C1678.23 1870.67 1691.21 1857.46 1707.23 1857.46 1723.25 1857.46 1736.23 1870.67 1736.23 1886.96 1736.23 1903.25 1723.25 1916.46 1707.23 1916.46 1691.21 1916.46 1678.23 1903.25 1678.23 1886.96Z" stroke="#000000" stroke-width="9.46765" stroke-miterlimit="8" fill-rule="evenodd"/><path d="M1678.23 2018.46C1678.23 2002.44 1691.21 1989.46 1707.23 1989.46 1723.25 1989.46 1736.23 2002.44 1736.23 2018.46 1736.23 2034.48 1723.25 2047.46 1707.23 2047.46 1691.21 2047.46 1678.23 2034.48 1678.23 2018.46Z" stroke="#000000" stroke-width="9.46765" stroke-miterlimit="8" fill-rule="evenodd"/><path d="M2323.73 36.9607 3059.73 36.9607 3059.73 359.961 2323.73 359.961Z" fill="#47D45A" fill-rule="evenodd"/><text fill="#FFFFFF" font-family="Aptos,Aptos_MSFontService,sans-serif" font-weight="400" font-size="110" transform="matrix(1 0 0 1 2457.71 229)">Metadata</text><path d="M2323.73 359.961 3059.73 359.961 3059.73 681.961 2323.73 681.961Z" fill="#00B0F0" fill-rule="evenodd"/><text fill="#FFFFFF" font-family="Aptos,Aptos_MSFontService,sans-serif" font-weight="400" font-size="110" transform="matrix(1 0 0 1 2401.89 553)">IR module 1</text><path d="M2323.73 1017.96 3059.73 1017.96 3059.73 1341.96 2323.73 1341.96Z" fill="#00B0F0" fill-rule="evenodd"/><text fill="#FFFFFF" font-family="Aptos,Aptos_MSFontService,sans-serif" font-weight="400" font-size="110" transform="matrix(1 0 0 1 2387.28 1211)">IR module M </text><path d="M2665.24 747.46C2665.24 730.892 2678.45 717.46 2694.74 717.46 2711.02 717.46 2724.24 730.892 2724.24 747.46 2724.24 764.029 2711.02 777.461 2694.74 777.461 2678.45 777.461 2665.24 764.029 2665.24 747.46Z" stroke="#000000" stroke-width="9.46765" stroke-miterlimit="8" fill-rule="evenodd"/><path d="M2668.23 841.461C2668.23 825.444 2681.21 812.461 2697.23 812.461 2713.25 812.461 2726.23 825.444 2726.23 841.461 2726.23 857.477 2713.25 870.46 2697.23 870.46 2681.21 870.46 2668.23 857.477 2668.23 841.461Z" stroke="#000000" stroke-width="9.46765" stroke-miterlimit="8" fill-rule="evenodd"/><path d="M2668.23 938.461C2668.23 922.444 2681.21 909.461 2697.23 909.461 2713.25 909.461 2726.23 922.444 2726.23 938.461 2726.23 954.477 2713.25 967.461 2697.23 967.461 2681.21 967.461 2668.23 954.477 2668.23 938.461Z" stroke="#000000" stroke-width="9.46765" stroke-miterlimit="8" fill-rule="evenodd"/><path d="M3211.21 1865.49 2926.21 1502.49 2926.21 1502.49 3211.21 1139.49Z" stroke="#042433" stroke-width="3.156" stroke-miterlimit="8" stroke-dasharray="12.624 9.46801" fill="#D1D1D1" fill-rule="evenodd"/><path d="M2323.73 1341.96 3059.73 1341.96 3059.73 1664.96 2323.73 1664.96Z" fill="#0070C0" fill-rule="evenodd"/><text fill="#FFFFFF" font-family="Aptos,Aptos_MSFontService,sans-serif" font-weight="400" font-size="110" transform="matrix(1 0 0 1 2369.46 1483)">Native device </text><text fill="#FFFFFF" font-family="Aptos,Aptos_MSFontService,sans-serif" font-weight="400" font-size="110" transform="matrix(1 0 0 1 2372.39 1604)">code image 1</text><path d="M2323.73 2000.96 3059.73 2000.96 3059.73 2322.96 2323.73 2322.96Z" fill="#0070C0" fill-rule="evenodd"/><text fill="#FFFFFF" font-family="Aptos,Aptos_MSFontService,sans-serif" font-weight="400" font-size="110" transform="matrix(1 0 0 1 2369.46 2142)">Native device </text><text fill="#FFFFFF" font-family="Aptos,Aptos_MSFontService,sans-serif" font-weight="400" font-size="110" transform="matrix(1 0 0 1 2362.13 2263)">code image O</text><path d="M2665.23 1729.46C2665.23 1713.44 2678.21 1700.46 2694.23 1700.46 2710.25 1700.46 2723.23 1713.44 2723.23 1729.46 2723.23 1745.48 2710.25 1758.46 2694.23 1758.46 2678.21 1758.46 2665.23 1745.48 2665.23 1729.46Z" stroke="#000000" stroke-width="9.46765" stroke-miterlimit="8" fill-rule="evenodd"/><path d="M2666.23 1824.46C2666.23 1808.44 2679.21 1795.46 2695.23 1795.46 2711.25 1795.46 2724.23 1808.44 2724.23 1824.46 2724.23 1840.48 2711.25 1853.46 2695.23 1853.46 2679.21 1853.46 2666.23 1840.48 2666.23 1824.46Z" stroke="#000000" stroke-width="9.46765" stroke-miterlimit="8" fill-rule="evenodd"/><path d="M2666.23 1919.96C2666.23 1903.67 2679.21 1890.46 2695.23 1890.46 2711.25 1890.46 2724.23 1903.67 2724.23 1919.96 2724.23 1936.25 2711.25 1949.46 2695.23 1949.46 2679.21 1949.46 2666.23 1936.25 2666.23 1919.96Z" stroke="#000000" stroke-width="9.46765" stroke-miterlimit="8" fill-rule="evenodd"/><text font-family="Aptos,Aptos_MSFontService,sans-serif" font-weight="400" font-size="110" transform="matrix(1 0 0 1 1340.14 276)">SYCLBIN </text><text font-family="Aptos,Aptos_MSFontService,sans-serif" font-weight="400" font-size="110" transform="matrix(1 0 0 1 1784.22 276)">image</text><path d="M1335.73 681.961 2071.73 681.961 2071.73 1004.96 1335.73 1004.96Z" fill="#FFC000" fill-rule="evenodd"/><text fill="#FFFFFF" font-family="Aptos,Aptos_MSFontService,sans-serif" font-weight="400" font-size="110" transform="matrix(1 0 0 1 1531.04 547)">Header</text><text fill="#FFFFFF" font-family="Aptos,Aptos_MSFontService,sans-serif" font-weight="400" font-size="110" transform="matrix(1 0 0 1 1483.57 874)">Metadata</text><path d="M3211.71 157.912 4002.71 157.912 4002.71 883.912 3211.71 883.912Z" fill="#00B0F0" fill-rule="evenodd"/><path d="M3237.73 530.961 3973.73 530.961 3973.73 852.961 3237.73 852.961Z" fill="#83CBEB" fill-rule="evenodd"/><path d="M3236.73 188.961 3972.73 188.961 3972.73 510.961 3236.73 510.961Z" fill="#96DCF8" fill-rule="evenodd"/><text fill="#FFFFFF" font-family="Aptos,Aptos_MSFontService,sans-serif" font-weight="400" font-size="110" transform="matrix(1 0 0 1 3365.81 725)">Raw bytes</text><text fill="#FFFFFF" font-family="Aptos,Aptos_MSFontService,sans-serif" font-weight="400" font-size="110" transform="matrix(1 0 0 1 3377.97 379)">Metadata</text><path d="M3211.71 1141.91 4002.71 1141.91 4002.71 1868.91 3211.71 1868.91Z" fill="#0070C0" fill-rule="evenodd"/><path d="M3236.73 1518.96 3972.73 1518.96 3972.73 1841.96 3236.73 1841.96Z" fill="#104862" fill-rule="evenodd"/><path d="M3236.73 1176.96 3972.73 1176.96 3972.73 1499.96 3236.73 1499.96Z" fill="#0B3041" fill-rule="evenodd"/><text fill="#FFFFFF" font-family="Aptos,Aptos_MSFontService,sans-serif" font-weight="400" font-size="110" transform="matrix(1 0 0 1 3381.66 1372)">Metadata</text><text fill="#FFFFFF" font-family="Aptos,Aptos_MSFontService,sans-serif" font-weight="400" font-size="110" transform="matrix(1 0 0 1 3365.52 1714)">Raw bytes</text></g></svg>