<svg width="1308" height="1796" xmlns="http://www.w3.org/2000/svg" xmlns:xlink="http://www.w3.org/1999/xlink" xml:space="preserve" overflow="hidden"><defs><clipPath id="clip0"><rect x="737" y="109" width="1308" height="1796"/></clipPath></defs><g clip-path="url(#clip0)" transform="translate(-737 -109)"><rect x="740.5" y="581.5" width="587" height="1320" stroke="#D1D1D1" stroke-width="6.875" stroke-miterlimit="8" fill="#FFFFFF"/><path d="M1458 1795 1271 965.5 1271 965.5 1458 136Z" stroke="#042433" stroke-width="2.29167" stroke-miterlimit="8" stroke-dasharray="9.16667 6.875" fill="#D1D1D1" fill-rule="evenodd"/><rect x="1458" y="109" width="587" height="1713" fill="#78206E"/><rect x="766" y="611" width="534" height="234" fill="#E97132"/><text fill="#FFFFFF" font-family="Aptos,Aptos_MSFontService,sans-serif" font-weight="400" font-size="83" transform="matrix(1 0 0 1 901.329 754)">Header</text><rect x="766" y="845" width="534" height="234" fill="#78206E"/><text fill="#FFFFFF" font-family="Aptos,Aptos_MSFontService,sans-serif" font-weight="400" font-size="83" transform="matrix(1 0 0 1 882.468 939)">Abstract </text><text fill="#FFFFFF" font-family="Aptos,Aptos_MSFontService,sans-serif" font-weight="400" font-size="83" transform="matrix(1 0 0 1 866.381 1038)">module 1</text><rect x="766" y="1084" width="534" height="234" fill="#78206E"/><text fill="#FFFFFF" font-family="Aptos,Aptos_MSFontService,sans-serif" font-weight="400" font-size="83" transform="matrix(1 0 0 1 882.468 1178)">Abstract </text><text fill="#FFFFFF" font-family="Aptos,Aptos_MSFontService,sans-serif" font-weight="400" font-size="83" transform="matrix(1 0 0 1 866.381 1277)">module 2</text><rect x="766" y="1637" width="534" height="234" fill="#78206E"/><text fill="#FFFFFF" font-family="Aptos,Aptos_MSFontService,sans-serif" font-weight="400" font-size="83" transform="matrix(1 0 0 1 882.457 1731)">Abstract </text><text fill="#FFFFFF" font-family="Aptos,Aptos_MSFontService,sans-serif" font-weight="400" font-size="83" transform="matrix(1 0 0 1 859.22 1830)">module N </text><path d="M1014.5 1376.5C1014.5 1364.9 1023.9 1355.5 1035.5 1355.5 1047.1 1355.5 1056.5 1364.9 1056.5 1376.5 1056.5 1388.1 1047.1 1397.5 1035.5 1397.5 1023.9 1397.5 1014.5 1388.1 1014.5 1376.5Z" stroke="#000000" stroke-width="6.875" stroke-miterlimit="8" fill-rule="evenodd"/><path d="M1012.5 1478C1012.5 1466.13 1021.9 1456.5 1033.5 1456.5 1045.1 1456.5 1054.5 1466.13 1054.5 1478 1054.5 1489.87 1045.1 1499.5 1033.5 1499.5 1021.9 1499.5 1012.5 1489.87 1012.5 1478Z" stroke="#000000" stroke-width="6.875" stroke-miterlimit="8" fill-rule="evenodd"/><path d="M1012.5 1573.5C1012.5 1561.9 1021.9 1552.5 1033.5 1552.5 1045.1 1552.5 1054.5 1561.9 1054.5 1573.5 1054.5 1585.1 1045.1 1594.5 1033.5 1594.5 1021.9 1594.5 1012.5 1585.1 1012.5 1573.5Z" stroke="#000000" stroke-width="6.875" stroke-miterlimit="8" fill-rule="evenodd"/><rect x="1481" y="136" width="534" height="234" fill="#47D45A"/><text fill="#FFFFFF" font-family="Aptos,Aptos_MSFontService,sans-serif" font-weight="400" font-size="83" transform="matrix(1 0 0 1 1578.01 279)">Metadata</text><rect x="1481" y="370" width="534" height="234" fill="#00B0F0"/><text fill="#FFFFFF" font-family="Aptos,Aptos_MSFontService,sans-serif" font-weight="400" font-size="83" transform="matrix(1 0 0 1 1537.5 514)">IR module 1</text><rect x="1481" y="848" width="534" height="235" fill="#00B0F0"/><text fill="#FFFFFF" font-family="Aptos,Aptos_MSFontService,sans-serif" font-weight="400" font-size="83" transform="matrix(1 0 0 1 1526.9 992)">IR module M </text><path d="M1728.5 651C1728.5 639.126 1738.13 629.5 1750 629.5 1761.87 629.5 1771.5 639.126 1771.5 651 1771.5 662.874 1761.87 672.5 1750 672.5 1738.13 672.5 1728.5 662.874 1728.5 651Z" stroke="#000000" stroke-width="6.875" stroke-miterlimit="8" fill-rule="evenodd"/><path d="M1730.5 719.5C1730.5 707.902 1739.9 698.5 1751.5 698.5 1763.1 698.5 1772.5 707.902 1772.5 719.5 1772.5 731.098 1763.1 740.5 1751.5 740.5 1739.9 740.5 1730.5 731.098 1730.5 719.5Z" stroke="#000000" stroke-width="6.875" stroke-miterlimit="8" fill-rule="evenodd"/><path d="M1730.5 789.5C1730.5 777.902 1739.9 768.5 1751.5 768.5 1763.1 768.5 1772.5 777.902 1772.5 789.5 1772.5 801.098 1763.1 810.5 1751.5 810.5 1739.9 810.5 1730.5 801.098 1730.5 789.5Z" stroke="#000000" stroke-width="6.875" stroke-miterlimit="8" fill-rule="evenodd"/><rect x="1481" y="1083" width="534" height="234" fill="#0070C0"/><text fill="#FFFFFF" font-family="Aptos,Aptos_MSFontService,sans-serif" font-weight="400" font-size="73" transform="matrix(1 0 0 1 1535.52 1180)">Native device </text><text fill="#FFFFFF" font-family="Aptos,Aptos_MSFontService,sans-serif" font-weight="400" font-size="73" transform="matrix(1 0 0 1 1537.65 1268)">code image 1</text><rect x="1481" y="1561" width="534" height="234" fill="#0070C0"/><text fill="#FFFFFF" font-family="Aptos,Aptos_MSFontService,sans-serif" font-weight="400" font-size="73" transform="matrix(1 0 0 1 1535.52 1658)">Native device </text><text fill="#FFFFFF" font-family="Aptos,Aptos_MSFontService,sans-serif" font-weight="400" font-size="73" transform="matrix(1 0 0 1 1530.2 1746)">code image O</text><path d="M1728.5 1363.5C1728.5 1351.9 1737.9 1342.5 1749.5 1342.5 1761.1 1342.5 1770.5 1351.9 1770.5 1363.5 1770.5 1375.1 1761.1 1384.5 1749.5 1384.5 1737.9 1384.5 1728.5 1375.1 1728.5 1363.5Z" stroke="#000000" stroke-width="6.875" stroke-miterlimit="8" fill-rule="evenodd"/><path d="M1729.5 1432.5C1729.5 1420.9 1738.9 1411.5 1750.5 1411.5 1762.1 1411.5 1771.5 1420.9 1771.5 1432.5 1771.5 1444.1 1762.1 1453.5 1750.5 1453.5 1738.9 1453.5 1729.5 1444.1 1729.5 1432.5Z" stroke="#000000" stroke-width="6.875" stroke-miterlimit="8" fill-rule="evenodd"/><path d="M1729.5 1502C1729.5 1490.13 1738.9 1480.5 1750.5 1480.5 1762.1 1480.5 1771.5 1490.13 1771.5 1502 1771.5 1513.87 1762.1 1523.5 1750.5 1523.5 1738.9 1523.5 1729.5 1513.87 1729.5 1502Z" stroke="#000000" stroke-width="6.875" stroke-miterlimit="8" fill-rule="evenodd"/><text font-family="Aptos,Aptos_MSFontService,sans-serif" font-weight="400" font-size="83" transform="matrix(1 0 0 1 812.2 555)">SYCLBIN file</text></g></svg>