<?xml version="1.0" standalone="no"?>
<!DOCTYPE svg PUBLIC "-//W3C//DTD SVG 1.1//EN" "http://www.w3.org/Graphics/SVG/1.1/DTD/svg11.dtd">
<svg version="1.1" width="1000" height="614" onload="init(evt)" viewBox="0 0 1000 614" xmlns="http://www.w3.org/2000/svg" xmlns:xlink="http://www.w3.org/1999/xlink">
<!-- Flame graph stack visualization. See https://github.com/brendangregg/FlameGraph for latest version, and http://www.brendangregg.com/flamegraphs.html for examples. -->
<!-- NOTES:  -->
<defs>
	<linearGradient id="background" y1="0" y2="1" x1="0" x2="0" >
		<stop stop-color="#eeeeee" offset="5%" />
		<stop stop-color="#eeeeb0" offset="95%" />
	</linearGradient>
</defs>
<style type="text/css">
	text { font-family:Verdana; font-size:12px; fill:rgb(0,0,0); }
	#search, #ignorecase { opacity:0.1; cursor:pointer; }
	#search:hover, #search.show, #ignorecase:hover, #ignorecase.show { opacity:1; }
	#subtitle { text-anchor:middle; font-color:rgb(160,160,160); }
	#title { text-anchor:middle; font-size:17px}
	#unzoom { cursor:pointer; }
	#frames > *:hover { stroke:black; stroke-width:0.5; cursor:pointer; }
	.hide { display:none; }
	.parent { opacity:0.5; }
</style>
<script type="text/ecmascript">
<![CDATA[
	"use strict";
	var details, searchbtn, unzoombtn, matchedtxt, svg, searching, currentSearchTerm, ignorecase, ignorecaseBtn;
	function init(evt) {
		details = document.getElementById("details").firstChild;
		searchbtn = document.getElementById("search");
		ignorecaseBtn = document.getElementById("ignorecase");
		unzoombtn = document.getElementById("unzoom");
		matchedtxt = document.getElementById("matched");
		svg = document.getElementsByTagName("svg")[0];
		searching = 0;
		currentSearchTerm = null;

		// use GET parameters to restore a flamegraphs state.
		var params = get_params();
		if (params.x && params.y)
			zoom(find_group(document.querySelector('[x="' + params.x + '"][y="' + params.y + '"]')));
                if (params.s) search(params.s);
	}

	// event listeners
	window.addEventListener("click", function(e) {
		var target = find_group(e.target);
		if (target) {
			if (target.nodeName == "a") {
				if (e.ctrlKey === false) return;
				e.preventDefault();
			}
			if (target.classList.contains("parent")) unzoom(true);
			zoom(target);
			if (!document.querySelector('.parent')) {
				// we have basically done a clearzoom so clear the url
				var params = get_params();
				if (params.x) delete params.x;
				if (params.y) delete params.y;
				history.replaceState(null, null, parse_params(params));
				unzoombtn.classList.add("hide");
				return;
			}

			// set parameters for zoom state
			var el = target.querySelector("rect");
			if (el && el.attributes && el.attributes.y && el.attributes._orig_x) {
				var params = get_params()
				params.x = el.attributes._orig_x.value;
				params.y = el.attributes.y.value;
				history.replaceState(null, null, parse_params(params));
			}
		}
		else if (e.target.id == "unzoom") clearzoom();
		else if (e.target.id == "search") search_prompt();
		else if (e.target.id == "ignorecase") toggle_ignorecase();
	}, false)

	// mouse-over for info
	// show
	window.addEventListener("mouseover", function(e) {
		var target = find_group(e.target);
		if (target) details.nodeValue = "Function: " + g_to_text(target);
	}, false)

	// clear
	window.addEventListener("mouseout", function(e) {
		var target = find_group(e.target);
		if (target) details.nodeValue = ' ';
	}, false)

	// ctrl-F for search
	// ctrl-I to toggle case-sensitive search
	window.addEventListener("keydown",function (e) {
		if (e.keyCode === 114 || (e.ctrlKey && e.keyCode === 70)) {
			e.preventDefault();
			search_prompt();
		}
		else if (e.ctrlKey && e.keyCode === 73) {
			e.preventDefault();
			toggle_ignorecase();
		}
	}, false)

	// functions
	function get_params() {
		var params = {};
		var paramsarr = window.location.search.substr(1).split('&');
		for (var i = 0; i < paramsarr.length; ++i) {
			var tmp = paramsarr[i].split("=");
			if (!tmp[0] || !tmp[1]) continue;
			params[tmp[0]]  = decodeURIComponent(tmp[1]);
		}
		return params;
	}
	function parse_params(params) {
		var uri = "?";
		for (var key in params) {
			uri += key + '=' + encodeURIComponent(params[key]) + '&';
		}
		if (uri.slice(-1) == "&")
			uri = uri.substring(0, uri.length - 1);
		if (uri == '?')
			uri = window.location.href.split('?')[0];
		return uri;
	}
	function find_child(node, selector) {
		var children = node.querySelectorAll(selector);
		if (children.length) return children[0];
	}
	function find_group(node) {
		var parent = node.parentElement;
		if (!parent) return;
		if (parent.id == "frames") return node;
		return find_group(parent);
	}
	function orig_save(e, attr, val) {
		if (e.attributes["_orig_" + attr] != undefined) return;
		if (e.attributes[attr] == undefined) return;
		if (val == undefined) val = e.attributes[attr].value;
		e.setAttribute("_orig_" + attr, val);
	}
	function orig_load(e, attr) {
		if (e.attributes["_orig_"+attr] == undefined) return;
		e.attributes[attr].value = e.attributes["_orig_" + attr].value;
		e.removeAttribute("_orig_"+attr);
	}
	function g_to_text(e) {
		var text = find_child(e, "title").firstChild.nodeValue;
		return (text)
	}
	function g_to_func(e) {
		var func = g_to_text(e);
		// if there's any manipulation we want to do to the function
		// name before it's searched, do it here before returning.
		return (func);
	}
	function update_text(e) {
		var r = find_child(e, "rect");
		var t = find_child(e, "text");
		var w = parseFloat(r.attributes.width.value) -3;
		var txt = find_child(e, "title").textContent.replace(/\([^(]*\)$/,"");
		t.attributes.x.value = parseFloat(r.attributes.x.value) + 3;

		// Smaller than this size won't fit anything
		if (w < 2 * 12 * 0.59) {
			t.textContent = "";
			return;
		}

		t.textContent = txt;
		var sl = t.getSubStringLength(0, txt.length);
		// check if only whitespace or if we can fit the entire string into width w
		if (/^ *$/.test(txt) || sl < w)
			return;

		// this isn't perfect, but gives a good starting point
		// and avoids calling getSubStringLength too often
		var start = Math.floor((w/sl) * txt.length);
		for (var x = start; x > 0; x = x-2) {
			if (t.getSubStringLength(0, x + 2) <= w) {
				t.textContent = txt.substring(0, x) + "..";
				return;
			}
		}
		t.textContent = "";
	}

	// zoom
	function zoom_reset(e) {
		if (e.attributes != undefined) {
			orig_load(e, "x");
			orig_load(e, "width");
		}
		if (e.childNodes == undefined) return;
		for (var i = 0, c = e.childNodes; i < c.length; i++) {
			zoom_reset(c[i]);
		}
	}
	function zoom_child(e, x, ratio) {
		if (e.attributes != undefined) {
			if (e.attributes.x != undefined) {
				orig_save(e, "x");
				e.attributes.x.value = (parseFloat(e.attributes.x.value) - x - 10) * ratio + 10;
				if (e.tagName == "text")
					e.attributes.x.value = find_child(e.parentNode, "rect[x]").attributes.x.value + 3;
			}
			if (e.attributes.width != undefined) {
				orig_save(e, "width");
				e.attributes.width.value = parseFloat(e.attributes.width.value) * ratio;
			}
		}

		if (e.childNodes == undefined) return;
		for (var i = 0, c = e.childNodes; i < c.length; i++) {
			zoom_child(c[i], x - 10, ratio);
		}
	}
	function zoom_parent(e) {
		if (e.attributes) {
			if (e.attributes.x != undefined) {
				orig_save(e, "x");
				e.attributes.x.value = 10;
			}
			if (e.attributes.width != undefined) {
				orig_save(e, "width");
				e.attributes.width.value = parseInt(svg.width.baseVal.value) - (10 * 2);
			}
		}
		if (e.childNodes == undefined) return;
		for (var i = 0, c = e.childNodes; i < c.length; i++) {
			zoom_parent(c[i]);
		}
	}
	function zoom(node) {
		var attr = find_child(node, "rect").attributes;
		var width = parseFloat(attr.width.value);
		var xmin = parseFloat(attr.x.value);
		var xmax = parseFloat(xmin + width);
		var ymin = parseFloat(attr.y.value);
		var ratio = (svg.width.baseVal.value - 2 * 10) / width;

		// XXX: Workaround for JavaScript float issues (fix me)
		var fudge = 0.0001;

		unzoombtn.classList.remove("hide");

		var el = document.getElementById("frames").children;
		for (var i = 0; i < el.length; i++) {
			var e = el[i];
			var a = find_child(e, "rect").attributes;
			var ex = parseFloat(a.x.value);
			var ew = parseFloat(a.width.value);
			var upstack;
			// Is it an ancestor
			if (0 == 0) {
				upstack = parseFloat(a.y.value) > ymin;
			} else {
				upstack = parseFloat(a.y.value) < ymin;
			}
			if (upstack) {
				// Direct ancestor
				if (ex <= xmin && (ex+ew+fudge) >= xmax) {
					e.classList.add("parent");
					zoom_parent(e);
					update_text(e);
				}
				// not in current path
				else
					e.classList.add("hide");
			}
			// Children maybe
			else {
				// no common path
				if (ex < xmin || ex + fudge >= xmax) {
					e.classList.add("hide");
				}
				else {
					zoom_child(e, xmin, ratio);
					update_text(e);
				}
			}
		}
		search();
	}
	function unzoom(dont_update_text) {
		unzoombtn.classList.add("hide");
		var el = document.getElementById("frames").children;
		for(var i = 0; i < el.length; i++) {
			el[i].classList.remove("parent");
			el[i].classList.remove("hide");
			zoom_reset(el[i]);
			if(!dont_update_text) update_text(el[i]);
		}
		search();
	}
	function clearzoom() {
		unzoom();

		// remove zoom state
		var params = get_params();
		if (params.x) delete params.x;
		if (params.y) delete params.y;
		history.replaceState(null, null, parse_params(params));
	}

	// search
	function toggle_ignorecase() {
		ignorecase = !ignorecase;
		if (ignorecase) {
			ignorecaseBtn.classList.add("show");
		} else {
			ignorecaseBtn.classList.remove("show");
		}
		reset_search();
		search();
	}
	function reset_search() {
		var el = document.querySelectorAll("#frames rect");
		for (var i = 0; i < el.length; i++) {
			orig_load(el[i], "fill")
		}
		var params = get_params();
		delete params.s;
		history.replaceState(null, null, parse_params(params));
	}
	function search_prompt() {
		if (!searching) {
			var term = prompt("Enter a search term (regexp " +
			    "allowed, eg: ^ext4_)"
			    + (ignorecase ? ", ignoring case" : "")
			    + "\nPress Ctrl-i to toggle case sensitivity", "");
			if (term != null) search(term);
		} else {
			reset_search();
			searching = 0;
			currentSearchTerm = null;
			searchbtn.classList.remove("show");
			searchbtn.firstChild.nodeValue = "Search"
			matchedtxt.classList.add("hide");
			matchedtxt.firstChild.nodeValue = ""
		}
	}
	function search(term) {
		if (term) currentSearchTerm = term;
		if (currentSearchTerm === null) return;

		var re = new RegExp(currentSearchTerm, ignorecase ? 'i' : '');
		var el = document.getElementById("frames").children;
		var matches = new Object();
		var maxwidth = 0;
		for (var i = 0; i < el.length; i++) {
			var e = el[i];
			var func = g_to_func(e);
			var rect = find_child(e, "rect");
			if (func == null || rect == null)
				continue;

			// Save max width. Only works as we have a root frame
			var w = parseFloat(rect.attributes.width.value);
			if (w > maxwidth)
				maxwidth = w;

			if (func.match(re)) {
				// highlight
				var x = parseFloat(rect.attributes.x.value);
				orig_save(rect, "fill");
				rect.attributes.fill.value = "rgb(230,0,230)";

				// remember matches
				if (matches[x] == undefined) {
					matches[x] = w;
				} else {
					if (w > matches[x]) {
						// overwrite with parent
						matches[x] = w;
					}
				}
				searching = 1;
			}
		}
		if (!searching)
			return;
		var params = get_params();
		params.s = currentSearchTerm;
		history.replaceState(null, null, parse_params(params));

		searchbtn.classList.add("show");
		searchbtn.firstChild.nodeValue = "Reset Search";

		// calculate percent matched, excluding vertical overlap
		var count = 0;
		var lastx = -1;
		var lastw = 0;
		var keys = Array();
		for (k in matches) {
			if (matches.hasOwnProperty(k))
				keys.push(k);
		}
		// sort the matched frames by their x location
		// ascending, then width descending
		keys.sort(function(a, b){
			return a - b;
		});
		// Step through frames saving only the biggest bottom-up frames
		// thanks to the sort order. This relies on the tree property
		// where children are always smaller than their parents.
		var fudge = 0.0001;	// JavaScript floating point
		for (var k in keys) {
			var x = parseFloat(keys[k]);
			var w = matches[keys[k]];
			if (x >= lastx + lastw - fudge) {
				count += w;
				lastx = x;
				lastw = w;
			}
		}
		// display matched percent
		matchedtxt.classList.remove("hide");
		var pct = 100 * count / maxwidth;
		if (pct != 100) pct = pct.toFixed(1)
		matchedtxt.firstChild.nodeValue = "Matched: " + pct + "%";
	}
]]>
</script>
<rect x="0.0" y="0" width="1000.0" height="614.0" fill="url(#background)"  />
<text id="title" x="500.00" y="24" >TestFG_BMG_L0 - graph_api_benchmark_sycl SubmitGraph use host tasks numKernels:32 ioq 1 measureCompletion 0</text>
<text id="details" x="10.00" y="597" > </text>
<text id="unzoom" x="10.00" y="24" class="hide">Reset Zoom</text>
<text id="search" x="890.00" y="24" >Search</text>
<text id="ignorecase" x="974.00" y="24" >ic</text>
<text id="matched" x="890.00" y="597" > </text>
<g id="frames">
<g >
<title>[unknown] (507,584 samples, 15.03%)</title><rect x="65.0" y="421" width="147.3" height="15.0" fill="rgb(210,24,5)" rx="2" ry="2" />
<text  x="68.04" y="431.5" >[unknown]</text>
</g>
<g >
<title>[libze_intel_gpu.so.1.6.34666.3] (586,093 samples, 17.36%)</title><rect x="300.8" y="373" width="170.1" height="15.0" fill="rgb(212,34,8)" rx="2" ry="2" />
<text  x="303.82" y="383.5" >[libze_intel_gpu.so.1...</text>
</g>
<g >
<title>__GI___libc_malloc (124,999 samples, 3.70%)</title><rect x="536.5" y="309" width="36.3" height="15.0" fill="rgb(219,68,16)" rx="2" ry="2" />
<text  x="539.52" y="319.5" >__G..</text>
</g>
<g >
<title>[libze_intel_gpu.so.1.6.34666.3] (110,574 samples, 3.27%)</title><rect x="212.3" y="485" width="32.1" height="15.0" fill="rgb(212,34,8)" rx="2" ry="2" />
<text  x="215.35" y="495.5" >[l..</text>
</g>
<g >
<title>[unknown] (112,226 samples, 3.32%)</title><rect x="503.9" y="341" width="32.6" height="15.0" fill="rgb(210,24,5)" rx="2" ry="2" />
<text  x="506.95" y="351.5" >[u..</text>
</g>
<g >
<title>[libze_intel_gpu.so.1.6.34666.3] (189,640 samples, 5.62%)</title><rect x="10.0" y="485" width="55.0" height="15.0" fill="rgb(212,34,8)" rx="2" ry="2" />
<text  x="13.00" y="495.5" >[libz..</text>
</g>
<g >
<title>[unknown] (112,226 samples, 3.32%)</title><rect x="503.9" y="229" width="32.6" height="15.0" fill="rgb(210,24,5)" rx="2" ry="2" />
<text  x="506.95" y="239.5" >[u..</text>
</g>
<g >
<title>[unknown] (124,999 samples, 3.70%)</title><rect x="536.5" y="69" width="36.3" height="15.0" fill="rgb(210,24,5)" rx="2" ry="2" />
<text  x="539.52" y="79.5" >[un..</text>
</g>
<g >
<title>[unknown] (203,238 samples, 6.02%)</title><rect x="411.9" y="293" width="59.0" height="15.0" fill="rgb(210,24,5)" rx="2" ry="2" />
<text  x="414.94" y="303.5" >[unkno..</text>
</g>
<g >
<title>std::__cxx11::basic_stringbuf&lt;char, std::char_traits&lt;char&gt;, std::allocator&lt;char&gt; &gt;::overflow (124,999 samples, 3.70%)</title><rect x="536.5" y="357" width="36.3" height="15.0" fill="rgb(221,75,18)" rx="2" ry="2" />
<text  x="539.52" y="367.5" >std..</text>
</g>
<g >
<title>tcache_init (124,999 samples, 3.70%)</title><rect x="536.5" y="277" width="36.3" height="15.0" fill="rgb(254,225,53)" rx="2" ry="2" />
<text  x="539.52" y="287.5" >tca..</text>
</g>
<g >
<title>__memcpy_avx_unaligned_erms (113,806 samples, 3.37%)</title><rect x="470.9" y="373" width="33.0" height="15.0" fill="rgb(246,190,45)" rx="2" ry="2" />
<text  x="473.92" y="383.5" >__..</text>
</g>
<g >
<title>[unknown] (391,420 samples, 11.59%)</title><rect x="98.7" y="357" width="113.6" height="15.0" fill="rgb(210,24,5)" rx="2" ry="2" />
<text  x="101.75" y="367.5" >[unknown]</text>
</g>
<g >
<title>[unknown] (112,226 samples, 3.32%)</title><rect x="503.9" y="213" width="32.6" height="15.0" fill="rgb(210,24,5)" rx="2" ry="2" />
<text  x="506.95" y="223.5" >[u..</text>
</g>
<g >
<title>[unknown] (124,999 samples, 3.70%)</title><rect x="536.5" y="53" width="36.3" height="15.0" fill="rgb(210,24,5)" rx="2" ry="2" />
<text  x="539.52" y="63.5" >[un..</text>
</g>
<g >
<title>[libze_intel_gpu.so.1.6.34666.3] (1,004,148 samples, 29.74%)</title><rect x="645.3" y="373" width="291.5" height="15.0" fill="rgb(212,34,8)" rx="2" ry="2" />
<text  x="648.35" y="383.5" >[libze_intel_gpu.so.1.6.34666.3]</text>
</g>
<g >
<title>[unknown] (391,420 samples, 11.59%)</title><rect x="98.7" y="325" width="113.6" height="15.0" fill="rgb(210,24,5)" rx="2" ry="2" />
<text  x="101.75" y="335.5" >[unknown]</text>
</g>
<g >
<title>start_thread (110,574 samples, 3.27%)</title><rect x="212.3" y="517" width="32.1" height="15.0" fill="rgb(212,34,8)" rx="2" ry="2" />
<text  x="215.35" y="527.5" >st..</text>
</g>
<g >
<title>operator new (110,574 samples, 3.27%)</title><rect x="212.3" y="309" width="32.1" height="15.0" fill="rgb(216,51,12)" rx="2" ry="2" />
<text  x="215.35" y="319.5" >op..</text>
</g>
<g >
<title>[unknown] (249,998 samples, 7.40%)</title><rect x="572.8" y="277" width="72.5" height="15.0" fill="rgb(210,24,5)" rx="2" ry="2" />
<text  x="575.79" y="287.5" >[unknown]</text>
</g>
<g >
<title>[unknown] (391,420 samples, 11.59%)</title><rect x="98.7" y="341" width="113.6" height="15.0" fill="rgb(210,24,5)" rx="2" ry="2" />
<text  x="101.75" y="351.5" >[unknown]</text>
</g>
<g >
<title>graph_api_bench (3,376,783 samples, 100.00%)</title><rect x="10.0" y="549" width="980.0" height="15.0" fill="rgb(226,99,23)" rx="2" ry="2" />
<text  x="13.00" y="559.5" >graph_api_bench</text>
</g>
<g >
<title>[unknown] (249,998 samples, 7.40%)</title><rect x="572.8" y="293" width="72.5" height="15.0" fill="rgb(210,24,5)" rx="2" ry="2" />
<text  x="575.79" y="303.5" >[unknown]</text>
</g>
<g >
<title>[unknown] (507,584 samples, 15.03%)</title><rect x="65.0" y="485" width="147.3" height="15.0" fill="rgb(210,24,5)" rx="2" ry="2" />
<text  x="68.04" y="495.5" >[unknown]</text>
</g>
<g >
<title>___pthread_mutex_lock (183,419 samples, 5.43%)</title><rect x="936.8" y="437" width="53.2" height="15.0" fill="rgb(206,7,1)" rx="2" ry="2" />
<text  x="939.77" y="447.5" >___pt..</text>
</g>
<g >
<title>[unknown] (507,584 samples, 15.03%)</title><rect x="65.0" y="453" width="147.3" height="15.0" fill="rgb(210,24,5)" rx="2" ry="2" />
<text  x="68.04" y="463.5" >[unknown]</text>
</g>
<g >
<title>[libze_intel_gpu.so.1.6.34666.3] (110,574 samples, 3.27%)</title><rect x="212.3" y="341" width="32.1" height="15.0" fill="rgb(212,34,8)" rx="2" ry="2" />
<text  x="215.35" y="351.5" >[l..</text>
</g>
<g >
<title>[libze_intel_gpu.so.1.6.34666.3] (1,004,148 samples, 29.74%)</title><rect x="645.3" y="405" width="291.5" height="15.0" fill="rgb(212,34,8)" rx="2" ry="2" />
<text  x="648.35" y="415.5" >[libze_intel_gpu.so.1.6.34666.3]</text>
</g>
<g >
<title>[unknown] (203,238 samples, 6.02%)</title><rect x="411.9" y="245" width="59.0" height="15.0" fill="rgb(210,24,5)" rx="2" ry="2" />
<text  x="414.94" y="255.5" >[unkno..</text>
</g>
<g >
<title>[unknown] (203,238 samples, 6.02%)</title><rect x="411.9" y="277" width="59.0" height="15.0" fill="rgb(210,24,5)" rx="2" ry="2" />
<text  x="414.94" y="287.5" >[unkno..</text>
</g>
<g >
<title>[unknown] (112,226 samples, 3.32%)</title><rect x="503.9" y="149" width="32.6" height="15.0" fill="rgb(210,24,5)" rx="2" ry="2" />
<text  x="506.95" y="159.5" >[u..</text>
</g>
<g >
<title>[unknown] (112,226 samples, 3.32%)</title><rect x="503.9" y="325" width="32.6" height="15.0" fill="rgb(210,24,5)" rx="2" ry="2" />
<text  x="506.95" y="335.5" >[u..</text>
</g>
<g >
<title>start_thread (2,374,689 samples, 70.32%)</title><rect x="300.8" y="517" width="689.2" height="15.0" fill="rgb(212,34,8)" rx="2" ry="2" />
<text  x="303.82" y="527.5" >start_thread</text>
</g>
<g >
<title>[unknown] (112,226 samples, 3.32%)</title><rect x="503.9" y="357" width="32.6" height="15.0" fill="rgb(210,24,5)" rx="2" ry="2" />
<text  x="506.95" y="367.5" >[u..</text>
</g>
<g >
<title>[libze_intel_gpu.so.1.6.34666.3] (110,574 samples, 3.27%)</title><rect x="212.3" y="373" width="32.1" height="15.0" fill="rgb(212,34,8)" rx="2" ry="2" />
<text  x="215.35" y="383.5" >[l..</text>
</g>
<g >
<title>arena_get2 (124,999 samples, 3.70%)</title><rect x="536.5" y="245" width="36.3" height="15.0" fill="rgb(207,9,2)" rx="2" ry="2" />
<text  x="539.52" y="255.5" >are..</text>
</g>
<g >
<title>[unknown] (124,999 samples, 3.70%)</title><rect x="536.5" y="165" width="36.3" height="15.0" fill="rgb(210,24,5)" rx="2" ry="2" />
<text  x="539.52" y="175.5" >[un..</text>
</g>
<g >
<title>operator new (124,999 samples, 3.70%)</title><rect x="536.5" y="325" width="36.3" height="15.0" fill="rgb(216,51,12)" rx="2" ry="2" />
<text  x="539.52" y="335.5" >ope..</text>
</g>
<g >
<title>[unknown] (203,238 samples, 6.02%)</title><rect x="411.9" y="197" width="59.0" height="15.0" fill="rgb(210,24,5)" rx="2" ry="2" />
<text  x="414.94" y="207.5" >[unkno..</text>
</g>
<g >
<title>[libze_intel_gpu.so.1.6.34666.3] (1,004,148 samples, 29.74%)</title><rect x="645.3" y="389" width="291.5" height="15.0" fill="rgb(212,34,8)" rx="2" ry="2" />
<text  x="648.35" y="399.5" >[libze_intel_gpu.so.1.6.34666.3]</text>
</g>
<g >
<title>[unknown] (203,238 samples, 6.02%)</title><rect x="411.9" y="309" width="59.0" height="15.0" fill="rgb(210,24,5)" rx="2" ry="2" />
<text  x="414.94" y="319.5" >[unkno..</text>
</g>
<g >
<title>[unknown] (249,998 samples, 7.40%)</title><rect x="572.8" y="373" width="72.5" height="15.0" fill="rgb(210,24,5)" rx="2" ry="2" />
<text  x="575.79" y="383.5" >[unknown]</text>
</g>
<g >
<title>std::basic_ostream&lt;char, std::char_traits&lt;char&gt; &gt;&amp; std::__ostream_insert&lt;char, std::char_traits&lt;char&gt; &gt; (124,999 samples, 3.70%)</title><rect x="536.5" y="389" width="36.3" height="15.0" fill="rgb(220,73,17)" rx="2" ry="2" />
<text  x="539.52" y="399.5" >std..</text>
</g>
<g >
<title>[libstdc++.so.6.0.33] (110,574 samples, 3.27%)</title><rect x="212.3" y="501" width="32.1" height="15.0" fill="rgb(216,51,12)" rx="2" ry="2" />
<text  x="215.35" y="511.5" >[l..</text>
</g>
<g >
<title>[unknown] (203,238 samples, 6.02%)</title><rect x="411.9" y="165" width="59.0" height="15.0" fill="rgb(210,24,5)" rx="2" ry="2" />
<text  x="414.94" y="175.5" >[unkno..</text>
</g>
<g >
<title>sycl::_V1::detail::DispatchHostTask::waitForEvents (1,004,148 samples, 29.74%)</title><rect x="645.3" y="453" width="291.5" height="15.0" fill="rgb(227,103,24)" rx="2" ry="2" />
<text  x="648.35" y="463.5" >sycl::_V1::detail::DispatchHostTask::wa..</text>
</g>
<g >
<title>[unknown] (249,998 samples, 7.40%)</title><rect x="572.8" y="261" width="72.5" height="15.0" fill="rgb(210,24,5)" rx="2" ry="2" />
<text  x="575.79" y="271.5" >[unknown]</text>
</g>
<g >
<title>__GI___futex_abstimed_wait_cancelable64 (249,998 samples, 7.40%)</title><rect x="572.8" y="437" width="72.5" height="15.0" fill="rgb(215,48,11)" rx="2" ry="2" />
<text  x="575.79" y="447.5" >__GI___f..</text>
</g>
<g >
<title>[unknown] (249,998 samples, 7.40%)</title><rect x="572.8" y="389" width="72.5" height="15.0" fill="rgb(210,24,5)" rx="2" ry="2" />
<text  x="575.79" y="399.5" >[unknown]</text>
</g>
<g >
<title>_dl_start_final (194,296 samples, 5.75%)</title><rect x="244.4" y="501" width="56.4" height="15.0" fill="rgb(252,216,51)" rx="2" ry="2" />
<text  x="247.44" y="511.5" >_dl_s..</text>
</g>
<g >
<title>[unknown] (110,574 samples, 3.27%)</title><rect x="212.3" y="213" width="32.1" height="15.0" fill="rgb(210,24,5)" rx="2" ry="2" />
<text  x="215.35" y="223.5" >[u..</text>
</g>
<g >
<title>sycl::_V1::detail::ThreadPool::worker (1,437,565 samples, 42.57%)</title><rect x="572.8" y="485" width="417.2" height="15.0" fill="rgb(241,168,40)" rx="2" ry="2" />
<text  x="575.79" y="495.5" >sycl::_V1::detail::ThreadPool::worker</text>
</g>
<g >
<title>[libze_intel_gpu.so.1.6.34666.3] (110,574 samples, 3.27%)</title><rect x="212.3" y="421" width="32.1" height="15.0" fill="rgb(212,34,8)" rx="2" ry="2" />
<text  x="215.35" y="431.5" >[l..</text>
</g>
<g >
<title>[unknown] (249,998 samples, 7.40%)</title><rect x="572.8" y="309" width="72.5" height="15.0" fill="rgb(210,24,5)" rx="2" ry="2" />
<text  x="575.79" y="319.5" >[unknown]</text>
</g>
<g >
<title>[unknown] (507,584 samples, 15.03%)</title><rect x="65.0" y="405" width="147.3" height="15.0" fill="rgb(210,24,5)" rx="2" ry="2" />
<text  x="68.04" y="415.5" >[unknown]</text>
</g>
<g >
<title>[libze_intel_gpu.so.1.6.34666.3] (110,574 samples, 3.27%)</title><rect x="212.3" y="437" width="32.1" height="15.0" fill="rgb(212,34,8)" rx="2" ry="2" />
<text  x="215.35" y="447.5" >[l..</text>
</g>
<g >
<title>clone3 (2,374,689 samples, 70.32%)</title><rect x="300.8" y="533" width="689.2" height="15.0" fill="rgb(216,54,12)" rx="2" ry="2" />
<text  x="303.82" y="543.5" >clone3</text>
</g>
<g >
<title>[libze_intel_gpu.so.1.6.34666.3] (110,574 samples, 3.27%)</title><rect x="212.3" y="357" width="32.1" height="15.0" fill="rgb(212,34,8)" rx="2" ry="2" />
<text  x="215.35" y="367.5" >[l..</text>
</g>
<g >
<title>__pthread_cond_wait_common (249,998 samples, 7.40%)</title><rect x="572.8" y="453" width="72.5" height="15.0" fill="rgb(210,24,5)" rx="2" ry="2" />
<text  x="575.79" y="463.5" >__pthrea..</text>
</g>
<g >
<title>_start (194,296 samples, 5.75%)</title><rect x="244.4" y="533" width="56.4" height="15.0" fill="rgb(245,185,44)" rx="2" ry="2" />
<text  x="247.44" y="543.5" >_start</text>
</g>
<g >
<title>[unknown] (203,238 samples, 6.02%)</title><rect x="411.9" y="181" width="59.0" height="15.0" fill="rgb(210,24,5)" rx="2" ry="2" />
<text  x="414.94" y="191.5" >[unkno..</text>
</g>
<g >
<title>[unknown] (110,574 samples, 3.27%)</title><rect x="212.3" y="229" width="32.1" height="15.0" fill="rgb(210,24,5)" rx="2" ry="2" />
<text  x="215.35" y="239.5" >[u..</text>
</g>
<g >
<title>[unknown] (203,238 samples, 6.02%)</title><rect x="411.9" y="261" width="59.0" height="15.0" fill="rgb(210,24,5)" rx="2" ry="2" />
<text  x="414.94" y="271.5" >[unkno..</text>
</g>
<g >
<title>new_heap (124,999 samples, 3.70%)</title><rect x="536.5" y="213" width="36.3" height="15.0" fill="rgb(243,178,42)" rx="2" ry="2" />
<text  x="539.52" y="223.5" >new..</text>
</g>
<g >
<title>[unknown] (507,584 samples, 15.03%)</title><rect x="65.0" y="437" width="147.3" height="15.0" fill="rgb(210,24,5)" rx="2" ry="2" />
<text  x="68.04" y="447.5" >[unknown]</text>
</g>
<g >
<title>__memset_avx2_unaligned_erms (112,226 samples, 3.32%)</title><rect x="503.9" y="373" width="32.6" height="15.0" fill="rgb(223,84,20)" rx="2" ry="2" />
<text  x="506.95" y="383.5" >__..</text>
</g>
<g >
<title>[libze_intel_gpu.so.1.6.34666.3] (937,124 samples, 27.75%)</title><rect x="300.8" y="437" width="272.0" height="15.0" fill="rgb(212,34,8)" rx="2" ry="2" />
<text  x="303.82" y="447.5" >[libze_intel_gpu.so.1.6.34666.3]</text>
</g>
<g >
<title>[libze_intel_gpu.so.1.6.34666.3] (203,238 samples, 6.02%)</title><rect x="411.9" y="357" width="59.0" height="15.0" fill="rgb(212,34,8)" rx="2" ry="2" />
<text  x="414.94" y="367.5" >[libze..</text>
</g>
<g >
<title>tcache_init (124,999 samples, 3.70%)</title><rect x="536.5" y="293" width="36.3" height="15.0" fill="rgb(254,225,53)" rx="2" ry="2" />
<text  x="539.52" y="303.5" >tca..</text>
</g>
<g >
<title>[unknown] (124,999 samples, 3.70%)</title><rect x="536.5" y="149" width="36.3" height="15.0" fill="rgb(210,24,5)" rx="2" ry="2" />
<text  x="539.52" y="159.5" >[un..</text>
</g>
<g >
<title>[libze_intel_gpu.so.1.6.34666.3] (110,574 samples, 3.27%)</title><rect x="212.3" y="405" width="32.1" height="15.0" fill="rgb(212,34,8)" rx="2" ry="2" />
<text  x="215.35" y="415.5" >[l..</text>
</g>
<g >
<title>[unknown] (124,999 samples, 3.70%)</title><rect x="536.5" y="37" width="36.3" height="15.0" fill="rgb(210,24,5)" rx="2" ry="2" />
<text  x="539.52" y="47.5" >[un..</text>
</g>
<g >
<title>[unknown] (112,226 samples, 3.32%)</title><rect x="503.9" y="197" width="32.6" height="15.0" fill="rgb(210,24,5)" rx="2" ry="2" />
<text  x="506.95" y="207.5" >[u..</text>
</g>
<g >
<title>[unknown] (507,584 samples, 15.03%)</title><rect x="65.0" y="373" width="147.3" height="15.0" fill="rgb(210,24,5)" rx="2" ry="2" />
<text  x="68.04" y="383.5" >[unknown]</text>
</g>
<g >
<title>[unknown] (112,226 samples, 3.32%)</title><rect x="503.9" y="165" width="32.6" height="15.0" fill="rgb(210,24,5)" rx="2" ry="2" />
<text  x="506.95" y="175.5" >[u..</text>
</g>
<g >
<title>[libze_intel_gpu.so.1.6.34666.3] (812,125 samples, 24.05%)</title><rect x="300.8" y="389" width="235.7" height="15.0" fill="rgb(212,34,8)" rx="2" ry="2" />
<text  x="303.82" y="399.5" >[libze_intel_gpu.so.1.6.34666.3]</text>
</g>
<g >
<title>[unknown] (110,574 samples, 3.27%)</title><rect x="212.3" y="245" width="32.1" height="15.0" fill="rgb(210,24,5)" rx="2" ry="2" />
<text  x="215.35" y="255.5" >[u..</text>
</g>
<g >
<title>[libze_intel_gpu.so.1.6.34666.3] (937,124 samples, 27.75%)</title><rect x="300.8" y="453" width="272.0" height="15.0" fill="rgb(212,34,8)" rx="2" ry="2" />
<text  x="303.82" y="463.5" >[libze_intel_gpu.so.1.6.34666.3]</text>
</g>
<g >
<title>[unknown] (112,226 samples, 3.32%)</title><rect x="503.9" y="309" width="32.6" height="15.0" fill="rgb(210,24,5)" rx="2" ry="2" />
<text  x="506.95" y="319.5" >[u..</text>
</g>
<g >
<title>[unknown] (203,238 samples, 6.02%)</title><rect x="411.9" y="117" width="59.0" height="15.0" fill="rgb(210,24,5)" rx="2" ry="2" />
<text  x="414.94" y="127.5" >[unkno..</text>
</g>
<g >
<title>_dl_start (194,296 samples, 5.75%)</title><rect x="244.4" y="517" width="56.4" height="15.0" fill="rgb(237,151,36)" rx="2" ry="2" />
<text  x="247.44" y="527.5" >_dl_s..</text>
</g>
<g >
<title>[libze_intel_gpu.so.1.6.34666.3] (937,124 samples, 27.75%)</title><rect x="300.8" y="421" width="272.0" height="15.0" fill="rgb(212,34,8)" rx="2" ry="2" />
<text  x="303.82" y="431.5" >[libze_intel_gpu.so.1.6.34666.3]</text>
</g>
<g >
<title>alloc_new_heap (124,999 samples, 3.70%)</title><rect x="536.5" y="197" width="36.3" height="15.0" fill="rgb(251,213,51)" rx="2" ry="2" />
<text  x="539.52" y="207.5" >all..</text>
</g>
<g >
<title>[unknown] (113,806 samples, 3.37%)</title><rect x="470.9" y="357" width="33.0" height="15.0" fill="rgb(210,24,5)" rx="2" ry="2" />
<text  x="473.92" y="367.5" >[u..</text>
</g>
<g >
<title>___pthread_cond_wait (249,998 samples, 7.40%)</title><rect x="572.8" y="469" width="72.5" height="15.0" fill="rgb(252,219,52)" rx="2" ry="2" />
<text  x="575.79" y="479.5" >___pthre..</text>
</g>
<g >
<title>arena_get2 (124,999 samples, 3.70%)</title><rect x="536.5" y="261" width="36.3" height="15.0" fill="rgb(207,9,2)" rx="2" ry="2" />
<text  x="539.52" y="271.5" >are..</text>
</g>
<g >
<title>[libze_intel_gpu.so.1.6.34666.3] (937,124 samples, 27.75%)</title><rect x="300.8" y="469" width="272.0" height="15.0" fill="rgb(212,34,8)" rx="2" ry="2" />
<text  x="303.82" y="479.5" >[libze_intel_gpu.so.1.6.34666.3]</text>
</g>
<g >
<title>__GI_mprotect (124,999 samples, 3.70%)</title><rect x="536.5" y="181" width="36.3" height="15.0" fill="rgb(220,71,17)" rx="2" ry="2" />
<text  x="539.52" y="191.5" >__G..</text>
</g>
<g >
<title>[libze_intel_gpu.so.1.6.34666.3] (189,640 samples, 5.62%)</title><rect x="10.0" y="517" width="55.0" height="15.0" fill="rgb(212,34,8)" rx="2" ry="2" />
<text  x="13.00" y="527.5" >[libz..</text>
</g>
<g >
<title>[unknown] (507,584 samples, 15.03%)</title><rect x="65.0" y="469" width="147.3" height="15.0" fill="rgb(210,24,5)" rx="2" ry="2" />
<text  x="68.04" y="479.5" >[unknown]</text>
</g>
<g >
<title>[unknown] (507,584 samples, 15.03%)</title><rect x="65.0" y="501" width="147.3" height="15.0" fill="rgb(210,24,5)" rx="2" ry="2" />
<text  x="68.04" y="511.5" >[unknown]</text>
</g>
<g >
<title>[unknown] (507,584 samples, 15.03%)</title><rect x="65.0" y="389" width="147.3" height="15.0" fill="rgb(210,24,5)" rx="2" ry="2" />
<text  x="68.04" y="399.5" >[unknown]</text>
</g>
<g >
<title>[libze_intel_gpu.so.1.6.34666.3] (110,574 samples, 3.27%)</title><rect x="212.3" y="325" width="32.1" height="15.0" fill="rgb(212,34,8)" rx="2" ry="2" />
<text  x="215.35" y="335.5" >[l..</text>
</g>
<g >
<title>[unknown] (124,999 samples, 3.70%)</title><rect x="176.1" y="309" width="36.2" height="15.0" fill="rgb(210,24,5)" rx="2" ry="2" />
<text  x="179.07" y="319.5" >[un..</text>
</g>
<g >
<title>[libze_intel_gpu.so.1.6.34666.3] (937,124 samples, 27.75%)</title><rect x="300.8" y="405" width="272.0" height="15.0" fill="rgb(212,34,8)" rx="2" ry="2" />
<text  x="303.82" y="415.5" >[libze_intel_gpu.so.1.6.34666.3]</text>
</g>
<g >
<title>[unknown] (113,806 samples, 3.37%)</title><rect x="470.9" y="341" width="33.0" height="15.0" fill="rgb(210,24,5)" rx="2" ry="2" />
<text  x="473.92" y="351.5" >[u..</text>
</g>
<g >
<title>_int_malloc (110,574 samples, 3.27%)</title><rect x="212.3" y="277" width="32.1" height="15.0" fill="rgb(215,47,11)" rx="2" ry="2" />
<text  x="215.35" y="287.5" >_i..</text>
</g>
<g >
<title>all (3,376,783 samples, 100%)</title><rect x="10.0" y="565" width="980.0" height="15.0" fill="rgb(213,39,9)" rx="2" ry="2" />
<text  x="13.00" y="575.5" ></text>
</g>
<g >
<title>[libstdc++.so.6.0.33] (2,374,689 samples, 70.32%)</title><rect x="300.8" y="501" width="689.2" height="15.0" fill="rgb(216,51,12)" rx="2" ry="2" />
<text  x="303.82" y="511.5" >[libstdc++.so.6.0.33]</text>
</g>
<g >
<title>std::__cxx11::basic_string&lt;char, std::char_traits&lt;char&gt;, std::allocator&lt;char&gt; &gt;::reserve (124,999 samples, 3.70%)</title><rect x="536.5" y="341" width="36.3" height="15.0" fill="rgb(244,181,43)" rx="2" ry="2" />
<text  x="539.52" y="351.5" >std..</text>
</g>
<g >
<title>[unknown] (112,226 samples, 3.32%)</title><rect x="503.9" y="261" width="32.6" height="15.0" fill="rgb(210,24,5)" rx="2" ry="2" />
<text  x="506.95" y="271.5" >[u..</text>
</g>
<g >
<title>[unknown] (112,226 samples, 3.32%)</title><rect x="503.9" y="181" width="32.6" height="15.0" fill="rgb(210,24,5)" rx="2" ry="2" />
<text  x="506.95" y="191.5" >[u..</text>
</g>
<g >
<title>[unknown] (203,238 samples, 6.02%)</title><rect x="411.9" y="133" width="59.0" height="15.0" fill="rgb(210,24,5)" rx="2" ry="2" />
<text  x="414.94" y="143.5" >[unkno..</text>
</g>
<g >
<title>[unknown] (124,999 samples, 3.70%)</title><rect x="536.5" y="101" width="36.3" height="15.0" fill="rgb(210,24,5)" rx="2" ry="2" />
<text  x="539.52" y="111.5" >[un..</text>
</g>
<g >
<title>[libze_intel_gpu.so.1.6.34666.3] (203,238 samples, 6.02%)</title><rect x="411.9" y="341" width="59.0" height="15.0" fill="rgb(212,34,8)" rx="2" ry="2" />
<text  x="414.94" y="351.5" >[libze..</text>
</g>
<g >
<title>[unknown] (124,999 samples, 3.70%)</title><rect x="536.5" y="133" width="36.3" height="15.0" fill="rgb(210,24,5)" rx="2" ry="2" />
<text  x="539.52" y="143.5" >[un..</text>
</g>
<g >
<title>[unknown] (507,584 samples, 15.03%)</title><rect x="65.0" y="517" width="147.3" height="15.0" fill="rgb(210,24,5)" rx="2" ry="2" />
<text  x="68.04" y="527.5" >[unknown]</text>
</g>
<g >
<title>std::basic_streambuf&lt;char, std::char_traits&lt;char&gt; &gt;::xsputn (124,999 samples, 3.70%)</title><rect x="536.5" y="373" width="36.3" height="15.0" fill="rgb(244,181,43)" rx="2" ry="2" />
<text  x="539.52" y="383.5" >std..</text>
</g>
<g >
<title>[unknown] (203,238 samples, 6.02%)</title><rect x="411.9" y="101" width="59.0" height="15.0" fill="rgb(210,24,5)" rx="2" ry="2" />
<text  x="414.94" y="111.5" >[unkno..</text>
</g>
<g >
<title>[unknown] (112,226 samples, 3.32%)</title><rect x="503.9" y="293" width="32.6" height="15.0" fill="rgb(210,24,5)" rx="2" ry="2" />
<text  x="506.95" y="303.5" >[u..</text>
</g>
<g >
<title>[unknown] (203,238 samples, 6.02%)</title><rect x="411.9" y="229" width="59.0" height="15.0" fill="rgb(210,24,5)" rx="2" ry="2" />
<text  x="414.94" y="239.5" >[unkno..</text>
</g>
<g >
<title>[unknown] (110,574 samples, 3.27%)</title><rect x="212.3" y="261" width="32.1" height="15.0" fill="rgb(210,24,5)" rx="2" ry="2" />
<text  x="215.35" y="271.5" >[u..</text>
</g>
<g >
<title>[libze_intel_gpu.so.1.6.34666.3] (110,574 samples, 3.27%)</title><rect x="212.3" y="389" width="32.1" height="15.0" fill="rgb(212,34,8)" rx="2" ry="2" />
<text  x="215.35" y="399.5" >[l..</text>
</g>
<g >
<title>[unknown] (249,998 samples, 7.40%)</title><rect x="572.8" y="357" width="72.5" height="15.0" fill="rgb(210,24,5)" rx="2" ry="2" />
<text  x="575.79" y="367.5" >[unknown]</text>
</g>
<g >
<title>__futex_abstimed_wait_common64 (249,998 samples, 7.40%)</title><rect x="572.8" y="405" width="72.5" height="15.0" fill="rgb(220,71,17)" rx="2" ry="2" />
<text  x="575.79" y="415.5" >__futex_..</text>
</g>
<g >
<title>[unknown] (807,798 samples, 23.92%)</title><rect x="10.0" y="533" width="234.4" height="15.0" fill="rgb(210,24,5)" rx="2" ry="2" />
<text  x="13.00" y="543.5" >[unknown]</text>
</g>
<g >
<title>urEventWait (1,004,148 samples, 29.74%)</title><rect x="645.3" y="437" width="291.5" height="15.0" fill="rgb(234,136,32)" rx="2" ry="2" />
<text  x="648.35" y="447.5" >urEventWait</text>
</g>
<g >
<title>sycl::_V1::detail::DispatchHostTask::operator (1,187,567 samples, 35.17%)</title><rect x="645.3" y="469" width="344.7" height="15.0" fill="rgb(210,25,6)" rx="2" ry="2" />
<text  x="648.35" y="479.5" >sycl::_V1::detail::DispatchHostTask::operator</text>
</g>
<g >
<title>[unknown] (203,238 samples, 6.02%)</title><rect x="411.9" y="213" width="59.0" height="15.0" fill="rgb(210,24,5)" rx="2" ry="2" />
<text  x="414.94" y="223.5" >[unkno..</text>
</g>
<g >
<title>_int_new_arena (124,999 samples, 3.70%)</title><rect x="536.5" y="229" width="36.3" height="15.0" fill="rgb(249,206,49)" rx="2" ry="2" />
<text  x="539.52" y="239.5" >_in..</text>
</g>
<g >
<title>[unknown] (249,998 samples, 7.40%)</title><rect x="572.8" y="325" width="72.5" height="15.0" fill="rgb(210,24,5)" rx="2" ry="2" />
<text  x="575.79" y="335.5" >[unknown]</text>
</g>
<g >
<title>ur::level_zero::urEventWait (1,004,148 samples, 29.74%)</title><rect x="645.3" y="421" width="291.5" height="15.0" fill="rgb(223,85,20)" rx="2" ry="2" />
<text  x="648.35" y="431.5" >ur::level_zero::urEventWait</text>
</g>
<g >
<title>__GI___libc_malloc (110,574 samples, 3.27%)</title><rect x="212.3" y="293" width="32.1" height="15.0" fill="rgb(219,68,16)" rx="2" ry="2" />
<text  x="215.35" y="303.5" >__..</text>
</g>
<g >
<title>[unknown] (249,998 samples, 7.40%)</title><rect x="572.8" y="341" width="72.5" height="15.0" fill="rgb(210,24,5)" rx="2" ry="2" />
<text  x="575.79" y="351.5" >[unknown]</text>
</g>
<g >
<title>[unknown] (124,999 samples, 3.70%)</title><rect x="176.1" y="293" width="36.2" height="15.0" fill="rgb(210,24,5)" rx="2" ry="2" />
<text  x="179.07" y="303.5" >[un..</text>
</g>
<g >
<title>[libze_intel_gpu.so.1.6.34666.3] (110,574 samples, 3.27%)</title><rect x="212.3" y="453" width="32.1" height="15.0" fill="rgb(212,34,8)" rx="2" ry="2" />
<text  x="215.35" y="463.5" >[l..</text>
</g>
<g >
<title>[libze_intel_gpu.so.1.6.34666.3] (937,124 samples, 27.75%)</title><rect x="300.8" y="485" width="272.0" height="15.0" fill="rgb(212,34,8)" rx="2" ry="2" />
<text  x="303.82" y="495.5" >[libze_intel_gpu.so.1.6.34666.3]</text>
</g>
<g >
<title>__GI___tunables_init (194,296 samples, 5.75%)</title><rect x="244.4" y="469" width="56.4" height="15.0" fill="rgb(216,51,12)" rx="2" ry="2" />
<text  x="247.44" y="479.5" >__GI_..</text>
</g>
<g >
<title>sycl::_V1::detail::Scheduler::NotifyHostTaskCompletion (183,419 samples, 5.43%)</title><rect x="936.8" y="453" width="53.2" height="15.0" fill="rgb(230,116,27)" rx="2" ry="2" />
<text  x="939.77" y="463.5" >sycl:..</text>
</g>
<g >
<title>[unknown] (203,238 samples, 6.02%)</title><rect x="411.9" y="149" width="59.0" height="15.0" fill="rgb(210,24,5)" rx="2" ry="2" />
<text  x="414.94" y="159.5" >[unkno..</text>
</g>
<g >
<title>[unknown] (124,999 samples, 3.70%)</title><rect x="536.5" y="85" width="36.3" height="15.0" fill="rgb(210,24,5)" rx="2" ry="2" />
<text  x="539.52" y="95.5" >[un..</text>
</g>
<g >
<title>[unknown] (112,226 samples, 3.32%)</title><rect x="503.9" y="277" width="32.6" height="15.0" fill="rgb(210,24,5)" rx="2" ry="2" />
<text  x="506.95" y="287.5" >[u..</text>
</g>
<g >
<title>[unknown] (112,226 samples, 3.32%)</title><rect x="503.9" y="245" width="32.6" height="15.0" fill="rgb(210,24,5)" rx="2" ry="2" />
<text  x="506.95" y="255.5" >[u..</text>
</g>
<g >
<title>__memcpy_avx_unaligned_erms (203,238 samples, 6.02%)</title><rect x="411.9" y="325" width="59.0" height="15.0" fill="rgb(246,190,45)" rx="2" ry="2" />
<text  x="414.94" y="335.5" >__memc..</text>
</g>
<g >
<title>[libze_intel_gpu.so.1.6.34666.3] (110,574 samples, 3.27%)</title><rect x="212.3" y="469" width="32.1" height="15.0" fill="rgb(212,34,8)" rx="2" ry="2" />
<text  x="215.35" y="479.5" >[l..</text>
</g>
<g >
<title>__futex_abstimed_wait_common (249,998 samples, 7.40%)</title><rect x="572.8" y="421" width="72.5" height="15.0" fill="rgb(205,0,0)" rx="2" ry="2" />
<text  x="575.79" y="431.5" >__futex_..</text>
</g>
<g >
<title>[unknown] (110,574 samples, 3.27%)</title><rect x="212.3" y="197" width="32.1" height="15.0" fill="rgb(210,24,5)" rx="2" ry="2" />
<text  x="215.35" y="207.5" >[u..</text>
</g>
<g >
<title>[unknown] (124,999 samples, 3.70%)</title><rect x="536.5" y="117" width="36.3" height="15.0" fill="rgb(210,24,5)" rx="2" ry="2" />
<text  x="539.52" y="127.5" >[un..</text>
</g>
<g >
<title>[libze_intel_gpu.so.1.6.34666.3] (189,640 samples, 5.62%)</title><rect x="10.0" y="501" width="55.0" height="15.0" fill="rgb(212,34,8)" rx="2" ry="2" />
<text  x="13.00" y="511.5" >[libz..</text>
</g>
<g >
<title>_dl_sysdep_start (194,296 samples, 5.75%)</title><rect x="244.4" y="485" width="56.4" height="15.0" fill="rgb(234,137,32)" rx="2" ry="2" />
<text  x="247.44" y="495.5" >_dl_s..</text>
</g>
</g>
</svg>
