<?xml version="1.0" standalone="no"?>
<!DOCTYPE svg PUBLIC "-//W3C//DTD SVG 1.1//EN" "http://www.w3.org/Graphics/SVG/1.1/DTD/svg11.dtd">
<svg version="1.1" width="1000" height="550" onload="init(evt)" viewBox="0 0 1000 550" xmlns="http://www.w3.org/2000/svg" xmlns:xlink="http://www.w3.org/1999/xlink">
<!-- Flame graph stack visualization. See https://github.com/brendangregg/FlameGraph for latest version, and http://www.brendangregg.com/flamegraphs.html for examples. -->
<!-- NOTES:  -->
<defs>
	<linearGradient id="background" y1="0" y2="1" x1="0" x2="0" >
		<stop stop-color="#eeeeee" offset="5%" />
		<stop stop-color="#eeeeb0" offset="95%" />
	</linearGradient>
</defs>
<style type="text/css">
	text { font-family:Verdana; font-size:12px; fill:rgb(0,0,0); }
	#search, #ignorecase { opacity:0.1; cursor:pointer; }
	#search:hover, #search.show, #ignorecase:hover, #ignorecase.show { opacity:1; }
	#subtitle { text-anchor:middle; font-color:rgb(160,160,160); }
	#title { text-anchor:middle; font-size:17px}
	#unzoom { cursor:pointer; }
	#frames > *:hover { stroke:black; stroke-width:0.5; cursor:pointer; }
	.hide { display:none; }
	.parent { opacity:0.5; }
</style>
<script type="text/ecmascript">
<![CDATA[
	"use strict";
	var details, searchbtn, unzoombtn, matchedtxt, svg, searching, currentSearchTerm, ignorecase, ignorecaseBtn;
	function init(evt) {
		details = document.getElementById("details").firstChild;
		searchbtn = document.getElementById("search");
		ignorecaseBtn = document.getElementById("ignorecase");
		unzoombtn = document.getElementById("unzoom");
		matchedtxt = document.getElementById("matched");
		svg = document.getElementsByTagName("svg")[0];
		searching = 0;
		currentSearchTerm = null;

		// use GET parameters to restore a flamegraphs state.
		var params = get_params();
		if (params.x && params.y)
			zoom(find_group(document.querySelector('[x="' + params.x + '"][y="' + params.y + '"]')));
                if (params.s) search(params.s);
	}

	// event listeners
	window.addEventListener("click", function(e) {
		var target = find_group(e.target);
		if (target) {
			if (target.nodeName == "a") {
				if (e.ctrlKey === false) return;
				e.preventDefault();
			}
			if (target.classList.contains("parent")) unzoom(true);
			zoom(target);
			if (!document.querySelector('.parent')) {
				// we have basically done a clearzoom so clear the url
				var params = get_params();
				if (params.x) delete params.x;
				if (params.y) delete params.y;
				history.replaceState(null, null, parse_params(params));
				unzoombtn.classList.add("hide");
				return;
			}

			// set parameters for zoom state
			var el = target.querySelector("rect");
			if (el && el.attributes && el.attributes.y && el.attributes._orig_x) {
				var params = get_params()
				params.x = el.attributes._orig_x.value;
				params.y = el.attributes.y.value;
				history.replaceState(null, null, parse_params(params));
			}
		}
		else if (e.target.id == "unzoom") clearzoom();
		else if (e.target.id == "search") search_prompt();
		else if (e.target.id == "ignorecase") toggle_ignorecase();
	}, false)

	// mouse-over for info
	// show
	window.addEventListener("mouseover", function(e) {
		var target = find_group(e.target);
		if (target) details.nodeValue = "Function: " + g_to_text(target);
	}, false)

	// clear
	window.addEventListener("mouseout", function(e) {
		var target = find_group(e.target);
		if (target) details.nodeValue = ' ';
	}, false)

	// ctrl-F for search
	// ctrl-I to toggle case-sensitive search
	window.addEventListener("keydown",function (e) {
		if (e.keyCode === 114 || (e.ctrlKey && e.keyCode === 70)) {
			e.preventDefault();
			search_prompt();
		}
		else if (e.ctrlKey && e.keyCode === 73) {
			e.preventDefault();
			toggle_ignorecase();
		}
	}, false)

	// functions
	function get_params() {
		var params = {};
		var paramsarr = window.location.search.substr(1).split('&');
		for (var i = 0; i < paramsarr.length; ++i) {
			var tmp = paramsarr[i].split("=");
			if (!tmp[0] || !tmp[1]) continue;
			params[tmp[0]]  = decodeURIComponent(tmp[1]);
		}
		return params;
	}
	function parse_params(params) {
		var uri = "?";
		for (var key in params) {
			uri += key + '=' + encodeURIComponent(params[key]) + '&';
		}
		if (uri.slice(-1) == "&")
			uri = uri.substring(0, uri.length - 1);
		if (uri == '?')
			uri = window.location.href.split('?')[0];
		return uri;
	}
	function find_child(node, selector) {
		var children = node.querySelectorAll(selector);
		if (children.length) return children[0];
	}
	function find_group(node) {
		var parent = node.parentElement;
		if (!parent) return;
		if (parent.id == "frames") return node;
		return find_group(parent);
	}
	function orig_save(e, attr, val) {
		if (e.attributes["_orig_" + attr] != undefined) return;
		if (e.attributes[attr] == undefined) return;
		if (val == undefined) val = e.attributes[attr].value;
		e.setAttribute("_orig_" + attr, val);
	}
	function orig_load(e, attr) {
		if (e.attributes["_orig_"+attr] == undefined) return;
		e.attributes[attr].value = e.attributes["_orig_" + attr].value;
		e.removeAttribute("_orig_"+attr);
	}
	function g_to_text(e) {
		var text = find_child(e, "title").firstChild.nodeValue;
		return (text)
	}
	function g_to_func(e) {
		var func = g_to_text(e);
		// if there's any manipulation we want to do to the function
		// name before it's searched, do it here before returning.
		return (func);
	}
	function update_text(e) {
		var r = find_child(e, "rect");
		var t = find_child(e, "text");
		var w = parseFloat(r.attributes.width.value) -3;
		var txt = find_child(e, "title").textContent.replace(/\([^(]*\)$/,"");
		t.attributes.x.value = parseFloat(r.attributes.x.value) + 3;

		// Smaller than this size won't fit anything
		if (w < 2 * 12 * 0.59) {
			t.textContent = "";
			return;
		}

		t.textContent = txt;
		var sl = t.getSubStringLength(0, txt.length);
		// check if only whitespace or if we can fit the entire string into width w
		if (/^ *$/.test(txt) || sl < w)
			return;

		// this isn't perfect, but gives a good starting point
		// and avoids calling getSubStringLength too often
		var start = Math.floor((w/sl) * txt.length);
		for (var x = start; x > 0; x = x-2) {
			if (t.getSubStringLength(0, x + 2) <= w) {
				t.textContent = txt.substring(0, x) + "..";
				return;
			}
		}
		t.textContent = "";
	}

	// zoom
	function zoom_reset(e) {
		if (e.attributes != undefined) {
			orig_load(e, "x");
			orig_load(e, "width");
		}
		if (e.childNodes == undefined) return;
		for (var i = 0, c = e.childNodes; i < c.length; i++) {
			zoom_reset(c[i]);
		}
	}
	function zoom_child(e, x, ratio) {
		if (e.attributes != undefined) {
			if (e.attributes.x != undefined) {
				orig_save(e, "x");
				e.attributes.x.value = (parseFloat(e.attributes.x.value) - x - 10) * ratio + 10;
				if (e.tagName == "text")
					e.attributes.x.value = find_child(e.parentNode, "rect[x]").attributes.x.value + 3;
			}
			if (e.attributes.width != undefined) {
				orig_save(e, "width");
				e.attributes.width.value = parseFloat(e.attributes.width.value) * ratio;
			}
		}

		if (e.childNodes == undefined) return;
		for (var i = 0, c = e.childNodes; i < c.length; i++) {
			zoom_child(c[i], x - 10, ratio);
		}
	}
	function zoom_parent(e) {
		if (e.attributes) {
			if (e.attributes.x != undefined) {
				orig_save(e, "x");
				e.attributes.x.value = 10;
			}
			if (e.attributes.width != undefined) {
				orig_save(e, "width");
				e.attributes.width.value = parseInt(svg.width.baseVal.value) - (10 * 2);
			}
		}
		if (e.childNodes == undefined) return;
		for (var i = 0, c = e.childNodes; i < c.length; i++) {
			zoom_parent(c[i]);
		}
	}
	function zoom(node) {
		var attr = find_child(node, "rect").attributes;
		var width = parseFloat(attr.width.value);
		var xmin = parseFloat(attr.x.value);
		var xmax = parseFloat(xmin + width);
		var ymin = parseFloat(attr.y.value);
		var ratio = (svg.width.baseVal.value - 2 * 10) / width;

		// XXX: Workaround for JavaScript float issues (fix me)
		var fudge = 0.0001;

		unzoombtn.classList.remove("hide");

		var el = document.getElementById("frames").children;
		for (var i = 0; i < el.length; i++) {
			var e = el[i];
			var a = find_child(e, "rect").attributes;
			var ex = parseFloat(a.x.value);
			var ew = parseFloat(a.width.value);
			var upstack;
			// Is it an ancestor
			if (0 == 0) {
				upstack = parseFloat(a.y.value) > ymin;
			} else {
				upstack = parseFloat(a.y.value) < ymin;
			}
			if (upstack) {
				// Direct ancestor
				if (ex <= xmin && (ex+ew+fudge) >= xmax) {
					e.classList.add("parent");
					zoom_parent(e);
					update_text(e);
				}
				// not in current path
				else
					e.classList.add("hide");
			}
			// Children maybe
			else {
				// no common path
				if (ex < xmin || ex + fudge >= xmax) {
					e.classList.add("hide");
				}
				else {
					zoom_child(e, xmin, ratio);
					update_text(e);
				}
			}
		}
		search();
	}
	function unzoom(dont_update_text) {
		unzoombtn.classList.add("hide");
		var el = document.getElementById("frames").children;
		for(var i = 0; i < el.length; i++) {
			el[i].classList.remove("parent");
			el[i].classList.remove("hide");
			zoom_reset(el[i]);
			if(!dont_update_text) update_text(el[i]);
		}
		search();
	}
	function clearzoom() {
		unzoom();

		// remove zoom state
		var params = get_params();
		if (params.x) delete params.x;
		if (params.y) delete params.y;
		history.replaceState(null, null, parse_params(params));
	}

	// search
	function toggle_ignorecase() {
		ignorecase = !ignorecase;
		if (ignorecase) {
			ignorecaseBtn.classList.add("show");
		} else {
			ignorecaseBtn.classList.remove("show");
		}
		reset_search();
		search();
	}
	function reset_search() {
		var el = document.querySelectorAll("#frames rect");
		for (var i = 0; i < el.length; i++) {
			orig_load(el[i], "fill")
		}
		var params = get_params();
		delete params.s;
		history.replaceState(null, null, parse_params(params));
	}
	function search_prompt() {
		if (!searching) {
			var term = prompt("Enter a search term (regexp " +
			    "allowed, eg: ^ext4_)"
			    + (ignorecase ? ", ignoring case" : "")
			    + "\nPress Ctrl-i to toggle case sensitivity", "");
			if (term != null) search(term);
		} else {
			reset_search();
			searching = 0;
			currentSearchTerm = null;
			searchbtn.classList.remove("show");
			searchbtn.firstChild.nodeValue = "Search"
			matchedtxt.classList.add("hide");
			matchedtxt.firstChild.nodeValue = ""
		}
	}
	function search(term) {
		if (term) currentSearchTerm = term;
		if (currentSearchTerm === null) return;

		var re = new RegExp(currentSearchTerm, ignorecase ? 'i' : '');
		var el = document.getElementById("frames").children;
		var matches = new Object();
		var maxwidth = 0;
		for (var i = 0; i < el.length; i++) {
			var e = el[i];
			var func = g_to_func(e);
			var rect = find_child(e, "rect");
			if (func == null || rect == null)
				continue;

			// Save max width. Only works as we have a root frame
			var w = parseFloat(rect.attributes.width.value);
			if (w > maxwidth)
				maxwidth = w;

			if (func.match(re)) {
				// highlight
				var x = parseFloat(rect.attributes.x.value);
				orig_save(rect, "fill");
				rect.attributes.fill.value = "rgb(230,0,230)";

				// remember matches
				if (matches[x] == undefined) {
					matches[x] = w;
				} else {
					if (w > matches[x]) {
						// overwrite with parent
						matches[x] = w;
					}
				}
				searching = 1;
			}
		}
		if (!searching)
			return;
		var params = get_params();
		params.s = currentSearchTerm;
		history.replaceState(null, null, parse_params(params));

		searchbtn.classList.add("show");
		searchbtn.firstChild.nodeValue = "Reset Search";

		// calculate percent matched, excluding vertical overlap
		var count = 0;
		var lastx = -1;
		var lastw = 0;
		var keys = Array();
		for (k in matches) {
			if (matches.hasOwnProperty(k))
				keys.push(k);
		}
		// sort the matched frames by their x location
		// ascending, then width descending
		keys.sort(function(a, b){
			return a - b;
		});
		// Step through frames saving only the biggest bottom-up frames
		// thanks to the sort order. This relies on the tree property
		// where children are always smaller than their parents.
		var fudge = 0.0001;	// JavaScript floating point
		for (var k in keys) {
			var x = parseFloat(keys[k]);
			var w = matches[keys[k]];
			if (x >= lastx + lastw - fudge) {
				count += w;
				lastx = x;
				lastw = w;
			}
		}
		// display matched percent
		matchedtxt.classList.remove("hide");
		var pct = 100 * count / maxwidth;
		if (pct != 100) pct = pct.toFixed(1)
		matchedtxt.firstChild.nodeValue = "Matched: " + pct + "%";
	}
]]>
</script>
<rect x="0.0" y="0" width="1000.0" height="550.0" fill="url(#background)"  />
<text id="title" x="500.00" y="24" >TestFG_BMG_L0 - api_overhead_benchmark_syclpreview SubmitKernel in order not using events</text>
<text id="details" x="10.00" y="533" > </text>
<text id="unzoom" x="10.00" y="24" class="hide">Reset Zoom</text>
<text id="search" x="890.00" y="24" >Search</text>
<text id="ignorecase" x="974.00" y="24" >ic</text>
<text id="matched" x="890.00" y="533" > </text>
<g id="frames">
<g >
<title>[unknown] (199,998 samples, 7.97%)</title><rect x="10.0" y="293" width="78.1" height="15.0" fill="rgb(210,24,5)" rx="2" ry="2" />
<text  x="13.00" y="303.5" >[unknown]</text>
</g>
<g >
<title>[unknown] (165,342 samples, 6.59%)</title><rect x="88.1" y="405" width="64.5" height="15.0" fill="rgb(210,24,5)" rx="2" ry="2" />
<text  x="91.07" y="415.5" >[unknown]</text>
</g>
<g >
<title>__mmap64 (847,817 samples, 33.77%)</title><rect x="262.0" y="277" width="330.9" height="15.0" fill="rgb(243,175,41)" rx="2" ry="2" />
<text  x="264.99" y="287.5" >__mmap64</text>
</g>
<g >
<title>[unknown] (199,998 samples, 7.97%)</title><rect x="10.0" y="469" width="78.1" height="15.0" fill="rgb(210,24,5)" rx="2" ry="2" />
<text  x="13.00" y="479.5" >[unknown]</text>
</g>
<g >
<title>[unknown] (847,817 samples, 33.77%)</title><rect x="262.0" y="213" width="330.9" height="15.0" fill="rgb(210,24,5)" rx="2" ry="2" />
<text  x="264.99" y="223.5" >[unknown]</text>
</g>
<g >
<title>[unknown] (511,753 samples, 20.38%)</title><rect x="790.2" y="165" width="199.8" height="15.0" fill="rgb(210,24,5)" rx="2" ry="2" />
<text  x="793.23" y="175.5" >[unknown]</text>
</g>
<g >
<title>[unknown] (847,817 samples, 33.77%)</title><rect x="262.0" y="165" width="330.9" height="15.0" fill="rgb(210,24,5)" rx="2" ry="2" />
<text  x="264.99" y="175.5" >[unknown]</text>
</g>
<g >
<title>[unknown] (165,342 samples, 6.59%)</title><rect x="88.1" y="309" width="64.5" height="15.0" fill="rgb(210,24,5)" rx="2" ry="2" />
<text  x="91.07" y="319.5" >[unknown]</text>
</g>
<g >
<title>[unknown] (199,998 samples, 7.97%)</title><rect x="10.0" y="197" width="78.1" height="15.0" fill="rgb(210,24,5)" rx="2" ry="2" />
<text  x="13.00" y="207.5" >[unknown]</text>
</g>
<g >
<title>[unknown] (199,998 samples, 7.97%)</title><rect x="10.0" y="229" width="78.1" height="15.0" fill="rgb(210,24,5)" rx="2" ry="2" />
<text  x="13.00" y="239.5" >[unknown]</text>
</g>
<g >
<title>[unknown] (199,998 samples, 7.97%)</title><rect x="10.0" y="341" width="78.1" height="15.0" fill="rgb(210,24,5)" rx="2" ry="2" />
<text  x="13.00" y="351.5" >[unknown]</text>
</g>
<g >
<title>[unknown] (505,431 samples, 20.13%)</title><rect x="592.9" y="117" width="197.3" height="15.0" fill="rgb(210,24,5)" rx="2" ry="2" />
<text  x="595.94" y="127.5" >[unknown]</text>
</g>
<g >
<title>[unknown] (847,817 samples, 33.77%)</title><rect x="262.0" y="245" width="330.9" height="15.0" fill="rgb(210,24,5)" rx="2" ry="2" />
<text  x="264.99" y="255.5" >[unknown]</text>
</g>
<g >
<title>[unknown] (847,817 samples, 33.77%)</title><rect x="262.0" y="101" width="330.9" height="15.0" fill="rgb(210,24,5)" rx="2" ry="2" />
<text  x="264.99" y="111.5" >[unknown]</text>
</g>
<g >
<title>[unknown] (199,998 samples, 7.97%)</title><rect x="10.0" y="373" width="78.1" height="15.0" fill="rgb(210,24,5)" rx="2" ry="2" />
<text  x="13.00" y="383.5" >[unknown]</text>
</g>
<g >
<title>[libze_intel_gpu.so.1.6.34666.3] (511,753 samples, 20.38%)</title><rect x="790.2" y="421" width="199.8" height="15.0" fill="rgb(212,34,8)" rx="2" ry="2" />
<text  x="793.23" y="431.5" >[libze_intel_gpu.so.1.6.34..</text>
</g>
<g >
<title>[unknown] (165,342 samples, 6.59%)</title><rect x="88.1" y="389" width="64.5" height="15.0" fill="rgb(210,24,5)" rx="2" ry="2" />
<text  x="91.07" y="399.5" >[unknown]</text>
</g>
<g >
<title>[unknown] (511,753 samples, 20.38%)</title><rect x="790.2" y="101" width="199.8" height="15.0" fill="rgb(210,24,5)" rx="2" ry="2" />
<text  x="793.23" y="111.5" >[unknown]</text>
</g>
<g >
<title>__GI__dl_catch_exception (1,353,248 samples, 53.90%)</title><rect x="262.0" y="373" width="528.2" height="15.0" fill="rgb(232,125,30)" rx="2" ry="2" />
<text  x="264.99" y="383.5" >__GI__dl_catch_exception</text>
</g>
<g >
<title>open_verify (505,431 samples, 20.13%)</title><rect x="592.9" y="325" width="197.3" height="15.0" fill="rgb(226,97,23)" rx="2" ry="2" />
<text  x="595.94" y="335.5" >open_verify</text>
</g>
<g >
<title>_dl_map_object_from_fd (847,817 samples, 33.77%)</title><rect x="262.0" y="325" width="330.9" height="15.0" fill="rgb(249,205,49)" rx="2" ry="2" />
<text  x="264.99" y="335.5" >_dl_map_object_from_fd</text>
</g>
<g >
<title>_dl_setup_hash (165,342 samples, 6.59%)</title><rect x="88.1" y="421" width="64.5" height="15.0" fill="rgb(241,168,40)" rx="2" ry="2" />
<text  x="91.07" y="431.5" >_dl_set..</text>
</g>
<g >
<title>[unknown] (280,196 samples, 11.16%)</title><rect x="152.6" y="309" width="109.4" height="15.0" fill="rgb(210,24,5)" rx="2" ry="2" />
<text  x="155.61" y="319.5" >[unknown]</text>
</g>
<g >
<title>[unknown] (505,431 samples, 20.13%)</title><rect x="592.9" y="261" width="197.3" height="15.0" fill="rgb(210,24,5)" rx="2" ry="2" />
<text  x="595.94" y="271.5" >[unknown]</text>
</g>
<g >
<title>api_overhead_be (2,510,537 samples, 100.00%)</title><rect x="10.0" y="485" width="980.0" height="15.0" fill="rgb(207,10,2)" rx="2" ry="2" />
<text  x="13.00" y="495.5" >api_overhead_be</text>
</g>
<g >
<title>[libstdc++.so.6.0.33] (511,753 samples, 20.38%)</title><rect x="790.2" y="437" width="199.8" height="15.0" fill="rgb(216,51,12)" rx="2" ry="2" />
<text  x="793.23" y="447.5" >[libstdc++.so.6.0.33]</text>
</g>
<g >
<title>[unknown] (511,753 samples, 20.38%)</title><rect x="790.2" y="133" width="199.8" height="15.0" fill="rgb(210,24,5)" rx="2" ry="2" />
<text  x="793.23" y="143.5" >[unknown]</text>
</g>
<g >
<title>sysmalloc (511,753 samples, 20.38%)</title><rect x="790.2" y="213" width="199.8" height="15.0" fill="rgb(213,38,9)" rx="2" ry="2" />
<text  x="793.23" y="223.5" >sysmalloc</text>
</g>
<g >
<title>__GI___open64_nocancel (505,431 samples, 20.13%)</title><rect x="592.9" y="309" width="197.3" height="15.0" fill="rgb(218,63,15)" rx="2" ry="2" />
<text  x="595.94" y="319.5" >__GI___open64_nocancel</text>
</g>
<g >
<title>[unknown] (505,431 samples, 20.13%)</title><rect x="592.9" y="197" width="197.3" height="15.0" fill="rgb(210,24,5)" rx="2" ry="2" />
<text  x="595.94" y="207.5" >[unknown]</text>
</g>
<g >
<title>[unknown] (199,998 samples, 7.97%)</title><rect x="10.0" y="437" width="78.1" height="15.0" fill="rgb(210,24,5)" rx="2" ry="2" />
<text  x="13.00" y="447.5" >[unknown]</text>
</g>
<g >
<title>_dl_sysdep_start (1,633,444 samples, 65.06%)</title><rect x="152.6" y="421" width="637.6" height="15.0" fill="rgb(234,137,32)" rx="2" ry="2" />
<text  x="155.61" y="431.5" >_dl_sysdep_start</text>
</g>
<g >
<title>[unknown] (847,817 samples, 33.77%)</title><rect x="262.0" y="133" width="330.9" height="15.0" fill="rgb(210,24,5)" rx="2" ry="2" />
<text  x="264.99" y="143.5" >[unknown]</text>
</g>
<g >
<title>[unknown] (280,196 samples, 11.16%)</title><rect x="152.6" y="277" width="109.4" height="15.0" fill="rgb(210,24,5)" rx="2" ry="2" />
<text  x="155.61" y="287.5" >[unknown]</text>
</g>
<g >
<title>_dl_start (1,798,786 samples, 71.65%)</title><rect x="88.1" y="453" width="702.1" height="15.0" fill="rgb(237,151,36)" rx="2" ry="2" />
<text  x="91.07" y="463.5" >_dl_start</text>
</g>
<g >
<title>[unknown] (505,431 samples, 20.13%)</title><rect x="592.9" y="229" width="197.3" height="15.0" fill="rgb(210,24,5)" rx="2" ry="2" />
<text  x="595.94" y="239.5" >[unknown]</text>
</g>
<g >
<title>[libze_intel_gpu.so.1.6.34666.3] (511,753 samples, 20.38%)</title><rect x="790.2" y="277" width="199.8" height="15.0" fill="rgb(212,34,8)" rx="2" ry="2" />
<text  x="793.23" y="287.5" >[libze_intel_gpu.so.1.6.34..</text>
</g>
<g >
<title>[unknown] (505,431 samples, 20.13%)</title><rect x="592.9" y="293" width="197.3" height="15.0" fill="rgb(210,24,5)" rx="2" ry="2" />
<text  x="595.94" y="303.5" >[unknown]</text>
</g>
<g >
<title>[unknown] (280,196 samples, 11.16%)</title><rect x="152.6" y="245" width="109.4" height="15.0" fill="rgb(210,24,5)" rx="2" ry="2" />
<text  x="155.61" y="255.5" >[unknown]</text>
</g>
<g >
<title>[unknown] (505,431 samples, 20.13%)</title><rect x="592.9" y="149" width="197.3" height="15.0" fill="rgb(210,24,5)" rx="2" ry="2" />
<text  x="595.94" y="159.5" >[unknown]</text>
</g>
<g >
<title>[unknown] (199,998 samples, 7.97%)</title><rect x="10.0" y="325" width="78.1" height="15.0" fill="rgb(210,24,5)" rx="2" ry="2" />
<text  x="13.00" y="335.5" >[unknown]</text>
</g>
<g >
<title>[unknown] (847,817 samples, 33.77%)</title><rect x="262.0" y="69" width="330.9" height="15.0" fill="rgb(210,24,5)" rx="2" ry="2" />
<text  x="264.99" y="79.5" >[unknown]</text>
</g>
<g >
<title>[unknown] (847,817 samples, 33.77%)</title><rect x="262.0" y="181" width="330.9" height="15.0" fill="rgb(210,24,5)" rx="2" ry="2" />
<text  x="264.99" y="191.5" >[unknown]</text>
</g>
<g >
<title>grow_heap (511,753 samples, 20.38%)</title><rect x="790.2" y="197" width="199.8" height="15.0" fill="rgb(237,151,36)" rx="2" ry="2" />
<text  x="793.23" y="207.5" >grow_heap</text>
</g>
<g >
<title>[unknown] (511,753 samples, 20.38%)</title><rect x="790.2" y="37" width="199.8" height="15.0" fill="rgb(210,24,5)" rx="2" ry="2" />
<text  x="793.23" y="47.5" >[unknown]</text>
</g>
<g >
<title>[libze_intel_gpu.so.1.6.34666.3] (511,753 samples, 20.38%)</title><rect x="790.2" y="341" width="199.8" height="15.0" fill="rgb(212,34,8)" rx="2" ry="2" />
<text  x="793.23" y="351.5" >[libze_intel_gpu.so.1.6.34..</text>
</g>
<g >
<title>[unknown] (511,753 samples, 20.38%)</title><rect x="790.2" y="69" width="199.8" height="15.0" fill="rgb(210,24,5)" rx="2" ry="2" />
<text  x="793.23" y="79.5" >[unknown]</text>
</g>
<g >
<title>[unknown] (165,342 samples, 6.59%)</title><rect x="88.1" y="357" width="64.5" height="15.0" fill="rgb(210,24,5)" rx="2" ry="2" />
<text  x="91.07" y="367.5" >[unknown]</text>
</g>
<g >
<title>all (2,510,537 samples, 100%)</title><rect x="10.0" y="501" width="980.0" height="15.0" fill="rgb(213,39,9)" rx="2" ry="2" />
<text  x="13.00" y="511.5" ></text>
</g>
<g >
<title>[unknown] (280,196 samples, 11.16%)</title><rect x="152.6" y="213" width="109.4" height="15.0" fill="rgb(210,24,5)" rx="2" ry="2" />
<text  x="155.61" y="223.5" >[unknown]</text>
</g>
<g >
<title>clone3 (511,753 samples, 20.38%)</title><rect x="790.2" y="469" width="199.8" height="15.0" fill="rgb(216,54,12)" rx="2" ry="2" />
<text  x="793.23" y="479.5" >clone3</text>
</g>
<g >
<title>__access (280,196 samples, 11.16%)</title><rect x="152.6" y="389" width="109.4" height="15.0" fill="rgb(242,171,41)" rx="2" ry="2" />
<text  x="155.61" y="399.5" >__access</text>
</g>
<g >
<title>[unknown] (165,342 samples, 6.59%)</title><rect x="88.1" y="277" width="64.5" height="15.0" fill="rgb(210,24,5)" rx="2" ry="2" />
<text  x="91.07" y="287.5" >[unknown]</text>
</g>
<g >
<title>[unknown] (199,998 samples, 7.97%)</title><rect x="10.0" y="261" width="78.1" height="15.0" fill="rgb(210,24,5)" rx="2" ry="2" />
<text  x="13.00" y="271.5" >[unknown]</text>
</g>
<g >
<title>[libze_intel_gpu.so.1.6.34666.3] (511,753 samples, 20.38%)</title><rect x="790.2" y="373" width="199.8" height="15.0" fill="rgb(212,34,8)" rx="2" ry="2" />
<text  x="793.23" y="383.5" >[libze_intel_gpu.so.1.6.34..</text>
</g>
<g >
<title>[libze_intel_gpu.so.1.6.34666.3] (511,753 samples, 20.38%)</title><rect x="790.2" y="325" width="199.8" height="15.0" fill="rgb(212,34,8)" rx="2" ry="2" />
<text  x="793.23" y="335.5" >[libze_intel_gpu.so.1.6.34..</text>
</g>
<g >
<title>[unknown] (165,342 samples, 6.59%)</title><rect x="88.1" y="245" width="64.5" height="15.0" fill="rgb(210,24,5)" rx="2" ry="2" />
<text  x="91.07" y="255.5" >[unknown]</text>
</g>
<g >
<title>[unknown] (280,196 samples, 11.16%)</title><rect x="152.6" y="357" width="109.4" height="15.0" fill="rgb(210,24,5)" rx="2" ry="2" />
<text  x="155.61" y="367.5" >[unknown]</text>
</g>
<g >
<title>[unknown] (511,753 samples, 20.38%)</title><rect x="790.2" y="53" width="199.8" height="15.0" fill="rgb(210,24,5)" rx="2" ry="2" />
<text  x="793.23" y="63.5" >[unknown]</text>
</g>
<g >
<title>[libze_intel_gpu.so.1.6.34666.3] (511,753 samples, 20.38%)</title><rect x="790.2" y="309" width="199.8" height="15.0" fill="rgb(212,34,8)" rx="2" ry="2" />
<text  x="793.23" y="319.5" >[libze_intel_gpu.so.1.6.34..</text>
</g>
<g >
<title>[unknown] (165,342 samples, 6.59%)</title><rect x="88.1" y="293" width="64.5" height="15.0" fill="rgb(210,24,5)" rx="2" ry="2" />
<text  x="91.07" y="303.5" >[unknown]</text>
</g>
<g >
<title>[unknown] (199,998 samples, 7.97%)</title><rect x="10.0" y="181" width="78.1" height="15.0" fill="rgb(210,24,5)" rx="2" ry="2" />
<text  x="13.00" y="191.5" >[unknown]</text>
</g>
<g >
<title>[unknown] (847,817 samples, 33.77%)</title><rect x="262.0" y="53" width="330.9" height="15.0" fill="rgb(210,24,5)" rx="2" ry="2" />
<text  x="264.99" y="63.5" >[unknown]</text>
</g>
<g >
<title>_int_malloc (511,753 samples, 20.38%)</title><rect x="790.2" y="229" width="199.8" height="15.0" fill="rgb(215,47,11)" rx="2" ry="2" />
<text  x="793.23" y="239.5" >_int_malloc</text>
</g>
<g >
<title>[unknown] (505,431 samples, 20.13%)</title><rect x="592.9" y="213" width="197.3" height="15.0" fill="rgb(210,24,5)" rx="2" ry="2" />
<text  x="595.94" y="223.5" >[unknown]</text>
</g>
<g >
<title>openaux (1,353,248 samples, 53.90%)</title><rect x="262.0" y="357" width="528.2" height="15.0" fill="rgb(252,217,52)" rx="2" ry="2" />
<text  x="264.99" y="367.5" >openaux</text>
</g>
<g >
<title>[unknown] (199,998 samples, 7.97%)</title><rect x="10.0" y="405" width="78.1" height="15.0" fill="rgb(210,24,5)" rx="2" ry="2" />
<text  x="13.00" y="415.5" >[unknown]</text>
</g>
<g >
<title>start_thread (511,753 samples, 20.38%)</title><rect x="790.2" y="453" width="199.8" height="15.0" fill="rgb(212,34,8)" rx="2" ry="2" />
<text  x="793.23" y="463.5" >start_thread</text>
</g>
<g >
<title>[unknown] (199,998 samples, 7.97%)</title><rect x="10.0" y="309" width="78.1" height="15.0" fill="rgb(210,24,5)" rx="2" ry="2" />
<text  x="13.00" y="319.5" >[unknown]</text>
</g>
<g >
<title>[unknown] (505,431 samples, 20.13%)</title><rect x="592.9" y="165" width="197.3" height="15.0" fill="rgb(210,24,5)" rx="2" ry="2" />
<text  x="595.94" y="175.5" >[unknown]</text>
</g>
<g >
<title>[unknown] (280,196 samples, 11.16%)</title><rect x="152.6" y="373" width="109.4" height="15.0" fill="rgb(210,24,5)" rx="2" ry="2" />
<text  x="155.61" y="383.5" >[unknown]</text>
</g>
<g >
<title>[unknown] (165,342 samples, 6.59%)</title><rect x="88.1" y="341" width="64.5" height="15.0" fill="rgb(210,24,5)" rx="2" ry="2" />
<text  x="91.07" y="351.5" >[unknown]</text>
</g>
<g >
<title>dl_main (1,633,444 samples, 65.06%)</title><rect x="152.6" y="405" width="637.6" height="15.0" fill="rgb(236,145,34)" rx="2" ry="2" />
<text  x="155.61" y="415.5" >dl_main</text>
</g>
<g >
<title>[unknown] (847,817 samples, 33.77%)</title><rect x="262.0" y="117" width="330.9" height="15.0" fill="rgb(210,24,5)" rx="2" ry="2" />
<text  x="264.99" y="127.5" >[unknown]</text>
</g>
<g >
<title>[unknown] (505,431 samples, 20.13%)</title><rect x="592.9" y="245" width="197.3" height="15.0" fill="rgb(210,24,5)" rx="2" ry="2" />
<text  x="595.94" y="255.5" >[unknown]</text>
</g>
<g >
<title>[unknown] (280,196 samples, 11.16%)</title><rect x="152.6" y="293" width="109.4" height="15.0" fill="rgb(210,24,5)" rx="2" ry="2" />
<text  x="155.61" y="303.5" >[unknown]</text>
</g>
<g >
<title>[unknown] (511,753 samples, 20.38%)</title><rect x="790.2" y="117" width="199.8" height="15.0" fill="rgb(210,24,5)" rx="2" ry="2" />
<text  x="793.23" y="127.5" >[unknown]</text>
</g>
<g >
<title>[unknown] (199,998 samples, 7.97%)</title><rect x="10.0" y="453" width="78.1" height="15.0" fill="rgb(210,24,5)" rx="2" ry="2" />
<text  x="13.00" y="463.5" >[unknown]</text>
</g>
<g >
<title>[libze_intel_gpu.so.1.6.34666.3] (511,753 samples, 20.38%)</title><rect x="790.2" y="357" width="199.8" height="15.0" fill="rgb(212,34,8)" rx="2" ry="2" />
<text  x="793.23" y="367.5" >[libze_intel_gpu.so.1.6.34..</text>
</g>
<g >
<title>[unknown] (511,753 samples, 20.38%)</title><rect x="790.2" y="85" width="199.8" height="15.0" fill="rgb(210,24,5)" rx="2" ry="2" />
<text  x="793.23" y="95.5" >[unknown]</text>
</g>
<g >
<title>[unknown] (505,431 samples, 20.13%)</title><rect x="592.9" y="277" width="197.3" height="15.0" fill="rgb(210,24,5)" rx="2" ry="2" />
<text  x="595.94" y="287.5" >[unknown]</text>
</g>
<g >
<title>[unknown] (280,196 samples, 11.16%)</title><rect x="152.6" y="341" width="109.4" height="15.0" fill="rgb(210,24,5)" rx="2" ry="2" />
<text  x="155.61" y="351.5" >[unknown]</text>
</g>
<g >
<title>[unknown] (165,342 samples, 6.59%)</title><rect x="88.1" y="373" width="64.5" height="15.0" fill="rgb(210,24,5)" rx="2" ry="2" />
<text  x="91.07" y="383.5" >[unknown]</text>
</g>
<g >
<title>[unknown] (280,196 samples, 11.16%)</title><rect x="152.6" y="229" width="109.4" height="15.0" fill="rgb(210,24,5)" rx="2" ry="2" />
<text  x="155.61" y="239.5" >[unknown]</text>
</g>
<g >
<title>_dl_map_object (1,353,248 samples, 53.90%)</title><rect x="262.0" y="341" width="528.2" height="15.0" fill="rgb(248,199,47)" rx="2" ry="2" />
<text  x="264.99" y="351.5" >_dl_map_object</text>
</g>
<g >
<title>[unknown] (280,196 samples, 11.16%)</title><rect x="152.6" y="197" width="109.4" height="15.0" fill="rgb(210,24,5)" rx="2" ry="2" />
<text  x="155.61" y="207.5" >[unknown]</text>
</g>
<g >
<title>[unknown] (199,998 samples, 7.97%)</title><rect x="10.0" y="389" width="78.1" height="15.0" fill="rgb(210,24,5)" rx="2" ry="2" />
<text  x="13.00" y="399.5" >[unknown]</text>
</g>
<g >
<title>[unknown] (847,817 samples, 33.77%)</title><rect x="262.0" y="261" width="330.9" height="15.0" fill="rgb(210,24,5)" rx="2" ry="2" />
<text  x="264.99" y="271.5" >[unknown]</text>
</g>
<g >
<title>[libze_intel_gpu.so.1.6.34666.3] (511,753 samples, 20.38%)</title><rect x="790.2" y="405" width="199.8" height="15.0" fill="rgb(212,34,8)" rx="2" ry="2" />
<text  x="793.23" y="415.5" >[libze_intel_gpu.so.1.6.34..</text>
</g>
<g >
<title>[unknown] (847,817 samples, 33.77%)</title><rect x="262.0" y="85" width="330.9" height="15.0" fill="rgb(210,24,5)" rx="2" ry="2" />
<text  x="264.99" y="95.5" >[unknown]</text>
</g>
<g >
<title>[unknown] (199,998 samples, 7.97%)</title><rect x="10.0" y="213" width="78.1" height="15.0" fill="rgb(210,24,5)" rx="2" ry="2" />
<text  x="13.00" y="223.5" >[unknown]</text>
</g>
<g >
<title>[unknown] (847,817 samples, 33.77%)</title><rect x="262.0" y="197" width="330.9" height="15.0" fill="rgb(210,24,5)" rx="2" ry="2" />
<text  x="264.99" y="207.5" >[unknown]</text>
</g>
<g >
<title>[unknown] (505,431 samples, 20.13%)</title><rect x="592.9" y="133" width="197.3" height="15.0" fill="rgb(210,24,5)" rx="2" ry="2" />
<text  x="595.94" y="143.5" >[unknown]</text>
</g>
<g >
<title>[unknown] (280,196 samples, 11.16%)</title><rect x="152.6" y="261" width="109.4" height="15.0" fill="rgb(210,24,5)" rx="2" ry="2" />
<text  x="155.61" y="271.5" >[unknown]</text>
</g>
<g >
<title>[unknown] (199,998 samples, 7.97%)</title><rect x="10.0" y="357" width="78.1" height="15.0" fill="rgb(210,24,5)" rx="2" ry="2" />
<text  x="13.00" y="367.5" >[unknown]</text>
</g>
<g >
<title>[libze_intel_gpu.so.1.6.34666.3] (511,753 samples, 20.38%)</title><rect x="790.2" y="389" width="199.8" height="15.0" fill="rgb(212,34,8)" rx="2" ry="2" />
<text  x="793.23" y="399.5" >[libze_intel_gpu.so.1.6.34..</text>
</g>
<g >
<title>[unknown] (847,817 samples, 33.77%)</title><rect x="262.0" y="229" width="330.9" height="15.0" fill="rgb(210,24,5)" rx="2" ry="2" />
<text  x="264.99" y="239.5" >[unknown]</text>
</g>
<g >
<title>[unknown] (847,817 samples, 33.77%)</title><rect x="262.0" y="149" width="330.9" height="15.0" fill="rgb(210,24,5)" rx="2" ry="2" />
<text  x="264.99" y="159.5" >[unknown]</text>
</g>
<g >
<title>__GI___libc_malloc (511,753 samples, 20.38%)</title><rect x="790.2" y="245" width="199.8" height="15.0" fill="rgb(219,68,16)" rx="2" ry="2" />
<text  x="793.23" y="255.5" >__GI___libc_malloc</text>
</g>
<g >
<title>[unknown] (165,342 samples, 6.59%)</title><rect x="88.1" y="325" width="64.5" height="15.0" fill="rgb(210,24,5)" rx="2" ry="2" />
<text  x="91.07" y="335.5" >[unknown]</text>
</g>
<g >
<title>_dl_map_segments (847,817 samples, 33.77%)</title><rect x="262.0" y="309" width="330.9" height="15.0" fill="rgb(254,227,54)" rx="2" ry="2" />
<text  x="264.99" y="319.5" >_dl_map_segments</text>
</g>
<g >
<title>[unknown] (505,431 samples, 20.13%)</title><rect x="592.9" y="181" width="197.3" height="15.0" fill="rgb(210,24,5)" rx="2" ry="2" />
<text  x="595.94" y="191.5" >[unknown]</text>
</g>
<g >
<title>[unknown] (511,753 samples, 20.38%)</title><rect x="790.2" y="149" width="199.8" height="15.0" fill="rgb(210,24,5)" rx="2" ry="2" />
<text  x="793.23" y="159.5" >[unknown]</text>
</g>
<g >
<title>operator new (511,753 samples, 20.38%)</title><rect x="790.2" y="261" width="199.8" height="15.0" fill="rgb(216,51,12)" rx="2" ry="2" />
<text  x="793.23" y="271.5" >operator new</text>
</g>
<g >
<title>_dl_map_object_deps (1,353,248 samples, 53.90%)</title><rect x="262.0" y="389" width="528.2" height="15.0" fill="rgb(219,68,16)" rx="2" ry="2" />
<text  x="264.99" y="399.5" >_dl_map_object_deps</text>
</g>
<g >
<title>_dl_start_final (1,798,786 samples, 71.65%)</title><rect x="88.1" y="437" width="702.1" height="15.0" fill="rgb(252,216,51)" rx="2" ry="2" />
<text  x="91.07" y="447.5" >_dl_start_final</text>
</g>
<g >
<title>[unknown] (199,998 samples, 7.97%)</title><rect x="10.0" y="277" width="78.1" height="15.0" fill="rgb(210,24,5)" rx="2" ry="2" />
<text  x="13.00" y="287.5" >[unknown]</text>
</g>
<g >
<title>[libze_intel_gpu.so.1.6.34666.3] (511,753 samples, 20.38%)</title><rect x="790.2" y="293" width="199.8" height="15.0" fill="rgb(212,34,8)" rx="2" ry="2" />
<text  x="793.23" y="303.5" >[libze_intel_gpu.so.1.6.34..</text>
</g>
<g >
<title>__GI_mprotect (511,753 samples, 20.38%)</title><rect x="790.2" y="181" width="199.8" height="15.0" fill="rgb(220,71,17)" rx="2" ry="2" />
<text  x="793.23" y="191.5" >__GI_mprotect</text>
</g>
<g >
<title>[unknown] (165,342 samples, 6.59%)</title><rect x="88.1" y="261" width="64.5" height="15.0" fill="rgb(210,24,5)" rx="2" ry="2" />
<text  x="91.07" y="271.5" >[unknown]</text>
</g>
<g >
<title>__mmap64 (847,817 samples, 33.77%)</title><rect x="262.0" y="293" width="330.9" height="15.0" fill="rgb(243,175,41)" rx="2" ry="2" />
<text  x="264.99" y="303.5" >__mmap64</text>
</g>
<g >
<title>[unknown] (280,196 samples, 11.16%)</title><rect x="152.6" y="325" width="109.4" height="15.0" fill="rgb(210,24,5)" rx="2" ry="2" />
<text  x="155.61" y="335.5" >[unknown]</text>
</g>
<g >
<title>[unknown] (199,998 samples, 7.97%)</title><rect x="10.0" y="421" width="78.1" height="15.0" fill="rgb(210,24,5)" rx="2" ry="2" />
<text  x="13.00" y="431.5" >[unknown]</text>
</g>
<g >
<title>[unknown] (199,998 samples, 7.97%)</title><rect x="10.0" y="245" width="78.1" height="15.0" fill="rgb(210,24,5)" rx="2" ry="2" />
<text  x="13.00" y="255.5" >[unknown]</text>
</g>
<g >
<title>_start (1,798,786 samples, 71.65%)</title><rect x="88.1" y="469" width="702.1" height="15.0" fill="rgb(245,185,44)" rx="2" ry="2" />
<text  x="91.07" y="479.5" >_start</text>
</g>
</g>
</svg>
